<svg width="18" height="15" viewBox="0 0 18 15" fill="none" xmlns="http://www.w3.org/2000/svg">
<path d="M17.9701 2.79141C17.8803 2.54444 17.5899 2.41054 17.3236 2.49386L15.2526 3.14104L16.9964 1.61161C17.2017 1.43159 17.2097 1.13255 17.0172 0.942118C16.8231 0.751684 16.5007 0.744245 16.2953 0.922777L14.8371 2.20226L15.5558 0.66093C15.6681 0.421399 15.5478 0.141699 15.2895 0.0390428C15.0312 -0.065101 14.7296 0.0464816 14.619 0.286012L12.9827 3.79863C12.8961 3.98609 12.9506 4.19587 13.1014 4.32828C13.1976 4.56632 13.48 4.69427 13.7415 4.61244L17.6525 3.39098C17.9188 3.30767 18.0631 3.03838 17.9733 2.79141H17.9701Z" fill="#6B7C33"/>
<path d="M13.3228 3.40445C12.8864 3.12624 10.7352 1.91371 8.30324 3.20211C7.91022 3.4104 7.44019 3.77044 6.92846 4.23016C7.64713 4.66162 8.68986 5.84439 8.81338 5.98722C8.95295 6.14641 8.92567 6.38148 8.75242 6.51091C8.67863 6.56596 8.58879 6.59423 8.50056 6.59423C8.38346 6.59423 8.26795 6.54662 8.18774 6.45586C7.72574 5.92622 6.83541 5.01124 6.41351 4.81337C6.38945 4.80295 6.36859 4.78956 6.34774 4.77469C5.86327 5.2478 5.35474 5.78637 4.84622 6.35321C5.5665 6.72515 6.98621 8.1058 7.14823 8.26648C7.30063 8.41525 7.29261 8.65181 7.13219 8.79166C7.05519 8.8601 6.95573 8.89283 6.85627 8.89283C6.75039 8.89283 6.64451 8.85415 6.5643 8.77678C5.96754 8.19209 4.86065 7.18933 4.42752 6.987C4.39223 6.97063 4.36336 6.9498 4.33608 6.926C3.91418 7.40952 3.5003 7.90346 3.10567 8.38699C3.82755 8.76042 5.36758 10.1247 5.54564 10.2839C5.70606 10.4267 5.71087 10.6618 5.55687 10.8091C5.47827 10.8849 5.37239 10.9236 5.26812 10.9236C5.16385 10.9236 5.06759 10.8894 4.99059 10.8195C4.51575 10.397 3.17625 9.2484 2.68216 9.0178C2.66131 9.00739 2.64206 8.99548 2.62441 8.98358C1.3555 10.5725 0.388172 11.9249 0.275878 12.1957C0.00316583 12.8518 -0.219818 13.7935 0.384962 14.2919C1.36512 15.0998 2.39983 15.2263 4.55265 14.6207C6.70387 14.0152 10.5443 11.2866 12.5864 10.0488C14.6286 8.811 15.0649 7.44672 15.0649 6.05863C15.0649 4.67054 13.7575 3.68415 13.3212 3.40594L13.3228 3.40445Z" fill="#F8984C"/>
<path d="M4.9923 10.8195C5.0709 10.8894 5.17036 10.9236 5.26982 10.9236C5.3757 10.9236 5.47997 10.8849 5.55858 10.809C5.71258 10.6603 5.70616 10.4252 5.54735 10.2839C5.36928 10.1247 3.82766 8.76039 3.10737 8.38696C2.94214 8.58781 2.78172 8.78717 2.62451 8.98356C2.64216 8.99546 2.66141 9.00885 2.68227 9.01778C3.17796 9.24987 4.51585 10.3969 4.99069 10.8195H4.9923Z" fill="#BF6A26"/>
<path d="M6.56583 8.77538C6.64444 8.85275 6.75032 8.89143 6.8578 8.89143C6.95726 8.89143 7.05672 8.85721 7.13372 8.79026C7.29414 8.64892 7.30215 8.41385 7.14976 8.26508C6.98613 8.1044 5.56642 6.72375 4.84775 6.35181C4.6777 6.54075 4.50926 6.73268 4.34082 6.92609C4.36809 6.94989 4.39697 6.97072 4.43226 6.98708C4.86539 7.18942 5.97228 8.19218 6.56904 8.77687L6.56583 8.77538Z" fill="#BF6A26"/>
<path d="M8.18752 6.45446C8.26613 6.54522 8.38324 6.59282 8.50034 6.59282C8.58857 6.59282 8.67841 6.56604 8.7522 6.50951C8.92385 6.38007 8.95112 6.14649 8.81316 5.98581C8.68964 5.84299 7.64691 4.65872 6.92824 4.22876C6.74055 4.39688 6.54644 4.57839 6.34912 4.7718C6.36998 4.78667 6.39083 4.80006 6.41489 4.81048C6.8368 5.00835 7.72712 5.92333 8.18913 6.45297L8.18752 6.45446Z" fill="#BF6A26"/>
</svg>
