<svg width="366" height="320" viewBox="0 0 366 320" fill="none" xmlns="http://www.w3.org/2000/svg">
<rect width="366" height="320" rx="8" fill="white"/>
<path d="M23.52 33.52C22.272 33.52 21.136 33.168 20.48 32.72L20.752 31.6C21.344 31.984 22.352 32.352 23.216 32.352C24.88 32.352 25.872 31.424 25.872 29.936C25.872 28.352 24.912 27.728 23.28 27.728C22.544 27.728 21.536 28.032 21.04 28.256L21.424 22.56H26.912V23.728H22.544L22.336 26.864C22.752 26.752 23.376 26.64 23.84 26.64C26 26.64 27.328 27.696 27.328 29.968C27.328 31.904 25.888 33.52 23.52 33.52ZM40.3353 35.104H30.2713V32.08H38.3993V31.136H30.2713V30.08H39.8073V33.056H31.6953V34.032H40.3353V35.104ZM36.0953 23.776C36.0953 25.232 34.5913 26.08 32.6233 26.08C30.6553 26.08 29.1352 25.232 29.1352 23.76C29.1352 22.336 30.6553 21.456 32.6233 21.456C34.5913 21.456 36.0953 22.304 36.0953 23.776ZM39.8073 29.52H38.4153V28.96H35.4233V27.952H38.4153V21.136H39.8073V29.52ZM33.2633 29.536H31.8552V27.824C30.5912 27.856 29.4712 27.888 28.3192 27.904L28.1112 26.736C29.7273 26.736 31.2153 26.72 32.7513 26.656C34.5433 26.576 35.9193 26.496 37.2473 26.336L37.3753 27.392C36.3993 27.52 34.7673 27.648 33.2633 27.744V29.536ZM34.6713 23.776C34.6713 22.992 33.8393 22.56 32.6233 22.56C31.4392 22.56 30.5912 22.992 30.5912 23.776C30.5912 24.56 31.4553 24.96 32.6233 24.96C33.7913 24.96 34.6713 24.56 34.6713 23.776ZM47.5821 33.392V23.984L45.6301 24.416V23.6L48.2221 22.4H48.9901V33.392H47.5821ZM55.8731 33.568V31.248H50.7211V30.272L56.1291 22.4H57.2011V30.128H58.9931V31.248H57.2011V33.568H55.8731ZM52.1931 30.128H55.8891V24.752L52.1931 30.128ZM71.0019 28.256H69.5779V21.136H71.0019V28.256ZM71.4979 35.024H61.9139V31.424H69.5779V30.128H61.8659V28.976H71.0019V32.48H63.3219V33.856H71.4979V35.024ZM63.4979 21.6C65.4979 21.6 67.0659 22.896 67.0659 24.784C67.0659 26.656 65.4979 27.888 63.4979 27.888C61.5299 27.888 59.9139 26.704 59.9139 24.8C59.9139 22.928 61.4819 21.6 63.4979 21.6ZM63.4979 22.816C62.2819 22.816 61.3059 23.632 61.3059 24.784C61.3059 25.92 62.2499 26.704 63.4979 26.704C64.8099 26.704 65.6739 25.872 65.6739 24.784C65.6739 23.632 64.8259 22.816 63.4979 22.816ZM77.0168 28.72V27.552H82.2808V28.72H77.0168ZM90.1075 33.52C88.8595 33.52 87.7235 33.168 87.0675 32.72L87.3395 31.6C87.9315 31.984 88.9395 32.352 89.8035 32.352C91.4675 32.352 92.4595 31.424 92.4595 29.936C92.4595 28.352 91.4995 27.728 89.8675 27.728C89.1315 27.728 88.1235 28.032 87.6275 28.256L88.0115 22.56H93.4995V23.728H89.1315L88.9235 26.864C89.3395 26.752 89.9635 26.64 90.4275 26.64C92.5875 26.64 93.9155 27.696 93.9155 29.968C93.9155 31.904 92.4755 33.52 90.1075 33.52ZM106.923 35.104H96.8588V32.08H104.987V31.136H96.8588V30.08H106.395V33.056H98.2828V34.032H106.923V35.104ZM102.683 23.776C102.683 25.232 101.179 26.08 99.2108 26.08C97.2428 26.08 95.7228 25.232 95.7228 23.76C95.7228 22.336 97.2428 21.456 99.2108 21.456C101.179 21.456 102.683 22.304 102.683 23.776ZM106.395 29.52H105.003V28.96H102.011V27.952H105.003V21.136H106.395V29.52ZM99.8508 29.536H98.4427V27.824C97.1788 27.856 96.0588 27.888 94.9068 27.904L94.6988 26.736C96.3148 26.736 97.8028 26.72 99.3388 26.656C101.131 26.576 102.507 26.496 103.835 26.336L103.963 27.392C102.987 27.52 101.355 27.648 99.8508 27.744V29.536ZM101.259 23.776C101.259 22.992 100.427 22.56 99.2108 22.56C98.0268 22.56 97.1788 22.992 97.1788 23.776C97.1788 24.56 98.0428 24.96 99.2108 24.96C100.379 24.96 101.259 24.56 101.259 23.776ZM114.17 33.392V23.984L112.218 24.416V23.6L114.81 22.4H115.578V33.392H114.17ZM121.565 33.536C119.197 33.536 117.741 32.352 117.741 30.592C117.741 29.184 118.925 28.208 120.109 27.744C118.973 27.28 118.061 26.48 118.061 25.104C118.061 23.52 119.405 22.368 121.517 22.368C123.581 22.368 124.973 23.344 124.973 25.024C124.973 26.32 123.933 27.088 122.829 27.648C124.141 28.08 125.389 28.848 125.389 30.448C125.389 32.192 123.933 33.536 121.565 33.536ZM121.533 32.4C122.909 32.4 123.901 31.648 123.901 30.592C123.901 29.312 123.037 28.816 121.229 28.256C120.189 28.608 119.149 29.376 119.149 30.512C119.149 31.664 120.125 32.4 121.533 32.4ZM121.789 27.136C122.749 26.72 123.533 26.08 123.533 25.088C123.533 24.176 122.845 23.504 121.549 23.504C120.317 23.504 119.549 24.08 119.549 25.072C119.549 26.144 120.365 26.784 121.789 27.136ZM137.886 28.256H136.462V21.136H137.886V28.256ZM138.382 35.024H128.798V31.424H136.462V30.128H128.75V28.976H137.886V32.48H130.206V33.856H138.382V35.024ZM130.382 21.6C132.382 21.6 133.95 22.896 133.95 24.784C133.95 26.656 132.382 27.888 130.382 27.888C128.414 27.888 126.798 26.704 126.798 24.8C126.798 22.928 128.366 21.6 130.382 21.6ZM130.382 22.816C129.166 22.816 128.19 23.632 128.19 24.784C128.19 25.92 129.134 26.704 130.382 26.704C131.694 26.704 132.558 25.872 132.558 24.784C132.558 23.632 131.71 22.816 130.382 22.816Z" fill="#5B5B5B"/>
<path d="M44.608 68.928C44.608 72.288 40.896 74.336 34.464 74.336C28.064 74.336 24.352 72.288 24.352 68.928C24.352 65.536 28.064 63.488 34.464 63.488C40.896 63.488 44.608 65.536 44.608 68.928ZM36.96 58.784L37.28 61.664C33.696 62.272 27.072 62.688 21.152 62.688L20.64 59.584C21.696 59.584 22.848 59.584 24.064 59.552L23.424 52.512L27.104 52.096L27.424 59.488L30.272 59.392L30.624 52.128L34.208 52.48L33.536 59.2C34.784 59.104 35.936 58.976 36.96 58.784ZM44.544 63.424H40.8V58.4H37.248V55.584H40.8V52.896H37.248V50.08H40.8V46.016H44.544V63.424ZM40.672 68.928C40.672 67.392 38.368 66.464 34.464 66.464C30.624 66.464 28.256 67.392 28.256 68.928C28.256 70.432 30.624 71.36 34.464 71.36C38.368 71.36 40.672 70.432 40.672 68.928ZM36.16 50.944H21.472V47.968H36.16V50.944ZM70.3115 47.296C70.3115 51.776 70.1195 55.168 69.4155 57.952H73.6075V60.928H67.2075V67.68H63.4955V60.928H59.7835V67.68H56.0715V60.928H47.8475V57.952H65.7995C66.3435 55.776 66.5995 53.152 66.5675 50.24H51.1755V47.296H70.3115ZM70.6955 73.76H51.1115V64.864H54.8235V70.816H70.6955V73.76ZM84.5492 70.688L92.5492 52H82.5972V48.896H96.8052V51.232L88.9012 70.688H84.5492ZM121.594 74.528H117.85V46.016H121.594V74.528ZM115.706 65.248L113.53 68.064C111.194 66.624 108.218 63.168 107.258 60.192C106.33 63.456 103.386 67.072 100.442 68.672L98.17 65.92C102.778 62.944 105.242 58.432 105.242 52.768V48.416H109.114V52.576C109.114 58.208 111.386 62.464 115.706 65.248ZM151.266 57.216H147.202V66.656H143.426V46.016H147.202V54.144H151.266V57.216ZM139.234 48.192C139.202 56.416 133.314 61.696 126.37 63.456L124.514 60.48C129.282 59.648 134.274 56.288 135.202 51.296H125.954V48.192H139.234ZM147.906 73.696H128.866V64.512H132.642V70.72H147.906V73.696Z" fill="#434343"/>
<path d="M29.528 297.828H21.98V295.56H28.076V294.852H21.98V294.06H29.132V296.292H23.048V297.024H29.528V297.828ZM26.348 289.332C26.348 290.424 25.22 291.06 23.744 291.06C22.268 291.06 21.128 290.424 21.128 289.32C21.128 288.252 22.268 287.592 23.744 287.592C25.22 287.592 26.348 288.228 26.348 289.332ZM29.132 293.64H28.088V293.22H25.844V292.464H28.088V287.352H29.132V293.64ZM24.224 293.652H23.168V292.368C22.22 292.392 21.38 292.416 20.516 292.428L20.36 291.552C21.572 291.552 22.688 291.54 23.84 291.492C25.184 291.432 26.216 291.372 27.212 291.252L27.308 292.044C26.576 292.14 25.352 292.236 24.224 292.308V293.652ZM25.28 289.332C25.28 288.744 24.656 288.42 23.744 288.42C22.856 288.42 22.22 288.744 22.22 289.332C22.22 289.92 22.868 290.22 23.744 290.22C24.62 290.22 25.28 289.92 25.28 289.332Z" fill="#4B4B4B"/>
<path d="M115.7 297.852H114.632V294.084H110.456V293.232H119.924V294.084H115.7V297.852ZM119.564 291.324L119.06 292.188C117.512 291.9 115.736 290.856 115.184 289.692C114.716 290.856 112.916 291.9 111.32 292.2L110.84 291.336C112.736 291.084 114.632 289.8 114.632 288.336V287.676H115.748V288.336C115.748 289.8 117.86 291.156 119.564 291.324Z" fill="#4B4B4B"/>
<path d="M164.924 293.46H155.456V292.584H159.632V291.336H156.668V287.736H163.724V291.336H160.7V292.584H164.924V293.46ZM162.644 290.496V288.588H157.724V290.496H162.644ZM156.5 294.48H163.76V297.888H162.704V295.344H156.5V294.48Z" fill="#4B4B4B"/>
<path d="M71.996 295.776C71.12 295.896 69.632 296.004 68.384 296.076C67.256 296.136 66.272 296.16 65.408 296.16L65.252 295.272C66.068 295.272 67.028 295.272 68.036 295.224V294.276C66.86 294.12 66.056 293.436 66.056 292.524C66.056 291.444 67.112 290.724 68.564 290.724C70.052 290.724 71.072 291.432 71.072 292.524C71.072 293.46 70.292 294.132 69.092 294.276V295.164C70.232 295.104 71.204 295.02 71.888 294.936L71.996 295.776ZM75.224 292.908H73.604V297.84H72.56V287.352H73.604V292.02H75.224V292.908ZM71.732 290.292H65.504V289.416H71.732V290.292ZM69.98 292.524C69.98 291.996 69.416 291.588 68.564 291.588C67.736 291.588 67.16 291.996 67.16 292.524C67.16 293.028 67.736 293.46 68.564 293.46C69.416 293.46 69.98 293.028 69.98 292.524ZM70.04 288.732H67.052V287.868H70.04V288.732Z" fill="#4B4B4B"/>
<path d="M208.724 297.696H201.656V293.952H208.724V297.696ZM208.676 287.976C208.676 289.344 208.556 290.772 208.34 291.828H209.924V292.692H200.456V291.828H207.296C207.476 291.048 207.596 289.62 207.596 288.828H201.692V287.976H208.676ZM207.656 296.856V294.804H202.724V296.856H207.656Z" fill="#4B4B4B"/>
<path d="M253.448 291.336H247.628V292.86H253.904V293.712H250.7V295.644H254.924V296.508H245.456V295.644H249.632V293.712H246.572V288.252H253.796V289.128H247.628V290.496H253.448V291.336Z" fill="#4B4B4B"/>
<path d="M299.06 292.692H297.992V287.352H299.06V292.692ZM299.432 297.768H292.244V295.068H297.992V294.096H292.208V293.232H299.06V295.86H293.3V296.892H299.432V297.768ZM293.432 287.7C294.932 287.7 296.108 288.672 296.108 290.088C296.108 291.492 294.932 292.416 293.432 292.416C291.956 292.416 290.744 291.528 290.744 290.1C290.744 288.696 291.92 287.7 293.432 287.7ZM293.432 288.612C292.52 288.612 291.788 289.224 291.788 290.088C291.788 290.94 292.496 291.528 293.432 291.528C294.416 291.528 295.064 290.904 295.064 290.088C295.064 289.224 294.428 288.612 293.432 288.612Z" fill="#4B4B4B"/>
<path d="M341.792 278.64C340.136 278.64 338.84 277.512 338.84 274.788V274.116C338.84 271.272 340.22 270.312 341.804 270.312C343.376 270.312 344.672 271.272 344.672 274.068V274.8C344.672 277.524 343.424 278.64 341.792 278.64ZM341.792 277.848C343.028 277.848 343.7 277.008 343.7 274.944V274.056C343.7 272.028 343.04 271.104 341.804 271.104C340.544 271.104 339.86 271.98 339.86 273.996V274.884C339.86 276.888 340.532 277.848 341.792 277.848Z" fill="#4B4B4B"/>
<path d="M341.444 127.652C339.728 127.652 338.636 126.764 338.636 125.444C338.636 124.388 339.548 123.656 340.436 123.308C339.572 122.972 338.864 122.36 338.864 121.328C338.864 120.164 339.86 119.3 341.408 119.3C342.92 119.3 343.94 120.032 343.94 121.28C343.94 122.252 343.136 122.816 342.308 123.248C343.304 123.572 344.264 124.148 344.264 125.36C344.264 126.644 343.184 127.652 341.444 127.652ZM341.432 126.86C342.464 126.86 343.244 126.284 343.244 125.456C343.244 124.472 342.584 124.112 341.192 123.668C340.4 123.944 339.596 124.52 339.596 125.408C339.596 126.296 340.364 126.86 341.432 126.86ZM341.6 122.9C342.356 122.564 342.944 122.084 342.944 121.316C342.944 120.608 342.416 120.092 341.42 120.092C340.496 120.092 339.884 120.536 339.884 121.304C339.884 122.132 340.532 122.624 341.6 122.9Z" fill="#4B4B4B"/>
<path d="M340.616 178.64C339.68 178.64 338.84 178.376 338.36 178.028L338.54 177.26C338.984 177.56 339.776 177.836 340.436 177.836C341.708 177.836 342.452 177.116 342.452 175.976C342.452 174.752 341.732 174.26 340.472 174.26C339.92 174.26 339.164 174.488 338.792 174.656L339.08 170.432H343.16V171.248H339.848L339.68 173.696C340.004 173.612 340.496 173.528 340.832 173.528C342.452 173.528 343.448 174.296 343.448 175.988C343.448 177.428 342.392 178.64 340.616 178.64Z" fill="#4B4B4B"/>
<path d="M340.796 229.616C339.86 229.616 339.056 229.352 338.612 229.04L338.816 228.284C339.272 228.584 340.076 228.812 340.676 228.812C342.008 228.812 342.752 228.224 342.752 227.228C342.752 226.196 341.96 225.704 340.736 225.704H339.956V224.888H340.676C341.72 224.888 342.428 224.36 342.428 223.46C342.428 222.476 341.792 222.128 340.808 222.128C340.148 222.128 339.524 222.416 339.02 222.704L338.876 221.936C339.356 221.612 340.304 221.312 341 221.312C342.44 221.312 343.424 222.044 343.424 223.304C343.424 224.3 342.8 224.888 341.888 225.188C342.932 225.392 343.724 225.98 343.724 227.228C343.724 228.632 342.584 229.616 340.796 229.616Z" fill="#4B4B4B"/>
<line x1="20.5" y1="124" x2="20.5" y2="297" stroke="#D9D9D9" stroke-dasharray="2 2"/>
<line x1="65.5" y1="124" x2="65.5" y2="297" stroke="#D9D9D9" stroke-dasharray="2 2"/>
<line x1="110.5" y1="124" x2="110.5" y2="297" stroke="#D9D9D9" stroke-dasharray="2 2"/>
<line x1="155.5" y1="124" x2="155.5" y2="297" stroke="#D9D9D9" stroke-dasharray="2 2"/>
<line x1="200.5" y1="124" x2="200.5" y2="297" stroke="#D9D9D9" stroke-dasharray="2 2"/>
<line x1="245.5" y1="124" x2="245.5" y2="297" stroke="#D9D9D9" stroke-dasharray="2 2"/>
<line x1="290.5" y1="124" x2="290.5" y2="297" stroke="#D9D9D9" stroke-dasharray="2 2"/>
<line x1="333.5" y1="124" x2="333.5" y2="282" stroke="#D9D9D9"/>
<line x1="20" y1="226.576" x2="333" y2="226.576" stroke="#D9D9D9"/>
<line x1="20" y1="281.5" x2="333" y2="281.5" stroke="#D9D9D9"/>
<line x1="20" y1="173.962" x2="333" y2="173.962" stroke="#D9D9D9"/>
<rect x="21" y="199" width="28" height="82" rx="14" fill="#C5D9A0"/>
<rect x="66" y="227" width="28" height="54" rx="14" fill="#C5D9A0"/>
<rect x="111" y="191" width="28" height="90" rx="14" fill="#C5D9A0"/>
<rect x="156" y="124" width="28" height="157" rx="14" fill="#C5D9A0"/>
<rect x="201" y="268" width="28" height="14" rx="7" fill="#C7C7C7"/>
<rect x="246" y="268" width="28" height="14" rx="7" fill="#C7C7C7"/>
<rect x="291" y="267" width="28" height="14" rx="7" fill="#C7C7C7"/>
<path d="M29.528 297.828H21.98V295.56H28.076V294.852H21.98V294.06H29.132V296.292H23.048V297.024H29.528V297.828ZM26.348 289.332C26.348 290.424 25.22 291.06 23.744 291.06C22.268 291.06 21.128 290.424 21.128 289.32C21.128 288.252 22.268 287.592 23.744 287.592C25.22 287.592 26.348 288.228 26.348 289.332ZM29.132 293.64H28.088V293.22H25.844V292.464H28.088V287.352H29.132V293.64ZM24.224 293.652H23.168V292.368C22.22 292.392 21.38 292.416 20.516 292.428L20.36 291.552C21.572 291.552 22.688 291.54 23.84 291.492C25.184 291.432 26.216 291.372 27.212 291.252L27.308 292.044C26.576 292.14 25.352 292.236 24.224 292.308V293.652ZM25.28 289.332C25.28 288.744 24.656 288.42 23.744 288.42C22.856 288.42 22.22 288.744 22.22 289.332C22.22 289.92 22.868 290.22 23.744 290.22C24.62 290.22 25.28 289.92 25.28 289.332Z" fill="#4B4B4B"/>
<path d="M115.7 297.852H114.632V294.084H110.456V293.232H119.924V294.084H115.7V297.852ZM119.564 291.324L119.06 292.188C117.512 291.9 115.736 290.856 115.184 289.692C114.716 290.856 112.916 291.9 111.32 292.2L110.84 291.336C112.736 291.084 114.632 289.8 114.632 288.336V287.676H115.748V288.336C115.748 289.8 117.86 291.156 119.564 291.324Z" fill="#4B4B4B"/>
<path d="M164.924 293.46H155.456V292.584H159.632V291.336H156.668V287.736H163.724V291.336H160.7V292.584H164.924V293.46ZM162.644 290.496V288.588H157.724V290.496H162.644ZM156.5 294.48H163.76V297.888H162.704V295.344H156.5V294.48Z" fill="#4B4B4B"/>
<path d="M71.996 295.776C71.12 295.896 69.632 296.004 68.384 296.076C67.256 296.136 66.272 296.16 65.408 296.16L65.252 295.272C66.068 295.272 67.028 295.272 68.036 295.224V294.276C66.86 294.12 66.056 293.436 66.056 292.524C66.056 291.444 67.112 290.724 68.564 290.724C70.052 290.724 71.072 291.432 71.072 292.524C71.072 293.46 70.292 294.132 69.092 294.276V295.164C70.232 295.104 71.204 295.02 71.888 294.936L71.996 295.776ZM75.224 292.908H73.604V297.84H72.56V287.352H73.604V292.02H75.224V292.908ZM71.732 290.292H65.504V289.416H71.732V290.292ZM69.98 292.524C69.98 291.996 69.416 291.588 68.564 291.588C67.736 291.588 67.16 291.996 67.16 292.524C67.16 293.028 67.736 293.46 68.564 293.46C69.416 293.46 69.98 293.028 69.98 292.524ZM70.04 288.732H67.052V287.868H70.04V288.732Z" fill="#4B4B4B"/>
<path d="M208.724 297.696H201.656V293.952H208.724V297.696ZM208.676 287.976C208.676 289.344 208.556 290.772 208.34 291.828H209.924V292.692H200.456V291.828H207.296C207.476 291.048 207.596 289.62 207.596 288.828H201.692V287.976H208.676ZM207.656 296.856V294.804H202.724V296.856H207.656Z" fill="#4B4B4B"/>
<path d="M253.448 291.336H247.628V292.86H253.904V293.712H250.7V295.644H254.924V296.508H245.456V295.644H249.632V293.712H246.572V288.252H253.796V289.128H247.628V290.496H253.448V291.336Z" fill="#4B4B4B"/>
<path d="M299.06 292.692H297.992V287.352H299.06V292.692ZM299.432 297.768H292.244V295.068H297.992V294.096H292.208V293.232H299.06V295.86H293.3V296.892H299.432V297.768ZM293.432 287.7C294.932 287.7 296.108 288.672 296.108 290.088C296.108 291.492 294.932 292.416 293.432 292.416C291.956 292.416 290.744 291.528 290.744 290.1C290.744 288.696 291.92 287.7 293.432 287.7ZM293.432 288.612C292.52 288.612 291.788 289.224 291.788 290.088C291.788 290.94 292.496 291.528 293.432 291.528C294.416 291.528 295.064 290.904 295.064 290.088C295.064 289.224 294.428 288.612 293.432 288.612Z" fill="#4B4B4B"/>
<path d="M341.792 278.64C340.136 278.64 338.84 277.512 338.84 274.788V274.116C338.84 271.272 340.22 270.312 341.804 270.312C343.376 270.312 344.672 271.272 344.672 274.068V274.8C344.672 277.524 343.424 278.64 341.792 278.64ZM341.792 277.848C343.028 277.848 343.7 277.008 343.7 274.944V274.056C343.7 272.028 343.04 271.104 341.804 271.104C340.544 271.104 339.86 271.98 339.86 273.996V274.884C339.86 276.888 340.532 277.848 341.792 277.848Z" fill="#4B4B4B"/>
<path d="M341.444 127.652C339.728 127.652 338.636 126.764 338.636 125.444C338.636 124.388 339.548 123.656 340.436 123.308C339.572 122.972 338.864 122.36 338.864 121.328C338.864 120.164 339.86 119.3 341.408 119.3C342.92 119.3 343.94 120.032 343.94 121.28C343.94 122.252 343.136 122.816 342.308 123.248C343.304 123.572 344.264 124.148 344.264 125.36C344.264 126.644 343.184 127.652 341.444 127.652ZM341.432 126.86C342.464 126.86 343.244 126.284 343.244 125.456C343.244 124.472 342.584 124.112 341.192 123.668C340.4 123.944 339.596 124.52 339.596 125.408C339.596 126.296 340.364 126.86 341.432 126.86ZM341.6 122.9C342.356 122.564 342.944 122.084 342.944 121.316C342.944 120.608 342.416 120.092 341.42 120.092C340.496 120.092 339.884 120.536 339.884 121.304C339.884 122.132 340.532 122.624 341.6 122.9Z" fill="#4B4B4B"/>
<path d="M340.616 178.64C339.68 178.64 338.84 178.376 338.36 178.028L338.54 177.26C338.984 177.56 339.776 177.836 340.436 177.836C341.708 177.836 342.452 177.116 342.452 175.976C342.452 174.752 341.732 174.26 340.472 174.26C339.92 174.26 339.164 174.488 338.792 174.656L339.08 170.432H343.16V171.248H339.848L339.68 173.696C340.004 173.612 340.496 173.528 340.832 173.528C342.452 173.528 343.448 174.296 343.448 175.988C343.448 177.428 342.392 178.64 340.616 178.64Z" fill="#4B4B4B"/>
<path d="M340.796 229.616C339.86 229.616 339.056 229.352 338.612 229.04L338.816 228.284C339.272 228.584 340.076 228.812 340.676 228.812C342.008 228.812 342.752 228.224 342.752 227.228C342.752 226.196 341.96 225.704 340.736 225.704H339.956V224.888H340.676C341.72 224.888 342.428 224.36 342.428 223.46C342.428 222.476 341.792 222.128 340.808 222.128C340.148 222.128 339.524 222.416 339.02 222.704L338.876 221.936C339.356 221.612 340.304 221.312 341 221.312C342.44 221.312 343.424 222.044 343.424 223.304C343.424 224.3 342.8 224.888 341.888 225.188C342.932 225.392 343.724 225.98 343.724 227.228C343.724 228.632 342.584 229.616 340.796 229.616Z" fill="#4B4B4B"/>
<line x1="20.5" y1="124" x2="20.5" y2="297" stroke="#D9D9D9" stroke-dasharray="2 2"/>
<line x1="65.5" y1="124" x2="65.5" y2="297" stroke="#D9D9D9" stroke-dasharray="2 2"/>
<line x1="110.5" y1="124" x2="110.5" y2="297" stroke="#D9D9D9" stroke-dasharray="2 2"/>
<line x1="155.5" y1="124" x2="155.5" y2="297" stroke="#D9D9D9" stroke-dasharray="2 2"/>
<line x1="200.5" y1="124" x2="200.5" y2="297" stroke="#D9D9D9" stroke-dasharray="2 2"/>
<line x1="245.5" y1="124" x2="245.5" y2="297" stroke="#D9D9D9" stroke-dasharray="2 2"/>
<line x1="290.5" y1="124" x2="290.5" y2="297" stroke="#D9D9D9" stroke-dasharray="2 2"/>
<line x1="333.5" y1="124" x2="333.5" y2="282" stroke="#D9D9D9"/>
<line x1="20" y1="226.576" x2="333" y2="226.576" stroke="#D9D9D9"/>
<line x1="20" y1="281.5" x2="333" y2="281.5" stroke="#D9D9D9"/>
<line x1="20" y1="173.962" x2="333" y2="173.962" stroke="#D9D9D9"/>
<rect x="21" y="199" width="28" height="82" rx="14" fill="#FFB7B7"/>
<rect x="66" y="227" width="28" height="54" rx="14" fill="#FFB7B7"/>
<rect x="111" y="191" width="28" height="90" rx="14" fill="#FFB7B7"/>
<rect x="156" y="124" width="28" height="157" rx="14" fill="#FFB7B7"/>
<rect x="201" y="268" width="28" height="14" rx="7" fill="#C7C7C7"/>
<rect x="246" y="268" width="28" height="14" rx="7" fill="#C7C7C7"/>
<rect x="291" y="267" width="28" height="14" rx="7" fill="#C7C7C7"/>
</svg>
