<svg width="143" height="25" viewBox="0 0 143 25" fill="none" xmlns="http://www.w3.org/2000/svg">
<path d="M9.5427 0.113777C11.5981 0.113777 13.378 0.496642 14.8718 1.26237C17.2874 2.57653 18.3151 4.0666 17.9655 5.73258C17.8277 6.77769 17.1497 7.47099 15.9419 7.81246C14.8718 8.09185 13.9925 7.84351 13.2826 7.08812C12.2867 5.6291 10.6869 5.03928 8.48323 5.31867C8.3455 5.31867 8.22896 5.34971 8.16539 5.42215C6.9576 5.55667 6.14181 6.14648 5.71802 7.1916C5.50613 7.75038 5.58029 8.34019 5.92992 8.96106C6.77749 9.51983 8.16539 9.75783 10.083 9.6854C11.2167 9.6854 12.0748 9.75783 12.6363 9.89235C14.9142 10.0993 16.7577 11.2065 18.1774 13.2243C19.0991 14.4764 19.5229 15.8216 19.4593 17.2806C19.5335 19.5054 18.6117 21.3369 16.6941 22.7959C15.9101 23.3547 15.0943 23.7686 14.2467 24.048C10.4856 25.2276 7.1483 25.2276 4.23477 24.048C1.89335 22.9408 0.505446 21.6163 0.0816594 20.0952C-0.204397 18.9155 0.261769 17.9842 1.46956 17.291C2.60319 16.5977 3.63087 16.6287 4.5632 17.3944C4.70093 17.4669 4.80688 17.5289 4.88104 17.6014C6.08884 19.1328 8.21836 19.6502 11.2696 19.1639C12.4774 19.0915 13.2932 18.6465 13.717 17.8083C14.0031 17.322 14.0031 16.8046 13.717 16.2458C13.0813 15.5525 11.9371 15.2007 10.3055 15.2007C6.7563 15.3352 4.16061 14.6419 2.52903 13.1208C0.727934 11.6618 -0.0878553 9.75783 0.06047 7.39855C0.06047 5.8671 0.526635 4.5219 1.44837 3.34226C3.07995 1.1175 5.70743 0.0413436 9.3308 0.113777H9.5427Z" fill="black"/>
<path d="M23.6016 10.4202C23.6016 7.98851 24.3432 5.87757 25.837 4.07708C27.6169 1.86267 30.202 0.745117 33.6135 0.745117C38.7307 1.23146 41.888 3.48726 43.0958 7.51251C43.3076 8.41276 43.4454 9.38544 43.5195 10.4306V22.289C43.5195 23.3962 42.9898 24.193 41.9197 24.6793C41.496 24.8863 41.104 24.9898 40.7437 24.9898C39.5359 24.9898 38.7202 24.431 38.2964 23.3238C38.1586 22.9823 38.0845 22.6305 38.0845 22.2787V10.4202C37.9467 7.85399 36.4529 6.43635 33.6135 6.15696C31.1979 6.15696 29.7465 7.26417 29.2485 9.48892C29.1744 9.84074 29.1426 10.1512 29.1426 10.4306V22.289C29.1426 23.3962 28.5705 24.193 27.4368 24.6793C27.1508 24.8863 26.8012 24.9898 26.3668 24.9898C25.159 24.9898 24.3114 24.431 23.8135 23.3238C23.6757 22.9823 23.6016 22.6305 23.6016 22.2787V10.4202Z" fill="black"/>
<path d="M64.7302 1.98678C67.9298 4.34605 69.5296 7.88497 69.5296 12.6035C69.5296 17.6635 67.9298 21.2438 64.7302 23.3237C62.9503 24.4309 60.9691 24.9897 58.7654 24.9897C56.2756 24.9897 54.0825 24.2964 52.1649 22.9098C49.4632 20.6851 48.1495 17.26 48.2237 12.6035C48.2237 7.67801 49.8235 4.17014 53.0231 2.09026C54.7288 0.910619 56.6464 0.320801 58.776 0.320801C61.0538 0.320801 63.035 0.879576 64.7408 1.98678H64.7302ZM58.7654 19.5779C62.251 19.5779 63.9885 17.2496 63.9885 12.6035C63.9885 7.9574 62.251 5.83612 58.7654 5.83612C57.8436 5.83612 56.9537 6.11551 56.1061 6.66394C54.5381 7.63662 53.7647 9.61303 53.7647 12.5932V13.0071C53.7647 17.3738 55.4386 19.5675 58.776 19.5675L58.7654 19.5779Z" fill="black"/>
<path d="M90.4118 1.98678C93.6114 4.34605 95.2112 7.88497 95.2112 12.6035C95.2112 17.6635 93.6114 21.2438 90.4118 23.3237C88.6319 24.4309 86.6507 24.9897 84.447 24.9897C81.9573 24.9897 79.7642 24.2964 77.8465 22.9098C75.1449 20.6851 73.8312 17.26 73.9053 12.6035C73.9053 7.67801 75.5051 4.17014 78.7047 2.09026C80.4104 0.910619 82.3281 0.320801 84.4576 0.320801C86.7355 0.320801 88.7167 0.879576 90.4224 1.98678H90.4118ZM84.447 19.5779C87.9327 19.5779 89.6702 17.2496 89.6702 12.6035C89.6702 7.9574 87.9327 5.83612 84.447 5.83612C83.5253 5.83612 82.6353 6.11551 81.7878 6.66394C80.2197 7.63662 79.4463 9.61303 79.4463 12.5932V13.0071C79.4463 17.3738 81.1203 19.5675 84.4576 19.5675L84.447 19.5779Z" fill="black"/>
<path d="M101.166 0.734863H115.871C117.005 0.734863 117.82 1.25225 118.318 2.29737C118.89 3.27005 118.816 4.24273 118.106 5.21542L106.918 19.4745H115.871C116.941 19.4745 117.757 19.9298 118.318 20.8301C118.89 21.7303 118.89 22.672 118.318 23.6447C117.746 24.5449 116.93 25.0002 115.871 25.0002H101.166C100.032 25.0002 99.1737 24.4828 98.6122 23.4377C98.1143 22.3926 98.2202 21.4303 98.93 20.5197L110.118 6.26053H101.166C100.095 6.26053 99.2797 5.80523 98.7181 4.90499C98.146 3.9323 98.146 3.00101 98.7181 2.09041C99.2903 1.19016 100.106 0.734863 101.166 0.734863Z" fill="black"/>
<path d="M138.459 18.6362C139.306 17.9429 140.27 17.767 141.34 18.1188C142.262 18.5327 142.792 19.2985 142.94 20.4057C143.152 21.4508 142.802 22.2786 141.87 22.8995C140.874 23.7273 139.635 24.3274 138.141 24.6689C137.071 24.8759 135.301 24.9483 132.812 24.8759C131.032 24.8759 129.294 24.286 127.588 23.1064C124.463 20.8817 122.789 17.5187 122.577 13.0071C122.503 12.6656 122.503 12.2827 122.577 11.8585C122.789 7.13991 124.463 3.77691 127.588 1.76946C129.294 0.589819 131.244 0 133.447 0C135.079 0 136.541 0.341474 137.812 1.04512C141.224 3.125 142.929 6.59148 142.929 11.4549V12.5C142.929 12.8415 142.855 13.1933 142.718 13.5348C142.294 14.642 141.436 15.2008 140.164 15.2008H128.552C129.05 17.56 130.47 18.9156 132.812 19.2571H133.776C136.265 19.2571 137.823 19.0501 138.459 18.6362ZM133.129 5.62915H132.812C132.176 5.62915 131.466 5.8361 130.682 6.25001C129.548 7.01574 128.839 8.15399 128.552 9.68544H137.293V9.47849C137.007 7.74008 136.297 6.60183 135.164 6.04306C134.666 5.76367 134.062 5.62915 133.352 5.62915H133.14H133.129Z" fill="black"/>
</svg>
