<svg width="76" height="76" viewBox="0 0 76 76" fill="none" xmlns="http://www.w3.org/2000/svg">
<circle cx="38" cy="38" r="32" fill="#B6D4E9"/>
<circle cx="38" cy="38" r="36" stroke="#B6D4E9" stroke-width="4"/>
<path d="M24.1045 35.4853H20.5205V36.4793H25.4625V37.6413H14.1925V36.4793H19.0925V35.4853H15.6765V31.5513H24.0205V32.6993H17.1185V34.3233H24.1045V35.4853ZM24.4265 43.6753H15.6345V40.5533H22.5365V39.6713H15.5925V38.5233H23.9645V41.6173H17.0765V42.5273H24.4265V43.6753ZM35.9937 31.2853V36.1573H37.9257V37.3473H35.9937V43.7593H34.5517V31.2853H35.9937ZM26.4457 36.6193C26.4457 33.9873 27.6357 32.2513 29.6377 32.2513C31.6397 32.2513 32.8017 33.9873 32.8017 36.6333C32.8017 39.2513 31.6397 40.9873 29.6377 40.9873C27.6357 40.9873 26.4457 39.2513 26.4457 36.6193ZM31.4437 36.6193C31.4437 34.6173 30.7017 33.4273 29.6377 33.4273C28.5877 33.4273 27.8597 34.6173 27.8597 36.6193C27.8597 38.6213 28.5877 39.8253 29.6377 39.8253C30.7017 39.8253 31.4437 38.6213 31.4437 36.6193ZM49.689 42.1633H38.419V41.0153H43.319V38.8873C41.009 38.6633 39.539 37.3473 39.539 35.4853C39.539 33.4273 41.345 32.0553 44.047 32.0553C46.791 32.0553 48.583 33.4273 48.583 35.4853C48.583 37.3613 47.085 38.6773 44.747 38.9013V41.0153H49.689V42.1633ZM47.141 35.4993C47.141 34.1693 45.923 33.2313 44.047 33.2313C42.213 33.2313 40.981 34.1693 40.981 35.4993C40.981 36.8153 42.213 37.7113 44.047 37.7113C45.909 37.7113 47.141 36.8153 47.141 35.4993ZM60.8083 43.7593H59.3803V31.2853H60.8083V43.7593ZM56.9863 32.6013C56.9023 36.4653 54.9703 39.4473 51.3723 41.4213L50.4763 40.3293C53.3463 39.0133 55.2083 36.3953 55.4463 33.7773H51.2043V32.6013H56.9863Z" fill="#725827"/>
</svg>
