<svg width="275" height="270" viewBox="0 0 275 270" fill="none" xmlns="http://www.w3.org/2000/svg">
<path d="M270 135C270 209.558 209.558 270 135 270C60.4416 270 0 209.558 0 135C0 60.4415 60.4416 0 135 0C209.558 0 270 60.4415 270 135ZM4.05 135C4.05 207.322 62.6783 265.95 135 265.95C207.322 265.95 265.95 207.322 265.95 135C265.95 62.6783 207.322 4.04999 135 4.04999C62.6783 4.04999 4.05 62.6783 4.05 135Z" fill="#EBEBEB"/>
<path d="M270 135C270 117.271 266.508 99.7166 259.724 83.3377C252.939 66.9587 242.995 52.0765 230.459 39.5406C217.924 27.0047 203.041 17.0606 186.662 10.2763C170.283 3.49188 152.728 -7.74935e-07 135 0L135 4.04999C152.197 4.04999 169.225 7.43711 185.112 14.018C201 20.5988 215.436 30.2445 227.596 42.4043C239.755 54.5642 249.401 69 255.982 84.8876C262.563 100.775 265.95 117.803 265.95 135H270Z" fill="url(#paint0_linear_1233_75131)"/>
<circle cx="267.522" cy="134.522" r="7" fill="#696969"/>
<defs>
<linearGradient id="paint0_linear_1233_75131" x1="269.522" y1="134.522" x2="113.138" y2="32.2065" gradientUnits="userSpaceOnUse">
<stop stop-color="#696969"/>
<stop offset="1" stop-color="#A5A5A5" stop-opacity="0"/>
<stop offset="1" stop-color="#A5A5A5" stop-opacity="0"/>
</linearGradient>
</defs>
</svg>
