<svg width="253" height="252" viewBox="0 0 253 252" fill="none" xmlns="http://www.w3.org/2000/svg">
<path d="M188.74 118.731C186.728 114.223 175.979 93.3625 149.881 92.5965C145.663 92.4733 140.036 93.2779 133.556 94.7351C137.009 101.93 139.099 117.148 139.332 118.974C139.607 121.018 138.157 122.902 136.101 123.171C135.225 123.284 134.362 123.09 133.661 122.661C132.729 122.092 132.061 121.122 131.899 119.954C131.002 113.163 128.72 100.985 126.402 97.2362C126.265 97.0299 126.169 96.8136 126.082 96.5846C119.748 98.2892 112.879 100.439 105.862 102.83C109.64 109.523 113.69 128.27 114.136 130.437C114.568 132.454 113.263 134.445 111.254 134.865C110.283 135.078 109.32 134.875 108.529 134.392C107.687 133.877 107.048 133.031 106.816 131.977C105.136 124.059 101.592 110.075 99.2083 106.233C99.0134 105.922 98.893 105.602 98.801 105.266C92.9099 107.364 87.028 109.59 81.3538 111.821C85.1365 118.534 90.2296 137.726 90.8109 139.957C91.3377 141.962 90.1432 144.003 88.146 144.518C87.123 144.787 86.0781 144.604 85.2488 144.097C84.4195 143.591 83.8335 142.829 83.5878 141.855C82.0273 135.921 77.3976 119.555 74.6775 115.175C74.5663 114.984 74.4756 114.788 74.3976 114.601C55.9732 122.066 41.1879 128.969 38.8748 130.746C33.2652 135.05 26.553 142.047 28.749 149.263C32.3076 160.959 39.8733 167.074 60.1702 172.343C80.4542 177.603 125.306 172.858 148.039 172.164C170.771 171.469 181.396 161.884 188.676 149.973C195.955 138.063 190.73 123.244 188.719 118.736L188.74 118.731Z" fill="#F8984C"/>
<path d="M83.6006 141.863C83.859 142.845 84.4706 143.622 85.2616 144.105C86.1036 144.62 87.1358 144.795 88.1588 144.526C90.1638 143.998 91.3455 141.95 90.8237 139.965C90.2424 137.733 85.1366 118.534 81.3666 111.829C78.9992 112.749 76.6779 113.68 74.3977 114.6C74.4756 114.788 74.5585 114.997 74.6775 115.175C77.4026 119.576 82.0273 135.921 83.5878 141.855L83.6006 141.863Z" fill="#BF6A26"/>
<path d="M106.836 131.972C107.056 133.018 107.695 133.864 108.55 134.387C109.341 134.87 110.311 135.06 111.274 134.86C113.292 134.427 114.588 132.449 114.156 130.432C113.698 128.257 109.647 109.51 105.882 102.825C103.539 103.62 101.193 104.448 98.8389 105.289C98.931 105.626 99.0514 105.945 99.2462 106.257C101.63 110.098 105.174 124.083 106.854 132L106.836 131.972Z" fill="#BF6A26"/>
<path d="M131.907 119.94C132.056 121.101 132.737 122.079 133.669 122.648C134.37 123.077 135.225 123.284 136.109 123.157C138.153 122.881 139.595 121.009 139.34 118.96C139.107 117.134 137.024 101.904 133.564 94.7217C131.189 95.2519 128.694 95.8658 126.11 96.5662C126.198 96.7952 126.294 97.0115 126.43 97.2178C128.748 100.966 131.03 113.145 131.927 119.935L131.907 119.94Z" fill="#BF6A26"/>
<path d="M228.914 136.061C229.494 133.505 227.887 130.945 225.333 130.365L205.468 125.852L227.357 121.204C229.934 120.658 231.566 118.131 231.034 115.561C230.489 112.984 227.963 111.353 225.394 111.886L207.087 115.777L220.886 106.045C223.035 104.536 223.545 101.551 222.029 99.4145C220.521 97.2655 217.538 96.757 215.401 98.2743L183.967 120.461C182.295 121.648 181.628 123.713 182.133 125.582C181.65 128.093 183.225 130.563 185.734 131.132L223.243 139.661C225.798 140.241 228.358 138.632 228.939 136.076L228.914 136.061Z" fill="#6B7C33"/>
</svg>
