<svg width="136" height="136" viewBox="0 0 136 136" fill="none" xmlns="http://www.w3.org/2000/svg">
<mask id="mask0_686_66932" style="mask-type:alpha" maskUnits="userSpaceOnUse" x="0" y="0" width="136" height="136">
<circle cx="68" cy="68" r="68" fill="#F4F4F4"/>
</mask>
<g mask="url(#mask0_686_66932)">
<path d="M18 136C18 136 21.974 94.8721 28.4634 82.3023C34.9528 69.7326 42.5702 64.0649 42.5702 64.0649C42.5702 64.0649 42.0904 42.2084 48.6965 33.0703C55.3026 23.9322 61.9994 29.9359 61.9994 29.9359C61.9994 29.9359 66.4013 34.7376 65.6039 41.7172C64.8065 48.6968 63.0561 56.8268 63.0561 56.8268H66.8356C66.8356 56.8268 65.9345 44.955 66.8356 39.5652C67.7367 34.1754 70.7772 28.0165 76.735 28.1264C82.6928 28.2363 86.9456 32.4951 88.4237 42.6672C89.9017 52.8394 88.4237 61.1567 88.4237 61.1567C88.4237 61.1567 100.307 71.2707 104.313 79.4265C113.571 98.2714 111.879 136 111.879 136H18Z" fill="#FBC3A9"/>
<path d="M50.2568 88.9554C50.4778 88.0871 50.0942 87.2408 49.4 87.0654C48.7059 86.8899 47.9642 87.4516 47.7433 88.32C47.5223 89.1884 47.9059 90.0346 48.6001 90.2101C49.2942 90.3855 50.0359 89.8238 50.2568 88.9554Z" fill="#383838"/>
<path d="M83.1996 88.7054C83.2358 87.8103 82.6852 87.0613 81.9697 87.0325C81.2542 87.0038 80.6448 87.7061 80.6086 88.6012C80.5723 89.4964 81.123 90.2454 81.8385 90.2741C82.554 90.3029 83.1634 89.6006 83.1996 88.7054Z" fill="#383838"/>
<path d="M65.4289 91.4404L63.1923 89.0945C62.8228 88.7068 62.8357 88.0928 63.2312 87.7244C63.6202 87.3561 64.2361 87.369 64.6056 87.7632L65.5521 88.7585L67.1404 87.3625C67.5423 87.0071 68.1582 87.0459 68.5148 87.453C68.8713 87.8537 68.8324 88.4676 68.424 88.8231L65.4289 91.4469V91.4404Z" fill="#383838"/>
<path d="M66.1354 94.1611C66.09 94.1676 66.0511 94.1741 66.0058 94.1805C65.4677 94.2193 65.0074 93.8122 64.9685 93.2758L64.774 90.4451C64.7351 89.9087 65.15 89.4499 65.6816 89.4111C66.2197 89.3723 66.68 89.7795 66.7189 90.3159L66.9134 93.1465C66.9458 93.6377 66.6087 94.0642 66.1419 94.1611H66.1354Z" fill="#383838"/>
</g>
</svg>
