<svg width="136" height="136" viewBox="0 0 136 136" fill="none" xmlns="http://www.w3.org/2000/svg">
<mask id="mask0_693_63016" style="mask-type:alpha" maskUnits="userSpaceOnUse" x="0" y="0" width="136" height="136">
<circle cx="68" cy="68" r="68" fill="#F4F4F4"/>
</mask>
<g mask="url(#mask0_693_63016)">
<path d="M16 142C16 142 17.0833 96.2591 21.9507 81.716C26.8181 67.1728 37.0793 53.7806 37.0793 53.7806C37.0793 53.7806 36.7131 41.6689 37.0793 39.4585C37.4455 37.248 37.209 31.9353 40.6421 30.5481C44.0752 29.1609 58.2043 46.2194 58.2043 46.2194C58.2043 46.2194 65.1239 44.4586 69.3886 45.4876C69.3886 45.4876 75.7284 31.3789 77.0863 29.5953C78.4443 27.8117 80.138 25.1363 83.2278 26.272C86.3176 27.4077 90.6586 46.0745 90.6586 46.0745C90.6586 46.0745 106.26 53.2928 112.836 73.6898C123.25 105.977 120.733 141.992 120.733 141.992H16V142Z" fill="#EAEAEA"/>
<path d="M51.7179 78.3706C51.7631 77.315 51.1172 76.43 50.2753 76.394C49.4334 76.358 48.7142 77.1846 48.669 78.2403C48.6238 79.296 49.2697 80.1809 50.1116 80.2169C50.9535 80.2529 51.6727 79.4263 51.7179 78.3706Z" fill="#383838"/>
<path d="M84.1716 79.1152C85.0045 78.987 85.5491 78.0365 85.388 76.9922C85.2269 75.9479 84.4212 75.2053 83.5883 75.3335C82.7555 75.4617 82.2109 76.4122 82.372 77.4565C82.533 78.5008 83.3388 79.2434 84.1716 79.1152Z" fill="#383838"/>
<path d="M63.8421 78.7433C64.2007 77.9659 65.4137 77.8287 65.7647 77.8058C66.1156 77.7829 67.7635 77.8515 68.2975 78.911C68.8316 79.9705 68.2594 81.0376 67.0616 81.312C65.8639 81.5864 65.017 81.6626 64.1778 80.969C63.3386 80.2754 63.5446 79.3912 63.8421 78.7433Z" fill="#383838"/>
<path d="M41.4126 84.6582C41.199 84.7039 40.97 84.6887 40.7488 84.5972C40.1232 84.3457 38.277 83.713 37.186 83.7969C36.5528 83.8502 36.0035 83.3777 35.9501 82.7526C35.8967 82.1276 36.3773 81.5712 36.9953 81.5178C38.8186 81.373 41.321 82.3639 41.6033 82.4782C42.1907 82.7145 42.473 83.3853 42.2365 83.9646C42.0915 84.3304 41.7711 84.582 41.4049 84.6506L41.4126 84.6582Z" fill="#383838"/>
<path d="M41.2677 89.3305C41.1533 89.3534 41.0312 89.361 40.9091 89.3458C40.8786 89.3458 37.9643 89.018 35.9197 89.2848C35.2941 89.3686 34.7143 88.9265 34.638 88.3015C34.5541 87.6765 35.0042 87.0972 35.6222 87.021C37.949 86.7161 41.0389 87.0591 41.1686 87.0743C41.7941 87.1429 42.2443 87.7146 42.1756 88.3396C42.1222 88.8427 41.7407 89.2314 41.2753 89.3305H41.2677Z" fill="#383838"/>
<path d="M97.6774 82.8746L94.3969 83.5605C93.7789 83.6901 93.1686 83.2938 93.0465 82.6764C92.9245 82.059 93.3135 81.4492 93.9315 81.3272L97.212 80.6412C97.83 80.5117 98.4403 80.908 98.5624 81.5254C98.6844 82.1428 98.2954 82.7526 97.6774 82.8746Z" fill="#383838"/>
<path d="M99.2489 88.736C99.1497 88.7589 99.0428 88.7665 98.9284 88.7589L94.5569 88.4387C93.9237 88.393 93.4507 87.8442 93.4965 87.2116C93.5422 86.5789 94.0915 86.114 94.7247 86.1521L99.0963 86.4722C99.7295 86.518 100.202 87.0668 100.157 87.6994C100.119 88.2177 99.7371 88.6369 99.2489 88.736Z" fill="#383838"/>
</g>
</svg>
