<svg width="366" height="296" viewBox="0 0 366 296" fill="none" xmlns="http://www.w3.org/2000/svg">
<rect width="366" height="296" rx="8" fill="white"/>
<path d="M31.74 35.52L30.44 37.34C28.86 36.54 26.68 34.28 26.14 32.56C25.72 34.36 23.92 36.74 21.84 37.76L20.44 36.02C23.44 34.42 24.9 31.66 24.9 27.92V27.44H21.34V25.58H30.8V27.44H27.36V27.9C27.36 31.66 29.06 34.14 31.74 35.52ZM35.34 41.58H33V23.76H35.34V41.58ZM47.6247 32.84C45.3447 33.4 42.0247 33.6 39.8447 33.6H38.0647V24.98H40.4047V31.64C42.8647 31.64 45.1847 31.44 47.3447 30.98C47.4447 31.6 47.5447 32.24 47.6247 32.84ZM51.3247 23.76V28.68H53.8847V30.62H51.3247V36.66H48.9647V23.76H51.3247ZM51.7647 41.06H39.7847V35.36H42.1047V39.18H51.7647V41.06ZM73.7433 38.08C73.7433 40.18 71.4233 41.46 67.4033 41.46C63.4033 41.46 61.0833 40.18 61.0833 38.08C61.0833 35.96 63.4033 34.68 67.4033 34.68C71.4233 34.68 73.7433 35.96 73.7433 38.08ZM68.9633 31.74L69.1633 33.54C66.9233 33.92 62.7833 34.18 59.0833 34.18L58.7633 32.24C59.4233 32.24 60.1433 32.24 60.9033 32.22L60.5033 27.82L62.8033 27.56L63.0033 32.18L64.7833 32.12L65.0033 27.58L67.2433 27.8L66.8233 32C67.6033 31.94 68.3233 31.86 68.9633 31.74ZM73.7033 34.64H71.3633V31.5H69.1433V29.74H71.3633V28.06H69.1433V26.3H71.3633V23.76H73.7033V34.64ZM71.2833 38.08C71.2833 37.12 69.8433 36.54 67.4033 36.54C65.0033 36.54 63.5233 37.12 63.5233 38.08C63.5233 39.02 65.0033 39.6 67.4033 39.6C69.8433 39.6 71.2833 39.02 71.2833 38.08ZM68.4633 26.84H59.2833V24.98H68.4633V26.84ZM89.808 24.56C89.808 27.36 89.688 29.48 89.248 31.22H91.868V33.08H87.868V37.3H85.548V33.08H83.228V37.3H80.908V33.08H75.768V31.22H86.988C87.328 29.86 87.488 28.22 87.468 26.4H77.848V24.56H89.808ZM90.048 41.1H77.808V35.54H80.128V39.26H90.048V41.1ZM102.727 39.42C99.4066 39.42 97.6866 37.1 97.6866 33.34V32.36C97.6866 27.24 100.307 25.34 103.567 25.34C104.947 25.34 106.187 25.76 106.767 26.1L106.287 27.9C105.767 27.62 104.607 27.3 103.707 27.3C101.667 27.3 100.327 28.3 100.127 31.82C100.827 31.22 101.907 30.62 103.327 30.62C105.687 30.62 107.407 32.1 107.407 34.72C107.407 37.34 105.767 39.42 102.727 39.42ZM102.667 37.6C104.127 37.6 105.027 36.62 105.027 34.9C105.027 33.06 104.007 32.38 102.607 32.38C101.607 32.38 100.627 33.08 100.147 33.72V33.84C100.147 36.16 100.867 37.6 102.667 37.6ZM123.55 41.58H121.33V32.6H119.75V40.76H117.57V24.08H119.75V30.74H121.33V23.76H123.55V41.58ZM115.95 25.86C115.97 31.18 113.85 35.24 109.49 38.1L107.97 36.48C111.45 34.4 113.39 31.28 113.69 27.74H109.05V25.86H115.95ZM140.794 41.64H128.034V37.62H137.854V36.82H128.014V35.14H140.194V39.14H130.374V39.96H140.794V41.64ZM126.414 26.96C126.414 25.2 128.394 24.02 130.854 24.02C133.274 24.02 135.214 25.2 135.214 27C135.214 28.74 133.274 29.92 130.854 29.92C128.394 29.92 126.414 28.74 126.414 26.96ZM134.314 34.02V32.48H137.894V23.76H140.214V34.48H137.894V34.02H134.314ZM131.734 34.5H129.394V32.34C127.854 32.4 126.614 32.46 125.394 32.46L125.074 30.6C127.094 30.6 128.874 30.58 130.854 30.5C133.334 30.38 135.054 30.24 136.634 30.04L136.814 31.78C135.414 31.98 133.514 32.14 131.734 32.24V34.5ZM128.774 26.98C128.774 27.74 129.594 28.24 130.854 28.24C132.074 28.24 132.934 27.74 132.934 26.98C132.934 26.22 132.074 25.7 130.854 25.7C129.594 25.7 128.774 26.22 128.774 26.98ZM163.213 30.76H160.673V36.66H158.313V23.76H160.673V28.84H163.213V30.76ZM155.693 25.12C155.673 30.26 151.993 33.56 147.653 34.66L146.493 32.8C149.473 32.28 152.593 30.18 153.173 27.06H147.393V25.12H155.693ZM161.113 41.06H149.213V35.32H151.573V39.2H161.113V41.06ZM177.411 25.56C177.411 31.56 174.811 35.84 169.491 38.6L168.051 36.94C170.531 35.8 172.571 33.96 173.791 31.62L168.851 32.16C168.751 31.48 168.651 30.82 168.531 30.14L174.571 29.7C174.751 29 174.891 28.26 174.951 27.5H169.411V25.56H177.411ZM182.211 23.76V30.6H184.711V32.54H182.211V41.58H179.891V23.76H182.211ZM194.776 25.56C194.776 31.56 191.916 36 186.596 38.76L185.256 37C187.756 35.88 189.896 34 191.156 31.62L185.876 32.16C185.756 31.48 185.656 30.8 185.556 30.14L191.936 29.7C192.156 29 192.256 28.26 192.316 27.5H186.416V25.56H194.776ZM199.856 41.58H197.496V23.76H199.856V41.58ZM212.901 37.62C211.201 37.88 208.581 38.06 206.501 38.16C204.701 38.24 203.341 38.28 201.961 38.28L201.661 36.36C203.181 36.36 204.541 36.36 205.961 36.32V33.36C203.881 32.96 202.421 31.46 202.421 29.32C202.421 26.86 204.441 25.02 207.101 25.02C209.741 25.02 211.801 26.82 211.801 29.32C211.801 31.44 210.321 32.92 208.301 33.34V36.2C210.041 36.1 211.401 36 212.661 35.82L212.901 37.62ZM216.001 23.76V30.9H218.301V32.82H216.001V41.58H213.681V23.76H216.001ZM204.701 29.3C204.701 30.72 205.841 31.5 207.101 31.5C208.341 31.5 209.461 30.72 209.461 29.3C209.461 27.82 208.361 26.96 207.101 26.96C205.801 26.96 204.701 27.88 204.701 29.3ZM239.839 30.72H237.399V34.68H235.059V23.76H237.399V28.84H239.839V30.72ZM237.399 41.36H225.839V35.56H237.399V41.36ZM235.039 39.54V37.36H228.179V39.54H235.039ZM233.739 28.48H223.319V26.66H233.739V28.48ZM225.979 25.88V24.06H231.259V25.88H225.979ZM232.839 31.94C232.839 33.76 231.019 34.98 228.599 34.98C226.159 34.98 224.319 33.76 224.319 31.94C224.319 30.1 226.139 28.86 228.599 28.86C231.019 28.86 232.839 30.1 232.839 31.94ZM226.679 31.94C226.679 32.68 227.559 33.22 228.599 33.22C229.639 33.22 230.539 32.68 230.539 31.94C230.539 31.16 229.639 30.66 228.599 30.66C227.539 30.66 226.679 31.16 226.679 31.94ZM248.744 25.82C248.744 27.62 248.684 29.16 248.524 30.56H249.844V24.08H252.044V40.76H249.844V32.44H248.204C247.704 34.58 246.864 36.44 245.464 38.46L243.624 37.3C245.704 34.72 246.624 31.64 246.604 27.76H245.264V25.82H248.744ZM255.564 41.58H253.324V23.76H255.564V41.58ZM244.704 25.82C244.724 31.3 243.744 34.34 241.584 37.12L239.784 35.94C241.724 33.7 242.564 31.04 242.564 27.76H240.784V25.82H244.704ZM272.023 28.78H261.683V26.96H272.023V28.78ZM271.163 32.56C271.163 34.46 269.363 35.8 266.963 35.8C264.523 35.8 262.723 34.46 262.723 32.56C262.723 30.68 264.503 29.28 266.963 29.28C269.363 29.28 271.163 30.68 271.163 32.56ZM264.323 26.12V24.34H269.623V26.12H264.323ZM275.763 23.76V29.52H278.243V31.46H275.763V37H273.423V23.76H275.763ZM276.183 41.16H264.003V36.46H266.363V39.3H276.183V41.16ZM265.043 32.56C265.043 33.36 265.923 33.92 266.963 33.92C267.983 33.92 268.883 33.36 268.883 32.56C268.883 31.72 267.983 31.14 266.963 31.14C265.923 31.14 265.043 31.72 265.043 32.56ZM298.121 41.58H295.781V23.76H298.121V41.58ZM294.441 35.78L293.081 37.54C291.621 36.64 289.761 34.48 289.161 32.62C288.581 34.66 286.741 36.92 284.901 37.92L283.481 36.2C286.361 34.34 287.901 31.52 287.901 27.98V25.26H290.321V27.86C290.321 31.38 291.741 34.04 294.441 35.78ZM316.666 30.76H314.126V36.66H311.766V23.76H314.126V28.84H316.666V30.76ZM309.146 25.12C309.126 30.26 305.446 33.56 301.106 34.66L299.946 32.8C302.926 32.28 306.046 30.18 306.626 27.06H300.846V25.12H309.146ZM314.566 41.06H302.666V35.32H305.026V39.2H314.566V41.06ZM331.711 41.58H329.391V23.76H331.711V41.58ZM317.491 31.36C317.491 27.6 319.191 24.98 322.091 24.98C325.011 24.98 326.711 27.6 326.711 31.36C326.711 35.08 325.011 37.7 322.091 37.7C319.191 37.7 317.491 35.1 317.491 31.36ZM324.471 31.36C324.471 28.54 323.471 26.86 322.091 26.86C320.751 26.86 319.771 28.54 319.771 31.36C319.771 34.16 320.751 35.82 322.091 35.82C323.471 35.82 324.471 34.16 324.471 31.36ZM35.34 69.36H23.5V62.78H35.34V69.36ZM21.22 54.82V52.9H30.62V54.82H27.2C27.36 57.36 29.2 59.06 31.16 59.7L29.88 61.54C28.54 61.02 26.78 59.68 26.02 58.04C25.48 59.78 23.6 61.44 21.88 62.06L20.5 60.22C22.98 59.32 24.68 57.42 24.8 54.82H21.22ZM35.34 61.92H33V57.94H30.36V56.06H33V51.76H35.34V61.92ZM33 67.54V64.58H25.82V67.54H33ZM38.2047 55.04V53.2H47.6047V55.04H44.1847C44.2247 57.76 46.0847 59.74 48.1247 60.38L46.8447 62.22C45.5047 61.72 43.8047 60.28 43.0047 58.58C42.4647 60.36 40.6247 62.16 38.9047 62.76L37.5047 60.9C40.0847 59.96 41.7847 57.78 41.7847 55.04H38.2047ZM52.5247 69.1H40.2447V63.46H42.5847V67.26H52.5247V69.1ZM52.1247 64.68H49.8047V51.76H52.1247V64.68ZM54.8294 54.8V52.88H64.2294V54.8H60.8094C60.9094 57.46 62.7694 59.2 64.7694 59.86L63.4894 61.68C62.1494 61.2 60.3894 59.82 59.6294 58.18C59.0894 59.92 57.2094 61.58 55.4894 62.18L54.1094 60.34C56.6494 59.44 58.3494 57.48 58.4094 54.8H54.8294ZM56.8894 63.12H68.9694V69.6H66.6094V64.96H56.8894V63.12ZM68.9494 62.2H66.6094V57.98H63.9694V56.1H66.6094V51.76H68.9494V62.2ZM87.1141 67.24H71.0141V65.4H87.1141V67.24ZM85.6141 57.64C85.6141 60.36 83.0341 62.26 79.0741 62.26C75.1341 62.26 72.5341 60.36 72.5341 57.64C72.5341 54.92 75.1341 53.02 79.0741 53.02C83.0341 53.02 85.6141 54.92 85.6141 57.64ZM83.2141 57.66C83.2141 56.02 81.5941 54.92 79.0741 54.92C76.5741 54.92 74.9541 56.02 74.9541 57.66C74.9541 59.3 76.5741 60.4 79.0741 60.4C81.5741 60.4 83.2141 59.3 83.2141 57.66ZM102.399 62.72H96.9988V65.5H103.919V67.36H87.8188V65.5H94.6588V62.72H89.8788V56.82H99.5588V54.76H89.7788V52.9H101.879V58.68H92.1988V60.84H102.399V62.72ZM123.497 57.48H111.537V51.96H113.897V55.64H123.497V57.48ZM125.477 60.64H109.377V58.76H125.477V60.64ZM123.997 69.5H111.437V64.84H121.017V63.74H111.317V61.88H123.337V66.5H113.757V67.6H123.997V69.5ZM142.282 67.08H126.182V65.22H131.962V59.22H134.302V65.22H142.282V67.08ZM140.442 53.32C140.522 57.8 140.302 61.06 139.682 63.42L137.442 63.14C138.002 61.08 138.142 57.66 138.082 55.2H127.902V53.32H140.442ZM157.761 57.02C157.761 59.52 155.681 61.18 153.021 61.18C150.421 61.18 148.301 59.52 148.301 57.02C148.301 54.56 150.381 52.72 153.021 52.72C155.661 52.72 157.761 54.52 157.761 57.02ZM162.661 69.62C161.541 69.14 160.081 67.66 159.681 66.52C159.361 67.68 158.181 69.26 156.701 69.96C156.181 69.42 155.701 68.88 155.181 68.36C157.301 67.38 158.501 65.52 158.501 63.28V62.5H160.801V63.28C160.801 65.48 162.221 67.26 164.041 67.9L162.661 69.62ZM160.121 51.76H162.461V61.68H160.121V51.76ZM155.001 67.82C154.421 67.54 153.621 66.8 153.341 66.16C152.901 67.5 151.401 69.14 149.981 69.7L148.601 68C150.661 67.1 152.041 65.4 152.041 63.12V62.56H154.321V63.06C154.321 64.66 155.281 65.8 156.441 66.24L155.001 67.82ZM155.501 57C155.501 55.7 154.581 54.66 153.021 54.66C151.541 54.66 150.561 55.74 150.561 57C150.561 58.36 151.581 59.38 153.021 59.38C154.461 59.38 155.501 58.32 155.501 57ZM164.665 59.36C164.665 55.6 166.365 52.98 169.265 52.98C171.905 52.98 173.525 55.12 173.805 58.3H176.945V51.76H179.285V69.58H176.945V60.28H173.825C173.565 63.5 171.925 65.7 169.265 65.7C166.365 65.7 164.665 63.1 164.665 59.36ZM171.625 59.36C171.625 56.54 170.645 54.86 169.265 54.86C167.925 54.86 166.945 56.54 166.945 59.36C166.945 62.16 167.925 63.82 169.265 63.82C170.645 63.82 171.625 62.16 171.625 59.36ZM195.91 57.54C195.91 60.26 193.33 62.22 189.41 62.22C185.51 62.22 182.93 60.26 182.93 57.54C182.93 54.8 185.51 52.8 189.41 52.8C193.33 52.8 195.91 54.8 195.91 57.54ZM197.45 67.36H181.35V65.48H184.95V62.52L187.29 62.62V65.48H191.47V62.62L193.81 62.52V65.48H197.45V67.36ZM193.51 57.54C193.51 55.92 191.89 54.76 189.41 54.76C186.93 54.76 185.33 55.92 185.33 57.54C185.33 59.14 186.93 60.3 189.41 60.3C191.87 60.3 193.51 59.14 193.51 57.54ZM198.855 67.5V65.16H201.295V67.5H198.855Z" fill="#434343"/>
<rect x="20" y="228" width="327" height="32" rx="8.91" fill="#F5F5F5"/>
<mask id="mask0_1056_72668" style="mask-type:alpha" maskUnits="userSpaceOnUse" x="20" y="228" width="327" height="32">
<rect x="20" y="228" width="327" height="32" rx="8.91" fill="white"/>
</mask>
<g mask="url(#mask0_1056_72668)">
</g>
<rect x="20" y="228" width="216" height="32" rx="8.91" fill="#C5C5C5"/>
<mask id="mask1_1056_72668" style="mask-type:alpha" maskUnits="userSpaceOnUse" x="20" y="228" width="216" height="32">
<rect x="20" y="228" width="216" height="32" fill="white"/>
</mask>
<g mask="url(#mask1_1056_72668)">
</g>
<path d="M24.664 217.688V215.384L28.856 210.968C31.896 207.768 34.328 205.048 34.328 202.296C34.328 199.64 32.888 198.616 30.104 198.616C28.568 198.616 26.776 199.352 25.56 200.088L24.92 197.176C26.392 196.312 28.632 195.512 31.16 195.512C35.96 195.512 38.424 197.816 38.424 201.784C38.424 205.688 35.096 209.176 32.408 211.96L29.816 214.616H38.616V217.688H24.664Z" fill="#434343"/>
<path d="M51.453 220.12H50.221V206.136H51.453V220.12ZM48.445 215.832L47.677 216.76C46.413 215.896 44.765 214.168 44.221 212.488C43.709 214.232 42.269 215.944 40.653 217.096L39.853 216.184C41.901 214.904 43.581 212.36 43.581 209.88V207.352H44.813V209.832C44.813 212.392 46.509 214.68 48.445 215.832ZM66.2568 211.544H64.1287V216.6H62.9127V206.136H64.1287V210.52H66.2568V211.544ZM64.5608 219.768H55.3287V215.448H56.5447V218.76H64.5608V219.768ZM53.8567 207.368H60.2247C60.0647 211.176 57.4727 213.848 53.9047 214.984L53.2807 213.96C56.2887 213.192 58.5447 210.968 58.8967 208.392H53.8567V207.368ZM66.3565 219.96L70.1165 206.648H71.2205L67.4605 219.96H66.3565ZM83.2508 213.208H82.0348V206.136H83.2508V213.208ZM83.7628 219.928H74.1948V216.392H82.0348V214.936H74.1468V213.944H83.2508V217.336H75.4108V218.936H83.7628V219.928ZM75.8428 206.568C77.8428 206.568 79.4588 207.832 79.4588 209.736C79.4588 211.624 77.8428 212.856 75.8428 212.856C73.8428 212.856 72.1948 211.64 72.1948 209.736C72.1948 207.848 73.8268 206.568 75.8428 206.568ZM75.8428 207.624C74.4668 207.624 73.3788 208.472 73.3788 209.72C73.3788 210.968 74.4508 211.8 75.8428 211.8C77.2988 211.8 78.2748 210.968 78.2748 209.736C78.2748 208.488 77.2988 207.624 75.8428 207.624Z" fill="#434343" fill-opacity="0.5"/>
<path d="M251.449 210.056V209.048H259.385V210.056H255.993V210.104C255.993 211.656 257.849 213.032 259.689 213.368L259.177 214.344C257.689 213.992 255.929 212.872 255.369 211.656C255.001 212.84 253.305 214.216 251.609 214.744L251.033 213.768C253.033 213.256 254.745 211.736 254.745 210.088V210.056H251.449ZM262.313 220.12H261.097V206.136H262.313V220.12ZM260.297 217.096C259.193 217.208 257.049 217.352 255.337 217.448C253.785 217.544 252.217 217.592 251.033 217.592L250.825 216.52C251.897 216.536 253.305 216.52 254.793 216.456V213.688H256.009V216.392C257.577 216.328 259.305 216.216 260.201 216.088L260.297 217.096ZM253.401 207.72V206.632H257.289V207.72H253.401ZM272.733 216.12L271.981 217.08C270.653 216.216 268.941 214.44 268.397 212.776C267.933 214.472 266.477 216.2 264.813 217.352L263.997 216.44C266.061 215.224 267.757 212.792 267.757 210.264V208.632H264.477V207.608H272.237V208.632H269.021V210.232C269.021 212.84 270.797 215.064 272.733 216.12ZM274.413 212.216H271.485V211.176H274.413V206.136H275.629V220.12H274.413V212.216ZM292.908 217.528C292.908 219.112 291.196 220.12 288.14 220.12C285.1 220.12 283.388 219.112 283.388 217.528C283.388 215.912 285.1 214.904 288.14 214.904C291.196 214.904 292.908 215.912 292.908 217.528ZM289.452 212.616L289.564 213.592C288.62 213.72 287.388 213.816 285.98 213.912C284.796 214.008 282.876 214.056 281.532 214.072L281.372 212.984C281.98 212.984 282.684 212.984 283.324 212.968L282.908 209.08L284.108 208.92L284.428 212.968C285.036 212.952 285.756 212.92 286.396 212.872L286.716 208.904L287.916 209.048L287.484 212.84C287.996 212.824 288.908 212.712 289.452 212.616ZM292.876 214.872H291.66V212.136H289.292V211.16H291.66V209.592H289.292V208.616H291.66V206.136H292.876V214.872ZM291.66 217.528C291.66 216.536 290.364 215.944 288.14 215.944C285.964 215.944 284.652 216.536 284.652 217.528C284.652 218.52 285.964 219.096 288.14 219.096C290.364 219.096 291.66 218.52 291.66 217.528ZM289.164 208.248H281.74V207.256H289.164V208.248ZM305.823 206.968C305.823 208.872 305.727 210.584 305.423 212.056H307.519V213.064H304.015V216.744H302.799V213.064H300.095V216.616H298.879V213.064H294.895V212.056H304.191C304.463 210.808 304.607 209.192 304.575 207.976H296.575V206.968H305.823ZM306.063 219.656H296.559V215.496H297.775V218.648H306.063V219.656ZM321.203 210.264H319.075V213.272H317.859V206.136H319.075V209.24H321.203V210.264ZM319.603 219.976H310.195V216.424H317.859V215H310.147V214.008H319.075V217.352H311.411V218.968H319.603V219.976ZM309.955 211.768H310.643C312.595 211.768 315.091 211.608 316.435 211.336L316.563 212.328C315.011 212.584 312.291 212.776 309.875 212.776H308.739V207.048H315.219V208.072H309.955V211.768ZM328.706 218.488C327.458 218.488 326.386 218.136 325.794 217.72L326.066 216.712C326.674 217.112 327.746 217.416 328.546 217.416C330.322 217.416 331.314 216.632 331.314 215.304C331.314 213.928 330.258 213.272 328.626 213.272H327.586V212.184H328.546C329.938 212.184 330.882 211.48 330.882 210.28C330.882 208.968 330.034 208.504 328.722 208.504C327.842 208.504 327.01 208.888 326.338 209.272L326.146 208.248C326.786 207.816 328.05 207.416 328.978 207.416C330.898 207.416 332.21 208.392 332.21 210.072C332.21 211.4 331.378 212.184 330.162 212.584C331.554 212.856 332.61 213.64 332.61 215.304C332.61 217.176 331.09 218.488 328.706 218.488ZM345.78 220.104H335.812V217.096H344.036V216.024H335.796V215.096H345.252V217.96H337.044V219.144H345.78V220.104ZM341.492 208.776C341.492 210.168 340.036 211.08 338.068 211.08C336.1 211.08 334.66 210.184 334.66 208.76C334.66 207.4 336.1 206.456 338.068 206.456C340.02 206.456 341.492 207.336 341.492 208.776ZM345.252 214.392H344.036V213.88H340.964V212.984H344.036V206.136H345.252V214.392ZM338.628 214.408H337.412V212.728C336.196 212.776 335.044 212.808 333.876 212.824L333.684 211.8C335.316 211.8 336.788 211.752 338.308 211.688C340.036 211.624 341.396 211.544 342.756 211.384L342.868 212.312C341.924 212.408 340.212 212.568 338.628 212.648V214.408ZM340.276 208.776C340.276 207.912 339.396 207.432 338.068 207.432C336.788 207.432 335.876 207.912 335.876 208.776C335.876 209.624 336.788 210.072 338.068 210.072C339.348 210.072 340.276 209.624 340.276 208.776Z" fill="#434343" fill-opacity="0.5"/>
<rect x="20" y="138" width="327" height="32" rx="8.91" fill="#C5D9A0"/>
<mask id="mask2_1056_72668" style="mask-type:alpha" maskUnits="userSpaceOnUse" x="20" y="138" width="327" height="32">
<rect x="20" y="138" width="327" height="32" rx="8.91" fill="white"/>
</mask>
<g mask="url(#mask2_1056_72668)">
</g>
<path d="M32.44 128.072C27.224 128.072 24.28 125.704 24.28 122.152C24.28 119.4 26.392 117.448 28.792 116.488C26.52 115.464 24.92 113.96 24.92 111.24C24.92 107.848 27.832 105.512 32.44 105.512C37.048 105.512 39.864 107.528 39.864 110.952C39.864 113.352 38.136 115.08 35.864 116.168C38.424 117.032 40.728 118.632 40.728 121.704C40.728 125.416 37.656 128.072 32.44 128.072ZM32.344 125.192C35.032 125.192 36.76 123.88 36.76 121.992C36.76 119.72 35.064 118.6 31.8 117.736C29.848 118.408 27.992 119.88 27.992 121.832C27.992 123.944 29.688 125.192 32.344 125.192ZM32.984 114.856C34.68 114.152 36.152 113 36.152 111.24C36.152 109.608 34.968 108.36 32.504 108.36C30.264 108.36 28.856 109.416 28.856 111.144C28.856 113.032 30.264 114.184 32.984 114.856Z" fill="#434343"/>
<path d="M53.328 130.12H52.096V116.136H53.328V130.12ZM50.32 125.832L49.552 126.76C48.288 125.896 46.64 124.168 46.096 122.488C45.584 124.232 44.144 125.944 42.528 127.096L41.728 126.184C43.776 124.904 45.456 122.36 45.456 119.88V117.352H46.688V119.832C46.688 122.392 48.384 124.68 50.32 125.832ZM68.1318 121.544H66.0037V126.6H64.7877V116.136H66.0037V120.52H68.1318V121.544ZM66.4358 129.768H57.2037V125.448H58.4197V128.76H66.4358V129.768ZM55.7317 117.368H62.0997C61.9397 121.176 59.3477 123.848 55.7797 124.984L55.1557 123.96C58.1637 123.192 60.4197 120.968 60.7717 118.392H55.7317V117.368ZM68.2315 129.96L71.9915 116.648H73.0955L69.3355 129.96H68.2315ZM85.1258 123.208H83.9098V116.136H85.1258V123.208ZM85.6378 129.928H76.0698V126.392H83.9098V124.936H76.0218V123.944H85.1258V127.336H77.2858V128.936H85.6378V129.928ZM77.7178 116.568C79.7178 116.568 81.3338 117.832 81.3338 119.736C81.3338 121.624 79.7178 122.856 77.7178 122.856C75.7178 122.856 74.0698 121.64 74.0698 119.736C74.0698 117.848 75.7018 116.568 77.7178 116.568ZM77.7178 117.624C76.3418 117.624 75.2538 118.472 75.2538 119.72C75.2538 120.968 76.3258 121.8 77.7178 121.8C79.1738 121.8 80.1498 120.968 80.1498 119.736C80.1498 118.488 79.1738 117.624 77.7178 117.624Z" fill="#434343" fill-opacity="0.5"/>
<path d="M252.043 120.056V119.048H259.979V120.056H256.587V120.104C256.587 121.656 258.443 123.032 260.283 123.368L259.771 124.344C258.283 123.992 256.523 122.872 255.963 121.656C255.595 122.84 253.899 124.216 252.203 124.744L251.627 123.768C253.627 123.256 255.339 121.736 255.339 120.088V120.056H252.043ZM262.907 130.12H261.691V116.136H262.907V130.12ZM260.891 127.096C259.787 127.208 257.643 127.352 255.931 127.448C254.379 127.544 252.811 127.592 251.627 127.592L251.419 126.52C252.491 126.536 253.899 126.52 255.387 126.456V123.688H256.603V126.392C258.171 126.328 259.899 126.216 260.795 126.088L260.891 127.096ZM253.995 117.72V116.632H257.883V117.72H253.995ZM277.423 128.104H264.799V127.08H269.615V122.024H270.831V127.08H277.423V128.104ZM275.727 117.592V119.352C275.711 121.48 275.583 123.656 275.167 125.432L273.967 125.24C274.287 123.928 274.463 121.816 274.463 119.976V118.616H266.095V117.592H275.727ZM293.501 127.528C293.501 129.112 291.789 130.12 288.733 130.12C285.693 130.12 283.981 129.112 283.981 127.528C283.981 125.912 285.693 124.904 288.733 124.904C291.789 124.904 293.501 125.912 293.501 127.528ZM290.045 122.616L290.157 123.592C289.213 123.72 287.981 123.816 286.573 123.912C285.389 124.008 283.469 124.056 282.125 124.072L281.965 122.984C282.573 122.984 283.277 122.984 283.917 122.968L283.501 119.08L284.701 118.92L285.021 122.968C285.629 122.952 286.349 122.92 286.989 122.872L287.309 118.904L288.509 119.048L288.077 122.84C288.589 122.824 289.501 122.712 290.045 122.616ZM293.469 124.872H292.253V122.136H289.885V121.16H292.253V119.592H289.885V118.616H292.253V116.136H293.469V124.872ZM292.253 127.528C292.253 126.536 290.957 125.944 288.733 125.944C286.557 125.944 285.245 126.536 285.245 127.528C285.245 128.52 286.557 129.096 288.733 129.096C290.957 129.096 292.253 128.52 292.253 127.528ZM289.757 118.248H282.333V117.256H289.757V118.248ZM306.417 116.968C306.417 118.872 306.321 120.584 306.017 122.056H308.113V123.064H304.609V126.744H303.393V123.064H300.689V126.616H299.473V123.064H295.489V122.056H304.785C305.057 120.808 305.201 119.192 305.169 117.976H297.169V116.968H306.417ZM306.657 129.656H297.153V125.496H298.369V128.648H306.657V129.656ZM321.797 120.264H319.669V123.272H318.453V116.136H319.669V119.24H321.797V120.264ZM320.197 129.976H310.789V126.424H318.453V125H310.741V124.008H319.669V127.352H312.005V128.968H320.197V129.976ZM310.549 121.768H311.237C313.189 121.768 315.685 121.608 317.029 121.336L317.157 122.328C315.605 122.584 312.885 122.776 310.469 122.776H309.333V117.048H315.813V118.072H310.549V121.768ZM329.06 128.52C327.812 128.52 326.692 128.168 326.052 127.704L326.292 126.68C326.884 127.08 327.94 127.448 328.82 127.448C330.516 127.448 331.508 126.488 331.508 124.968C331.508 123.336 330.548 122.68 328.868 122.68C328.132 122.68 327.124 122.984 326.628 123.208L327.012 117.576H332.452V118.664H328.036L327.812 121.928C328.244 121.816 328.9 121.704 329.348 121.704C331.508 121.704 332.836 122.728 332.836 124.984C332.836 126.904 331.428 128.52 329.06 128.52ZM345.78 130.104H335.812V127.096H344.036V126.024H335.796V125.096H345.252V127.96H337.044V129.144H345.78V130.104ZM341.492 118.776C341.492 120.168 340.036 121.08 338.068 121.08C336.1 121.08 334.66 120.184 334.66 118.76C334.66 117.4 336.1 116.456 338.068 116.456C340.02 116.456 341.492 117.336 341.492 118.776ZM345.252 124.392H344.036V123.88H340.964V122.984H344.036V116.136H345.252V124.392ZM338.628 124.408H337.412V122.728C336.196 122.776 335.044 122.808 333.876 122.824L333.684 121.8C335.316 121.8 336.788 121.752 338.308 121.688C340.036 121.624 341.396 121.544 342.756 121.384L342.868 122.312C341.924 122.408 340.212 122.568 338.628 122.648V124.408ZM340.276 118.776C340.276 117.912 339.396 117.432 338.068 117.432C336.788 117.432 335.876 117.912 335.876 118.776C335.876 119.624 336.788 120.072 338.068 120.072C339.348 120.072 340.276 119.624 340.276 118.776Z" fill="#434343" fill-opacity="0.5"/>
</svg>
