<svg width="136" height="136" viewBox="0 0 136 136" fill="none" xmlns="http://www.w3.org/2000/svg">
<mask id="mask0_686_66931" style="mask-type:alpha" maskUnits="userSpaceOnUse" x="0" y="0" width="136" height="136">
<circle cx="68" cy="68" r="68" fill="#F4F4F4"/>
</mask>
<g mask="url(#mask0_686_66931)">
<path d="M13.0077 142C13.0077 142 17.9547 76.0645 26.3615 61.0974C34.7683 46.1303 50.3491 40.4569 55.8509 38.4963C61.3527 36.5356 66.4538 28.9479 69.3896 30.2678C72.3254 31.5878 69.3896 36.7286 69.3896 36.7286C69.3896 36.7286 74.6448 28.9788 76.7947 30.1135C78.9446 31.2482 79.1372 34.3821 76.7947 37.7089C76.7947 37.7089 89.6553 40.1018 98.301 50.2445C109.559 63.444 119.538 113.262 120 141.992H13L13.0077 142Z" fill="#C5D9A0"/>
<path d="M85.5452 77.4697C86.3848 77.3294 86.9229 76.3601 86.7471 75.3047C86.5714 74.2492 85.7483 73.5073 84.9088 73.6476C84.0693 73.7879 83.5311 74.7572 83.7069 75.8127C83.8826 76.8681 84.7057 77.61 85.5452 77.4697Z" fill="#383838"/>
<path d="M47.0276 77.5056C47.8766 77.4446 48.5029 76.53 48.4265 75.4627C48.3501 74.3954 47.6 73.5796 46.751 73.6406C45.9021 73.7016 45.2758 74.6162 45.3522 75.6835C45.4285 76.7508 46.1787 77.5666 47.0276 77.5056Z" fill="#383838"/>
<path d="M66.2841 84.0459C61.707 84.0459 56.891 82.6488 56.76 78.689C56.7446 78.3262 56.8448 77.7781 57.3765 77.2069C58.8945 75.5937 63.4716 74.4976 66.8389 74.4127C71.208 74.2969 75.9855 75.7866 76.417 78.4651C76.494 78.9283 76.4401 79.6461 75.7543 80.4643C74.1978 82.3246 69.9212 83.9996 66.6155 84.0459C66.5076 84.0459 66.3997 84.0459 66.2918 84.0459H66.2841ZM59.0794 78.7662C59.3414 81.1822 63.8954 81.7688 66.5769 81.7302C70.0522 81.6839 73.774 79.623 74.1207 78.7816C73.8741 78.0792 70.9846 76.6126 66.9006 76.7283C63.1325 76.8287 59.7112 78.0714 59.0794 78.7662Z" fill="#383838"/>
</g>
</svg>
