<svg width="136" height="136" viewBox="0 0 136 136" fill="none" xmlns="http://www.w3.org/2000/svg">
<mask id="mask0_693_63017" style="mask-type:alpha" maskUnits="userSpaceOnUse" x="0" y="0" width="136" height="136">
<circle cx="68" cy="68" r="68" fill="#F4F4F4"/>
<circle cx="68" cy="68" r="68" fill="#F4F4F4"/>
</mask>
<g mask="url(#mask0_693_63017)">
<path d="M11.1071 56.7142C11.1071 50.1253 19.4145 42.5069 24.8799 40.3861C30.3453 38.2653 41.2146 38.6291 48.3537 48.5536C48.3537 48.5536 56.3742 45.2935 63.5885 45.0738C70.8028 44.8542 80.6951 50.8872 80.6951 50.8872C80.6951 50.8872 83.6738 40.8803 89.0367 37.2838C94.0853 33.8933 100.582 34.7787 104.23 36.7142C107.879 38.6497 112.319 41.4637 114.84 41.5598C118.905 41.7039 122.922 48.3614 117.026 54.4013C111.13 60.4411 101.949 54.4013 97.9111 54.6209C93.8735 54.8405 92.0836 57.4761 92.0836 57.4761C92.0836 57.4761 101.183 65.3347 104.169 75.6367C107.154 85.9388 113.385 129 113.385 129H20.2821C20.2821 129 21.4299 95.2387 25.5904 81.9923C29.7509 68.7459 37.2317 56.6182 37.2317 56.6182C37.2317 56.6182 32.5383 55.7602 30.6186 58.183C28.6988 60.6058 29.3547 65.8083 26.1438 68.3478C22.9329 70.8872 16.3949 71.5599 13.792 68.4439C10.178 64.1199 11.1071 56.7142 11.1071 56.7142Z" fill="#EAEAEA"/>
<path d="M48.32 76.6986C48.5574 75.7775 48.1577 74.8768 47.4272 74.6867C46.6967 74.4967 45.912 75.0892 45.6746 76.0103C45.4371 76.9313 45.8368 77.8321 46.5673 78.0221C47.2978 78.2122 48.0825 77.6196 48.32 76.6986Z" fill="#383838"/>
<path d="M82.5116 78.7578C83.2643 78.7036 83.8196 77.8903 83.7519 76.9413C83.6842 75.9923 83.0191 75.267 82.2664 75.3212C81.5137 75.3754 80.9585 76.1886 81.0262 77.1376C81.0939 78.0866 81.7589 78.812 82.5116 78.7578Z" fill="#383838"/>
<path d="M60.7602 78.1969C60.5006 77.1536 61.8533 76.1447 62.5638 75.9113C63.2743 75.678 65.6859 75.9251 66.8268 76.8722C67.9677 77.8194 66.9839 79.6107 66.1777 79.8578C65.3716 80.1049 62.9737 79.9608 62.1129 79.597C61.2521 79.2332 60.9788 79.1097 60.7534 78.2037L60.7602 78.1969Z" fill="#383838"/>
<path d="M69.2999 83.4542C68.6167 83.5984 67.8515 83.214 67.4211 83.0013C67.3187 82.9463 67.223 82.8983 67.141 82.864C66.6696 82.6649 64.8319 81.5531 63.6705 80.8324C62.6526 81.7933 61.013 82.6169 60.0975 82.761C58.6629 82.9807 57.7952 82.0953 57.6996 81.9992C57.3102 81.5874 57.3375 80.9354 57.7474 80.5441C58.1505 80.1598 58.7858 80.1735 59.1752 80.5716C59.2094 80.6059 59.428 80.7844 59.7833 80.7294C60.5006 80.6265 62.2222 79.597 62.5638 78.9861L63.0898 78.0596L63.9916 78.6224C65.6722 79.6656 67.6056 80.8324 67.9267 80.9697C68.0428 81.0177 68.1726 81.0864 68.3229 81.1618C68.4527 81.2236 68.6577 81.3334 68.8148 81.3883C69.1496 81.2305 69.5595 81.2648 69.8669 81.505C70.3178 81.8482 70.4066 82.4934 70.0582 82.9463C69.8327 83.2415 69.5663 83.3925 69.2794 83.4542H69.2999Z" fill="#383838"/>
<rect x="27" y="113" width="81" height="46" fill="#EAEAEA"/>
</g>
</svg>
