<svg width="30" height="30" viewBox="0 0 30 30" fill="none" xmlns="http://www.w3.org/2000/svg">
<circle cx="15" cy="15" r="15" fill="#707070"/>
<path d="M7.16472 8.28571V6H8.72994V8.28571H11.0778V9.80952H8.72994V12.0952H7.16472V9.80952H4.81689V8.28571M9.51255 12.8571V10.5714H11.8604V8.28571H17.3386L18.7473 9.80952H21.2517C22.1125 9.80952 22.8169 10.4952 22.8169 11.3333V20.4762C22.8169 21.3143 22.1125 22 21.2517 22H8.72994C7.86907 22 7.16472 21.3143 7.16472 20.4762V12.8571M14.9908 19.7143C18.4734 19.7143 20.2265 15.6152 17.7612 13.2076C15.296 10.8076 11.0778 12.5143 11.0778 15.9048C11.0778 18.0076 12.8308 19.7143 14.9908 19.7143ZM12.4865 15.9048C12.4865 18.0762 15.1865 19.1657 16.7595 17.6267C18.3404 16.0952 17.2212 13.4667 14.9908 13.4667C13.6134 13.4667 12.4865 14.5638 12.4865 15.9048Z" fill="white"/>
</svg>
