<svg width="392" height="846" viewBox="0 0 392 846" fill="none" xmlns="http://www.w3.org/2000/svg">
<g clip-path="url(#clip0_956_69434)">
<rect x="1" y="1" width="390" height="844" fill="white"/>
<path d="M389.945 669.974C389.945 669.974 295.776 602.712 274.406 569.319C253.036 535.926 249.992 509.453 249.992 509.453C249.992 509.453 196.307 480.015 183.424 451.143C170.541 422.272 194.511 414.383 194.511 414.383C194.511 414.383 212.342 410.395 228.15 422.109C243.958 433.823 261.217 449.467 261.217 449.467L266.527 440.27C266.527 440.27 236.467 425.839 224.661 416.098C212.854 406.358 202.188 390.335 210.825 375.991C219.462 361.647 235.766 357.262 262.514 367.91C289.263 378.557 307.359 393.801 307.359 393.801C307.359 393.801 348.585 379.047 373.994 380.718C432.707 384.58 521.838 441.529 521.838 441.529L389.945 669.974Z" fill="#FBC3A9"/>
<path d="M321.161 525.603C319.365 523.85 316.773 523.598 315.373 525.041C313.972 526.485 314.292 529.076 316.088 530.83C317.884 532.584 320.475 532.835 321.876 531.392C323.277 529.948 322.956 527.357 321.161 525.603Z" fill="#383838"/>
<path d="M366.837 445.09C364.716 443.748 362.126 444.039 361.051 445.74C359.976 447.441 360.823 449.907 362.944 451.249C365.064 452.59 367.654 452.299 368.729 450.598C369.804 448.898 368.957 446.431 366.837 445.09Z" fill="#383838"/>
<path d="M348.503 492.163L339.671 494.321C338.212 494.677 336.741 493.786 336.403 492.308C336.056 490.845 336.953 489.365 338.428 489.017L342.172 488.108L341.017 482.288C340.72 480.812 341.679 479.368 343.168 479.07C344.64 478.764 346.075 479.718 346.363 481.21L348.519 492.172L348.503 492.163Z" fill="#383838"/>
<path d="M356.095 494.254C356.047 494.373 356.008 494.477 355.96 494.596C355.298 495.96 353.664 496.51 352.308 495.853L345.17 492.363C343.814 491.706 343.284 490.054 343.937 488.706C344.599 487.343 346.233 486.793 347.589 487.449L354.727 490.94C355.964 491.549 356.525 492.966 356.104 494.238L356.095 494.254Z" fill="#383838"/>
<path d="M35.9384 471.68C54.864 452.754 100.721 454.846 122.585 464.527C144.45 474.208 174.772 506.62 166.869 555.73C166.869 555.73 199.379 569.512 220.83 589.701C242.28 609.89 253.5 655.767 253.5 655.767C253.5 655.767 290.839 635.62 316.646 640.766C340.955 645.597 357.162 666.89 362.13 682.978C367.099 699.065 371.832 719.963 378.831 727.514C390.147 739.659 382.618 770.375 348.254 770.709C313.891 771.042 304.742 727.196 292.459 716.175C280.176 705.154 267.44 707.559 267.44 707.559C267.44 707.559 271.129 756.393 250.154 794.599C229.179 832.806 123.473 974.473 123.473 974.473L-145.213 705.788C-145.213 705.788 -44.9268 612.126 5.12844 586.085C55.1836 560.043 111.607 546.797 111.607 546.797C111.607 546.797 100.527 530.788 88.0276 532.207C75.5284 533.626 62.4778 550.462 45.9172 548.49C29.3566 546.518 8.55662 529.582 9.99517 513.12C11.9855 490.27 35.9384 471.68 35.9384 471.68Z" fill="#FFD643"/>
<path d="M85.9292 636.475C89.26 634.514 90.6937 630.773 89.1315 628.119C87.5692 625.465 83.6027 624.903 80.2719 626.863C76.9411 628.823 75.5074 632.564 77.0696 635.218C78.6319 637.872 82.5984 638.435 85.9292 636.475Z" fill="#383838"/>
<path d="M178.688 741.063C181.016 743.08 184.955 742.346 187.485 739.425C190.015 736.504 190.18 732.501 187.852 730.485C185.524 728.468 181.586 729.202 179.055 732.123C176.525 735.044 176.36 739.047 178.688 741.063Z" fill="#383838"/>
<path d="M117.527 676.679C119.774 672.933 126.576 673.939 129.297 675.319C132.017 676.699 138.267 684.369 138.839 690.382C139.411 696.395 131.427 698.701 128.391 697.084C125.354 695.468 118.848 688.133 117.409 684.604C115.97 681.075 115.536 679.932 117.487 676.679L117.527 676.679Z" fill="#383838"/>
<path d="M127.07 716.425C124.685 714.867 123.581 711.555 122.95 709.702C122.812 709.248 122.674 708.834 122.536 708.499C121.747 706.567 119.637 698.07 118.356 692.648C112.658 692.471 105.56 690.105 102.505 687.877C97.7334 684.367 97.7726 679.32 97.7726 678.768C97.8316 676.462 99.7833 674.668 102.09 674.727C104.357 674.786 106.151 676.659 106.132 678.926C106.132 679.123 106.25 680.267 107.433 681.134C109.799 682.909 117.724 684.92 120.465 684.151L124.644 683.008L125.63 687.227C127.484 695.074 129.712 704.005 130.244 705.325C130.441 705.799 130.619 706.37 130.836 707.021C131.033 707.573 131.309 708.48 131.605 709.091C133.024 709.604 134.108 710.885 134.306 712.462C134.621 714.749 133.024 716.859 130.718 717.154C129.219 717.352 128.017 717.016 127.011 716.366L127.07 716.425Z" fill="#383838"/>
<path d="M472.557 124.888C472.557 124.888 401.512 161.011 375.19 165.565C348.869 170.12 319.862 165.459 319.862 165.459C319.862 165.459 301.589 176.024 297.896 177.289C294.204 178.554 286.251 183.305 281.291 179.19C276.33 175.075 290.832 139.335 290.832 139.335C290.832 139.335 282.421 130.187 280.48 122.802C280.48 122.802 253.61 124.742 249.754 124.135C245.898 123.527 240.397 123.142 239.589 117.469C238.781 111.797 263.827 89.7263 263.827 89.7263C263.827 89.7263 262.022 59.8582 287.877 32.9334C328.802 -9.69307 386.114 -35.5839 386.114 -35.5839L472.545 124.895L472.557 124.888Z" fill="#B6D4E9"/>
<path d="M345.494 122.717C343.838 123.52 343.014 125.241 343.653 126.56C344.293 127.88 346.154 128.299 347.81 127.497C349.467 126.694 350.291 124.973 349.651 123.654C349.012 122.334 347.151 121.915 345.494 122.717Z" fill="#383838"/>
<path d="M319.854 72.3744C318.97 71.2041 317.062 71.1548 315.594 72.2642C314.125 73.3735 313.651 75.2216 314.535 76.3918C315.419 77.5621 317.326 77.6114 318.795 76.502C320.264 75.3926 320.738 73.5446 319.854 72.3744Z" fill="#383838"/>
<path d="M336.06 103.832C334.572 103.924 333.36 102.179 333.036 101.66C332.711 101.141 331.456 98.5596 332.64 96.8661C333.825 95.1727 335.933 95.168 337.343 96.7766C338.752 98.3853 339.568 99.6199 339.197 101.479C338.825 103.338 337.299 103.752 336.06 103.832Z" fill="#383838"/>
<path d="M363.642 133.314C363.888 133.604 364.054 133.967 364.096 134.382C364.226 135.548 364.78 138.899 365.809 140.502C366.413 141.428 366.142 142.66 365.227 143.258C364.313 143.856 363.063 143.579 362.471 142.677C360.744 140.002 360.198 135.349 360.141 134.822C360.018 133.727 360.814 132.741 361.898 132.625C362.579 132.544 363.229 132.828 363.636 133.332L363.642 133.314Z" fill="#383838"/>
<path d="M370.927 129.677C371.057 129.833 371.169 130.014 371.246 130.214C371.272 130.26 373.174 134.997 375.271 137.909C375.915 138.798 375.716 140.052 374.82 140.685C373.931 141.33 372.671 141.119 372.044 140.235C369.656 136.921 367.632 131.904 367.549 131.692C367.138 130.677 367.643 129.515 368.658 129.104C369.474 128.77 370.385 129.034 370.921 129.665L370.927 129.677Z" fill="#383838"/>
<path d="M314.473 48.5745L318.233 53.0346C318.942 53.8745 318.837 55.137 317.991 55.834C317.145 56.531 315.889 56.4385 315.192 55.5924L311.432 51.1324C310.724 50.2926 310.828 49.03 311.674 48.3329C312.52 47.6359 313.776 47.7284 314.473 48.5745Z" fill="#383838"/>
<path d="M322.166 41.3247C322.283 41.4578 322.383 41.6152 322.466 41.7969L325.582 48.7596C326.035 49.7676 325.583 50.9457 324.575 51.3981C323.567 51.8506 322.401 51.393 321.937 50.3912L318.82 43.4285C318.368 42.4204 318.819 41.2423 319.827 40.7899C320.653 40.4202 321.611 40.6584 322.166 41.3247Z" fill="#383838"/>
<path d="M8.68117 -40.9838C8.68117 -40.9838 139.533 48.0496 160.475 83.4897C181.417 118.93 174.449 158.279 171.9 172.123C169.351 185.966 178.958 205.688 172.689 210.251C166.419 214.814 159.284 202.541 159.284 202.541C159.284 202.541 169.043 222.778 164.103 225.919C159.163 229.06 152.429 225.722 148.344 216.854C148.344 216.854 127.912 240.889 96.4694 246.862C55.5434 254.648 -59.82 216.058 -119.984 182.738L8.70645 -40.9907L8.68117 -40.9838Z" fill="#C5D9A0"/>
<path d="M55.325 187.699C54.6063 189.622 55.9703 191.904 58.3715 192.796C60.7727 193.688 63.3018 192.852 64.0205 190.93C64.7392 189.007 63.3752 186.725 60.974 185.833C58.5728 184.941 56.0437 185.776 55.325 187.699Z" fill="#383838"/>
<path d="M101.576 107.119C100.682 108.967 101.826 111.368 104.132 112.482C106.439 113.596 109.033 113.001 109.928 111.153C110.823 109.305 109.678 106.904 107.372 105.79C105.066 104.676 102.471 105.271 101.576 107.119Z" fill="#383838"/>
<path d="M64.8462 139.577C70.3512 130.007 79.0422 121.604 87.4156 126.056C88.1868 126.457 89.2034 127.321 89.749 129.114C91.2705 134.213 88.0396 145.092 84.1658 152.234C79.1513 161.508 70.3144 169.719 64.2382 167.425C63.1846 167.033 61.76 166.064 60.8873 163.653C58.8997 158.178 60.568 147.237 64.4477 140.27C64.5774 140.045 64.7072 139.819 64.8369 139.593L64.8462 139.577ZM84.4658 130.814C79.138 128.478 72.4436 137.3 69.2986 142.953C65.2149 150.275 65.0147 160.517 66.3433 162.246C68.0973 162.568 74.6155 158.277 79.2871 149.599C83.6108 141.601 85.1473 132.964 84.4658 130.814Z" fill="#383838"/>
<path d="M111.146 298.159C113.978 298.159 116.43 298.695 118.488 299.767C121.816 301.607 123.231 303.693 122.75 306.026C122.56 307.489 121.626 308.459 119.962 308.937C118.488 309.329 117.276 308.981 116.298 307.923C114.926 305.881 112.723 305.055 109.687 305.446C109.497 305.446 109.336 305.49 109.249 305.591C107.585 305.779 106.461 306.605 105.877 308.068C105.585 308.851 105.688 309.676 106.169 310.546C107.337 311.328 109.249 311.661 111.891 311.56C113.452 311.56 114.635 311.661 115.408 311.849C118.546 312.139 121.086 313.689 123.042 316.514C124.311 318.267 124.895 320.15 124.808 322.193C124.91 325.308 123.64 327.872 120.998 329.914C119.918 330.697 118.794 331.276 117.627 331.667C112.445 333.319 107.848 333.319 103.834 331.667C100.608 330.117 98.6963 328.263 98.1125 326.133C97.7184 324.482 98.3606 323.178 100.025 322.207C101.586 321.237 103.002 321.28 104.286 322.352C104.476 322.454 104.622 322.541 104.724 322.642C106.388 324.786 109.322 325.51 113.525 324.829C115.189 324.728 116.313 324.105 116.897 322.932C117.291 322.251 117.291 321.527 116.897 320.744C116.021 319.774 114.445 319.281 112.197 319.281C107.308 319.469 103.732 318.499 101.484 316.369C99.0028 314.327 97.879 311.661 98.0833 308.358C98.0833 306.214 98.7255 304.331 99.9953 302.679C102.243 299.565 105.863 298.058 110.854 298.159H111.146Z" fill="#FFD643"/>
<path d="M130.514 312.588C130.514 309.184 131.536 306.228 133.594 303.708C136.046 300.608 139.607 299.043 144.307 299.043C151.357 299.724 155.706 302.882 157.37 308.517C157.662 309.778 157.852 311.139 157.954 312.603V329.204C157.954 330.755 157.224 331.87 155.75 332.551C155.166 332.841 154.626 332.985 154.13 332.985C152.466 332.985 151.342 332.203 150.758 330.653C150.569 330.175 150.466 329.682 150.466 329.19V312.588C150.277 308.995 148.219 307.011 144.307 306.62C140.979 306.62 138.98 308.17 138.294 311.284C138.192 311.777 138.148 312.211 138.148 312.603V329.204C138.148 330.755 137.36 331.87 135.798 332.551C135.404 332.841 134.922 332.985 134.324 332.985C132.66 332.985 131.492 332.203 130.806 330.653C130.617 330.175 130.514 329.682 130.514 329.19V312.588Z" fill="#C5D9A0"/>
<path d="M187.174 300.782C191.582 304.085 193.786 309.039 193.786 315.645C193.786 322.729 191.582 327.741 187.174 330.653C184.722 332.203 181.993 332.986 178.957 332.986C175.527 332.986 172.506 332.015 169.864 330.074C166.142 326.959 164.332 322.164 164.434 315.645C164.434 308.749 166.638 303.838 171.046 300.926C173.396 299.275 176.038 298.449 178.971 298.449C182.109 298.449 184.839 299.232 187.189 300.782H187.174ZM178.957 325.409C183.759 325.409 186.152 322.15 186.152 315.645C186.152 309.14 183.759 306.171 178.957 306.171C177.687 306.171 176.461 306.562 175.293 307.33C173.133 308.691 172.068 311.458 172.068 315.631V316.21C172.068 322.323 174.374 325.395 178.971 325.395L178.957 325.409Z" fill="#FBC3A9"/>
<path d="M222.553 300.782C226.961 304.085 229.165 309.039 229.165 315.645C229.165 322.729 226.961 327.741 222.553 330.653C220.101 332.203 217.372 332.986 214.336 332.986C210.906 332.986 207.885 332.015 205.243 330.074C201.521 326.959 199.711 322.164 199.814 315.645C199.814 308.749 202.018 303.838 206.425 300.926C208.775 299.275 211.417 298.449 214.351 298.449C217.489 298.449 220.218 299.232 222.568 300.782H222.553ZM214.336 325.409C219.138 325.409 221.532 322.15 221.532 315.645C221.532 309.14 219.138 306.171 214.336 306.171C213.066 306.171 211.84 306.562 210.673 307.33C208.512 308.691 207.447 311.458 207.447 315.631V316.21C207.447 322.323 209.753 325.395 214.351 325.395L214.336 325.409Z" fill="#B6D4E9"/>
<path d="M237.368 299.029H257.626C259.188 299.029 260.312 299.753 260.998 301.216C261.786 302.578 261.684 303.94 260.706 305.301L245.293 325.264H257.626C259.1 325.264 260.224 325.902 260.998 327.162C261.786 328.422 261.786 329.741 260.998 331.102C260.21 332.363 259.086 333 257.626 333H237.368C235.806 333 234.624 332.276 233.85 330.813C233.164 329.349 233.31 328.002 234.288 326.727L249.701 306.765H237.368C235.894 306.765 234.77 306.127 233.996 304.867C233.208 303.505 233.208 302.201 233.996 300.926C234.784 299.666 235.908 299.029 237.368 299.029Z" fill="#FFD643"/>
<path d="M288.744 324.091C289.911 323.12 291.24 322.874 292.714 323.366C293.983 323.946 294.713 325.018 294.918 326.568C295.21 328.031 294.728 329.19 293.443 330.059C292.071 331.218 290.364 332.058 288.306 332.536C286.832 332.826 284.394 332.928 280.964 332.826C278.512 332.826 276.119 332 273.769 330.349C269.463 327.234 267.157 322.526 266.865 316.21C266.763 315.732 266.763 315.196 266.865 314.602C267.157 307.996 269.463 303.288 273.769 300.477C276.119 298.826 278.804 298 281.84 298C284.088 298 286.102 298.478 287.853 299.463C292.553 302.375 294.903 307.228 294.903 314.037V315.5C294.903 315.978 294.801 316.471 294.611 316.949C294.027 318.499 292.845 319.281 291.094 319.281H275.097C275.783 322.584 277.739 324.482 280.964 324.96H282.293C285.722 324.96 287.868 324.67 288.744 324.091ZM281.402 305.881H280.964C280.089 305.881 279.111 306.171 278.031 306.75C276.469 307.822 275.491 309.416 275.097 311.56H287.138V311.27C286.744 308.836 285.766 307.243 284.205 306.46C283.519 306.069 282.687 305.881 281.709 305.881H281.417H281.402Z" fill="#FBC3A9"/>
</g>
<rect x="0.5" y="0.5" width="391" height="845" stroke="black"/>
<defs>
<clipPath id="clip0_956_69434">
<rect x="1" y="1" width="390" height="844" fill="white"/>
</clipPath>
</defs>
</svg>
