<svg width="76" height="76" viewBox="0 0 76 76" fill="none" xmlns="http://www.w3.org/2000/svg">
<circle cx="38" cy="38" r="32" fill="#B6D4E9"/>
<circle cx="38" cy="38" r="36" stroke="#B6D4E9" stroke-width="4"/>
<path d="M22.3867 39.4067L22.4987 40.5267C19.8947 40.8487 17.1367 40.9327 14.3087 40.9607L14.0847 39.7567C15.1347 39.7567 16.2827 39.7567 17.4307 39.7287V37.7547C15.9327 37.4887 14.8687 36.4107 14.8687 34.9267C14.8687 33.2467 16.2827 31.9587 18.1307 31.9587C19.9927 31.9587 21.4347 33.2047 21.4347 34.9267C21.4347 36.4387 20.3427 37.4887 18.8447 37.7547V39.6727C20.1467 39.6307 21.4767 39.5327 22.3867 39.4067ZM24.5287 31.0627V43.5367H23.0867V31.0627H24.5287ZM19.9647 34.9267C19.9647 33.8207 19.1527 33.1767 18.1307 33.1767C17.1087 33.1767 16.2967 33.8207 16.2967 34.9267C16.2967 35.9627 17.1227 36.5927 18.1307 36.5927C19.1247 36.5927 19.9647 35.9627 19.9647 34.9267ZM36.46 43.4387H27.654V40.5267H34.542V39.7987H27.626V38.7067H31.112V37.8947H26.212V36.7887H37.482V37.8947H32.54V38.7067H35.984V41.5487H29.082V42.3607H36.46V43.4387ZM36.978 35.2207L36.39 36.3827C34.458 36.1727 32.54 35.4727 31.84 34.5067C31.168 35.5007 29.32 36.2147 27.29 36.3827L26.688 35.2347C28.606 35.2207 30.482 34.6047 31.014 33.7227H27.346V32.6167H36.348V33.7227H32.722C33.296 34.5907 35.214 35.1927 36.978 35.2207ZM29.796 32.0707V30.9647H33.884V32.0707H29.796ZM44.8493 38.3987C44.8493 39.8967 43.6593 41.0587 41.8813 41.0587C40.0893 41.0587 38.8853 39.9387 38.8853 38.3987C38.8853 36.9147 40.0893 35.7387 41.8813 35.7387C43.6593 35.7387 44.8493 36.8727 44.8493 38.3987ZM43.4353 38.3987C43.4353 37.5167 42.7773 36.9147 41.8813 36.9147C40.9713 36.9147 40.3273 37.5167 40.3273 38.3987C40.3273 39.2667 40.9713 39.8827 41.8813 39.8827C42.8473 39.8827 43.4353 39.2667 43.4353 38.3987ZM45.4793 35.1367H38.2273V33.9747H45.4793V35.1367ZM39.9913 32.9667V31.7907H43.7713V32.9667H39.9913ZM48.0133 31.0627V36.1867H49.9453V37.3907H48.0133V43.5367H46.5713V31.0627H48.0133ZM60.7146 43.5367H59.2866V31.0627H60.7146V43.5367ZM56.8926 32.3787C56.8086 36.2427 54.8766 39.2247 51.2786 41.1987L50.3826 40.1067C53.2526 38.7907 55.1146 36.1727 55.3526 33.5547H51.1106V32.3787H56.8926Z" fill="#725827"/>
</svg>
