<svg width="34" height="29" viewBox="0 0 34 29" fill="none" xmlns="http://www.w3.org/2000/svg">
<circle cx="32.0001" cy="4" r="2" fill="#F56262"/>
<path d="M6.86328 24.5586C5.63672 24.5586 4.71484 24.2539 4.09766 23.6445C3.48828 23.043 3.18359 22.1367 3.18359 20.9258V13.9883C3.18359 13.6367 3.20312 13.3359 3.24219 13.0859C3.28125 12.8281 3.34766 12.5977 3.44141 12.3945C3.54297 12.1836 3.67969 11.9727 3.85156 11.7617L7.90625 6.75781C8.35938 6.19531 8.76172 5.75391 9.11328 5.43359C9.46484 5.11328 9.85156 4.88672 10.2734 4.75391C10.7031 4.62109 11.2656 4.55469 11.9609 4.55469H22.0391C22.7344 4.55469 23.2969 4.62109 23.7266 4.75391C24.1562 4.88672 24.543 5.11328 24.8867 5.43359C25.2383 5.75391 25.6445 6.19531 26.1055 6.75781L30.1484 11.7617C30.3203 11.9727 30.4531 12.1836 30.5469 12.3945C30.6484 12.5977 30.7188 12.8281 30.7578 13.0859C30.7969 13.3359 30.8164 13.6367 30.8164 13.9883V20.9258C30.8164 22.1367 30.5117 23.043 29.9023 23.6445C29.293 24.2539 28.3711 24.5586 27.1367 24.5586H6.86328ZM6.88672 22.6719H27.1133C27.6914 22.6719 28.1367 22.5195 28.4492 22.2148C28.7695 21.9023 28.9297 21.4414 28.9297 20.832V14.9961H21.5C21.4062 15.7227 21.1523 16.375 20.7383 16.9531C20.332 17.5234 19.8047 17.9766 19.1562 18.3125C18.5156 18.6406 17.7969 18.8047 17 18.8047C16.2109 18.8047 15.4922 18.6406 14.8438 18.3125C14.2031 17.9844 13.6758 17.5352 13.2617 16.9648C12.8477 16.3867 12.5938 15.7305 12.5 14.9961H5.07031V20.832C5.07031 21.4414 5.22656 21.9023 5.53906 22.2148C5.85156 22.5195 6.30078 22.6719 6.88672 22.6719ZM17 17.0703C17.5547 17.0703 18.0352 16.9336 18.4414 16.6602C18.8477 16.3789 19.1641 16.0234 19.3906 15.5938C19.6172 15.1641 19.7305 14.7227 19.7305 14.2695V14.2344C19.7305 13.9922 19.8008 13.7734 19.9414 13.5781C20.0898 13.3828 20.3164 13.2852 20.6211 13.2852H28.3555C28.543 13.2852 28.6562 13.2188 28.6953 13.0859C28.7422 12.9531 28.7188 12.8242 28.625 12.6992L24.2656 7.21484C23.9766 6.84766 23.6641 6.58594 23.3281 6.42969C22.9922 6.27344 22.6094 6.19531 22.1797 6.19531H11.8203C11.3984 6.19531 11.0156 6.27344 10.6719 6.42969C10.3359 6.58594 10.0234 6.84766 9.73438 7.21484L5.38672 12.6992C5.28516 12.8242 5.25391 12.9531 5.29297 13.0859C5.33984 13.2188 5.46094 13.2852 5.65625 13.2852H13.3789C13.6836 13.2852 13.9102 13.3828 14.0586 13.5781C14.207 13.7734 14.2812 13.9922 14.2812 14.2344V14.2695C14.2812 14.7227 14.3906 15.1641 14.6094 15.5938C14.8359 16.0234 15.1523 16.3789 15.5586 16.6602C15.9648 16.9336 16.4453 17.0703 17 17.0703ZM21.9219 7.91797C22.0859 7.91797 22.2188 7.97266 22.3203 8.08203C22.4297 8.19141 22.4844 8.32422 22.4844 8.48047C22.4844 8.63672 22.4297 8.76953 22.3203 8.87891C22.2188 8.98828 22.0859 9.04297 21.9219 9.04297H12.0781C11.9219 9.04297 11.7891 8.98828 11.6797 8.87891C11.5703 8.76953 11.5156 8.63672 11.5156 8.48047C11.5156 8.32422 11.5703 8.19141 11.6797 8.08203C11.7891 7.97266 11.9219 7.91797 12.0781 7.91797H21.9219ZM23.4805 10.5664C23.6445 10.5664 23.7812 10.6289 23.8906 10.7539C24.0078 10.8789 24.0664 11.0195 24.0664 11.1758C24.0664 11.332 24.0078 11.4688 23.8906 11.5859C23.7812 11.7031 23.6445 11.7617 23.4805 11.7617H10.5195C10.3555 11.7617 10.2148 11.7031 10.0977 11.5859C9.98828 11.4688 9.93359 11.332 9.93359 11.1758C9.93359 11.0195 9.98828 10.8789 10.0977 10.7539C10.2148 10.6289 10.3555 10.5664 10.5195 10.5664H23.4805Z" fill="white"/>
</svg>
