<svg width="201" height="306" viewBox="0 0 201 306" fill="none" xmlns="http://www.w3.org/2000/svg">
<g opacity="0.47" filter="url(#filter0_f_988_72149)">
<ellipse cx="100.5" cy="269" rx="72.5" ry="8.99999" transform="rotate(-180 100.5 269)" fill="#AEAEAE"/>
</g>
<g opacity="0.47" filter="url(#filter1_f_988_72149)">
<ellipse cx="100.5" cy="266" rx="48.5" ry="6" transform="rotate(-180 100.5 266)" fill="#AEAEAE"/>
</g>
<path fill-rule="evenodd" clip-rule="evenodd" d="M15.3063 75.3581C18.8859 32.7734 55.1759 0 98.7503 0H103.25C146.824 0 183.114 32.7734 186.694 75.3581C188.621 98.2861 181.399 121.053 166.548 138.862L116.619 198.739C108.547 208.42 93.4534 208.42 85.3806 198.739L35.4522 138.862C20.6014 121.053 13.379 98.2861 15.3063 75.3581Z" fill="#F5F5F5"/>
<mask id="mask0_988_72149" style="mask-type:alpha" maskUnits="userSpaceOnUse" x="15" y="0" width="172" height="206">
<path fill-rule="evenodd" clip-rule="evenodd" d="M15.3063 75.3581C18.8859 32.7734 55.1759 0 98.7503 0H103.25C146.824 0 183.114 32.7734 186.694 75.3581C188.621 98.2861 181.399 121.053 166.548 138.862L116.619 198.739C108.547 208.42 93.4534 208.42 85.3806 198.739L35.4522 138.862C20.6014 121.053 13.379 98.2861 15.3063 75.3581Z" fill="#F5F5F5"/>
</mask>
<g mask="url(#mask0_988_72149)">
<path d="M27 206C27 206 28.5476 139.755 35.501 118.692C42.4544 97.6296 57.1132 78.2339 57.1132 78.2339C57.1132 78.2339 56.5901 60.6929 57.1132 57.4916C57.6364 54.2902 57.2985 46.596 62.203 44.5869C67.1074 42.5778 87.2918 67.2832 87.2918 67.2832C87.2918 67.2832 97.177 64.7332 103.269 66.2235C103.269 66.2235 112.326 45.7902 114.266 43.207C116.206 40.6239 118.626 36.7492 123.04 38.394C127.454 40.0388 133.655 67.0735 133.655 67.0735C133.655 67.0735 155.943 77.5274 165.338 107.068C180.215 153.829 176.618 205.989 176.618 205.989H27V206Z" fill="#B6D4E9"/>
<path d="M78.0254 113.847C78.09 112.318 77.1674 111.037 75.9646 110.985C74.7619 110.932 73.7345 112.13 73.6699 113.658C73.6053 115.187 74.528 116.469 75.7307 116.521C76.9335 116.573 77.9608 115.376 78.0254 113.847Z" fill="#383838"/>
<path d="M124.388 114.925C125.578 114.74 126.356 113.363 126.126 111.851C125.896 110.338 124.745 109.263 123.555 109.448C122.365 109.634 121.587 111.011 121.817 112.523C122.047 114.036 123.198 115.111 124.388 114.925Z" fill="#383838"/>
<path d="M95.3461 114.387C95.8583 113.261 97.5912 113.062 98.0926 113.029C98.5939 112.996 100.948 113.095 101.711 114.63C102.474 116.164 101.656 117.71 99.9454 118.107C98.2343 118.505 97.0245 118.615 95.8256 117.61C94.6267 116.606 94.921 115.325 95.3461 114.387Z" fill="#383838"/>
<path d="M63.3037 122.953C62.9986 123.019 62.6715 122.997 62.3555 122.865C61.4618 122.501 58.8243 121.584 57.2658 121.706C56.3612 121.783 55.5765 121.099 55.5002 120.193C55.4239 119.288 56.1105 118.482 56.9933 118.405C59.5981 118.195 63.1729 119.631 63.5762 119.796C64.4154 120.138 64.8186 121.11 64.4807 121.949C64.2737 122.479 63.8159 122.843 63.2928 122.942L63.3037 122.953Z" fill="#383838"/>
<path d="M63.0968 129.72C62.9333 129.753 62.7589 129.764 62.5845 129.742C62.5409 129.742 58.3776 129.267 55.4567 129.654C54.563 129.775 53.7347 129.135 53.6257 128.23C53.5058 127.324 54.1489 126.486 55.0317 126.375C58.3558 125.934 62.7698 126.43 62.9551 126.452C63.8488 126.552 64.4918 127.38 64.3937 128.285C64.3174 129.013 63.7724 129.576 63.1076 129.72H63.0968Z" fill="#383838"/>
<path d="M143.682 120.37L138.995 121.364C138.113 121.551 137.241 120.977 137.066 120.083C136.892 119.189 137.448 118.306 138.331 118.129L143.017 117.136C143.9 116.948 144.772 117.522 144.946 118.416C145.121 119.31 144.565 120.193 143.682 120.37Z" fill="#383838"/>
<path d="M145.927 128.859C145.785 128.892 145.633 128.903 145.469 128.892L139.224 128.429C138.32 128.362 137.644 127.568 137.709 126.651C137.775 125.735 138.56 125.062 139.464 125.117L145.709 125.581C146.614 125.647 147.289 126.442 147.224 127.358C147.17 128.109 146.625 128.716 145.927 128.859Z" fill="#383838"/>
</g>
<defs>
<filter id="filter0_f_988_72149" x="0" y="232" width="201" height="74" filterUnits="userSpaceOnUse" color-interpolation-filters="sRGB">
<feFlood flood-opacity="0" result="BackgroundImageFix"/>
<feBlend mode="normal" in="SourceGraphic" in2="BackgroundImageFix" result="shape"/>
<feGaussianBlur stdDeviation="14" result="effect1_foregroundBlur_988_72149"/>
</filter>
<filter id="filter1_f_988_72149" x="24" y="232" width="153" height="68" filterUnits="userSpaceOnUse" color-interpolation-filters="sRGB">
<feFlood flood-opacity="0" result="BackgroundImageFix"/>
<feBlend mode="normal" in="SourceGraphic" in2="BackgroundImageFix" result="shape"/>
<feGaussianBlur stdDeviation="14" result="effect1_foregroundBlur_988_72149"/>
</filter>
</defs>
</svg>
