<svg width="305" height="300" viewBox="0 0 305 300" fill="none" xmlns="http://www.w3.org/2000/svg">
<path d="M300 150C300 232.843 232.843 300 150 300C67.1573 300 0 232.843 0 150C0 67.1573 67.1573 0 150 0C232.843 0 300 67.1573 300 150ZM4.5 150C4.5 230.357 69.6426 295.5 150 295.5C230.357 295.5 295.5 230.357 295.5 150C295.5 69.6426 230.357 4.5 150 4.5C69.6426 4.5 4.5 69.6426 4.5 150Z" fill="#DEDCDC" fill-opacity="0.5"/>
<path d="M300 150C300 110.218 284.196 72.0644 256.066 43.934C227.936 15.8035 189.782 3.00349e-06 150 0C110.218 -3.00349e-06 72.0645 15.8035 43.934 43.934C15.8035 72.0644 6.00699e-06 110.218 0 150H4.5C4.50001 111.411 19.8294 74.4025 47.116 47.116C74.4025 19.8294 111.411 4.5 150 4.5C188.589 4.5 225.598 19.8294 252.884 47.116C280.171 74.4025 295.5 111.411 295.5 150H300Z" fill="url(#paint0_linear_1233_75132)"/>
<circle cx="298" cy="150" r="7" fill="#FFD744"/>
<defs>
<linearGradient id="paint0_linear_1233_75132" x1="116.5" y1="4.9999" x2="-24.0392" y2="34.1663" gradientUnits="userSpaceOnUse">
<stop stop-color="#FFD643"/>
<stop offset="1" stop-color="white" stop-opacity="0"/>
</linearGradient>
</defs>
</svg>
