<svg width="201" height="306" viewBox="0 0 201 306" fill="none" xmlns="http://www.w3.org/2000/svg">
<g opacity="0.47" filter="url(#filter0_f_988_72150)">
<ellipse cx="100.5" cy="269" rx="72.5" ry="8.99999" transform="rotate(-180 100.5 269)" fill="#AEAEAE"/>
</g>
<g opacity="0.47" filter="url(#filter1_f_988_72150)">
<ellipse cx="100.5" cy="266" rx="48.5" ry="6" transform="rotate(-180 100.5 266)" fill="#AEAEAE"/>
</g>
<path fill-rule="evenodd" clip-rule="evenodd" d="M15.3063 75.3581C18.8859 32.7734 55.1759 0 98.7503 0H103.25C146.824 0 183.114 32.7734 186.694 75.3581C188.621 98.2861 181.399 121.053 166.548 138.862L116.619 198.739C108.547 208.42 93.4534 208.42 85.3806 198.739L35.4522 138.862C20.6014 121.053 13.379 98.2861 15.3063 75.3581Z" fill="#F5F5F5"/>
<mask id="mask0_988_72150" style="mask-type:alpha" maskUnits="userSpaceOnUse" x="15" y="0" width="172" height="206">
<path fill-rule="evenodd" clip-rule="evenodd" d="M15.3063 75.3581C18.8859 32.7734 55.1759 0 98.7503 0H103.25C146.824 0 183.114 32.7734 186.694 75.3581C188.621 98.2861 181.399 121.053 166.548 138.862L116.619 198.739C108.547 208.42 93.4534 208.42 85.3806 198.739L35.4522 138.862C20.6014 121.053 13.379 98.2861 15.3063 75.3581Z" fill="#F5F5F5"/>
</mask>
<g mask="url(#mask0_988_72150)">
<path d="M24 206C24 206 30.5529 137.073 41.2534 116.007C51.954 94.9407 64.5146 85.4421 64.5146 85.4421C64.5146 85.4421 63.7236 48.8122 74.6166 33.4974C85.5095 18.1826 96.5522 28.2445 96.5522 28.2445C96.5522 28.2445 103.811 36.2918 102.496 47.9891C101.181 59.6864 98.2946 73.3115 98.2946 73.3115H104.527C104.527 73.3115 103.041 53.4153 104.527 44.3824C106.013 35.3495 111.026 25.0277 120.85 25.2118C130.674 25.396 137.687 32.5335 140.124 49.5812C142.561 66.6289 140.124 80.5682 140.124 80.5682C140.124 80.5682 159.719 97.5184 166.325 111.187C181.59 142.77 178.8 206 178.8 206H24Z" fill="#FBC3A9"/>
<path d="M77.1893 127.157C77.5536 125.702 76.9211 124.283 75.7765 123.989C74.632 123.695 73.4088 124.637 73.0446 126.092C72.6803 127.547 73.3128 128.965 74.4574 129.26C75.6019 129.554 76.8251 128.612 77.1893 127.157Z" fill="#383838"/>
<path d="M131.51 126.738C131.57 125.238 130.662 123.982 129.482 123.934C128.302 123.886 127.297 125.063 127.238 126.563C127.178 128.063 128.086 129.319 129.266 129.367C130.445 129.415 131.45 128.238 131.51 126.738Z" fill="#383838"/>
<path d="M102.207 131.321L98.5191 127.39C97.9098 126.74 97.9312 125.711 98.5833 125.094C99.2247 124.476 100.24 124.498 100.85 125.159L102.41 126.827L105.029 124.487C105.692 123.892 106.708 123.956 107.296 124.639C107.883 125.31 107.819 126.339 107.146 126.935L102.207 131.332V131.321Z" fill="#383838"/>
<path d="M103.372 135.881C103.298 135.892 103.233 135.903 103.159 135.914C102.271 135.979 101.512 135.296 101.448 134.397L101.127 129.653C101.063 128.755 101.747 127.986 102.624 127.921C103.511 127.856 104.27 128.538 104.334 129.437L104.655 134.181C104.709 135.004 104.153 135.719 103.383 135.881H103.372Z" fill="#383838"/>
</g>
<defs>
<filter id="filter0_f_988_72150" x="0" y="232" width="201" height="74" filterUnits="userSpaceOnUse" color-interpolation-filters="sRGB">
<feFlood flood-opacity="0" result="BackgroundImageFix"/>
<feBlend mode="normal" in="SourceGraphic" in2="BackgroundImageFix" result="shape"/>
<feGaussianBlur stdDeviation="14" result="effect1_foregroundBlur_988_72150"/>
</filter>
<filter id="filter1_f_988_72150" x="24" y="232" width="153" height="68" filterUnits="userSpaceOnUse" color-interpolation-filters="sRGB">
<feFlood flood-opacity="0" result="BackgroundImageFix"/>
<feBlend mode="normal" in="SourceGraphic" in2="BackgroundImageFix" result="shape"/>
<feGaussianBlur stdDeviation="14" result="effect1_foregroundBlur_988_72150"/>
</filter>
</defs>
</svg>
