<svg width="366" height="320" viewBox="0 0 366 320" fill="none" xmlns="http://www.w3.org/2000/svg">
<rect width="366" height="320" rx="8" fill="white"/>
<path d="M25.52 33.568V31.248H20.368V30.272L25.776 22.4H26.848V30.128H28.64V31.248H26.848V33.568H25.52ZM21.84 30.128H25.536V24.752L21.84 30.128ZM41.2728 35.104H31.2088V32.08H39.3368V31.136H31.2088V30.08H40.7448V33.056H32.6328V34.032H41.2728V35.104ZM37.0328 23.776C37.0328 25.232 35.5288 26.08 33.5608 26.08C31.5928 26.08 30.0728 25.232 30.0728 23.76C30.0728 22.336 31.5928 21.456 33.5608 21.456C35.5288 21.456 37.0328 22.304 37.0328 23.776ZM40.7448 29.52H39.3528V28.96H36.3608V27.952H39.3528V21.136H40.7448V29.52ZM34.2008 29.536H32.7928V27.824C31.5288 27.856 30.4088 27.888 29.2568 27.904L29.0488 26.736C30.6648 26.736 32.1528 26.72 33.6888 26.656C35.4808 26.576 36.8568 26.496 38.1848 26.336L38.3128 27.392C37.3368 27.52 35.7048 27.648 34.2008 27.744V29.536ZM35.6088 23.776C35.6088 22.992 34.7768 22.56 33.5608 22.56C32.3768 22.56 31.5288 22.992 31.5288 23.776C31.5288 24.56 32.3928 24.96 33.5608 24.96C34.7288 24.96 35.6088 24.56 35.6088 23.776ZM48.5196 33.392V23.984L46.5676 24.416V23.6L49.1596 22.4H49.9276V33.392H48.5196ZM63.3706 28.256H61.9466V21.136H63.3706V28.256ZM63.8666 35.024H54.2826V31.424H61.9466V30.128H54.2346V28.976H63.3706V32.48H55.6906V33.856H63.8666V35.024ZM55.8666 21.6C57.8666 21.6 59.4346 22.896 59.4346 24.784C59.4346 26.656 57.8666 27.888 55.8666 27.888C53.8986 27.888 52.2826 26.704 52.2826 24.8C52.2826 22.928 53.8506 21.6 55.8666 21.6ZM55.8666 22.816C54.6506 22.816 53.6746 23.632 53.6746 24.784C53.6746 25.92 54.6186 26.704 55.8666 26.704C57.1786 26.704 58.0426 25.872 58.0426 24.784C58.0426 23.632 57.1946 22.816 55.8666 22.816ZM69.3855 28.72V27.552H74.6495V28.72H69.3855ZM82.4762 33.52C81.2282 33.52 80.0922 33.168 79.4362 32.72L79.7082 31.6C80.3002 31.984 81.3082 32.352 82.1722 32.352C83.8362 32.352 84.8282 31.424 84.8282 29.936C84.8282 28.352 83.8682 27.728 82.2362 27.728C81.5002 27.728 80.4922 28.032 79.9962 28.256L80.3802 22.56H85.8682V23.728H81.5002L81.2922 26.864C81.7082 26.752 82.3322 26.64 82.7962 26.64C84.9562 26.64 86.2842 27.696 86.2842 29.968C86.2842 31.904 84.8442 33.52 82.4762 33.52ZM99.2915 35.104H89.2275V32.08H97.3555V31.136H89.2275V30.08H98.7635V33.056H90.6515V34.032H99.2915V35.104ZM95.0515 23.776C95.0515 25.232 93.5475 26.08 91.5795 26.08C89.6115 26.08 88.0915 25.232 88.0915 23.76C88.0915 22.336 89.6115 21.456 91.5795 21.456C93.5475 21.456 95.0515 22.304 95.0515 23.776ZM98.7635 29.52H97.3715V28.96H94.3795V27.952H97.3715V21.136H98.7635V29.52ZM92.2195 29.536H90.8115V27.824C89.5475 27.856 88.4275 27.888 87.2755 27.904L87.0675 26.736C88.6835 26.736 90.1715 26.72 91.7075 26.656C93.4995 26.576 94.8755 26.496 96.2035 26.336L96.3315 27.392C95.3555 27.52 93.7235 27.648 92.2195 27.744V29.536ZM93.6275 23.776C93.6275 22.992 92.7955 22.56 91.5795 22.56C90.3955 22.56 89.5475 22.992 89.5475 23.776C89.5475 24.56 90.4115 24.96 91.5795 24.96C92.7475 24.96 93.6275 24.56 93.6275 23.776ZM106.538 33.392V23.984L104.586 24.416V23.6L107.178 22.4H107.946V33.392H106.538ZM121.389 28.256H119.965V21.136H121.389V28.256ZM121.885 35.024H112.301V31.424H119.965V30.128H112.253V28.976H121.389V32.48H113.709V33.856H121.885V35.024ZM113.885 21.6C115.885 21.6 117.453 22.896 117.453 24.784C117.453 26.656 115.885 27.888 113.885 27.888C111.917 27.888 110.301 26.704 110.301 24.8C110.301 22.928 111.869 21.6 113.885 21.6ZM113.885 22.816C112.669 22.816 111.693 23.632 111.693 24.784C111.693 25.92 112.637 26.704 113.885 26.704C115.197 26.704 116.061 25.872 116.061 24.784C116.061 23.632 115.213 22.816 113.885 22.816Z" fill="#5B5B5B"/>
<path d="M44.608 68.928C44.608 72.288 40.896 74.336 34.464 74.336C28.064 74.336 24.352 72.288 24.352 68.928C24.352 65.536 28.064 63.488 34.464 63.488C40.896 63.488 44.608 65.536 44.608 68.928ZM36.96 58.784L37.28 61.664C33.696 62.272 27.072 62.688 21.152 62.688L20.64 59.584C21.696 59.584 22.848 59.584 24.064 59.552L23.424 52.512L27.104 52.096L27.424 59.488L30.272 59.392L30.624 52.128L34.208 52.48L33.536 59.2C34.784 59.104 35.936 58.976 36.96 58.784ZM44.544 63.424H40.8V58.4H37.248V55.584H40.8V52.896H37.248V50.08H40.8V46.016H44.544V63.424ZM40.672 68.928C40.672 67.392 38.368 66.464 34.464 66.464C30.624 66.464 28.256 67.392 28.256 68.928C28.256 70.432 30.624 71.36 34.464 71.36C38.368 71.36 40.672 70.432 40.672 68.928ZM36.16 50.944H21.472V47.968H36.16V50.944ZM70.3115 47.296C70.3115 51.776 70.1195 55.168 69.4155 57.952H73.6075V60.928H67.2075V67.68H63.4955V60.928H59.7835V67.68H56.0715V60.928H47.8475V57.952H65.7995C66.3435 55.776 66.5995 53.152 66.5675 50.24H51.1755V47.296H70.3115ZM70.6955 73.76H51.1115V64.864H54.8235V70.816H70.6955V73.76ZM92.2292 71.04V66.56H82.1492V64.256L93.2532 48.736H95.9412V63.648H99.1733V66.56H95.9412V71.04H92.2292ZM86.4372 63.648H92.2612V55.392L86.4372 63.648ZM123.907 74.528H120.163V46.016H123.907V74.528ZM118.019 65.248L115.843 68.064C113.507 66.624 110.531 63.168 109.571 60.192C108.643 63.456 105.699 67.072 102.755 68.672L100.483 65.92C105.091 62.944 107.555 58.432 107.555 52.768V48.416H111.427V52.576C111.427 58.208 113.699 62.464 118.019 65.248ZM153.578 57.216H149.514V66.656H145.738V46.016H149.514V54.144H153.578V57.216ZM141.546 48.192C141.514 56.416 135.626 61.696 128.682 63.456L126.826 60.48C131.594 59.648 136.586 56.288 137.514 51.296H128.266V48.192H141.546ZM150.218 73.696H131.178V64.512H134.954V70.72H150.218V73.696Z" fill="#434343"/>
<path d="M22.028 296.544V289.488L20.564 289.812V289.2L22.508 288.3H23.084V296.544H22.028ZM33.1663 292.692H32.0982V287.352H33.1663V292.692ZM33.5382 297.768H26.3502V295.068H32.0982V294.096H26.3142V293.232H33.1663V295.86H27.4062V296.892H33.5382V297.768ZM27.5382 287.7C29.0382 287.7 30.2142 288.672 30.2142 290.088C30.2142 291.492 29.0382 292.416 27.5382 292.416C26.0622 292.416 24.8502 291.528 24.8502 290.1C24.8502 288.696 26.0262 287.7 27.5382 287.7ZM27.5382 288.612C26.6262 288.612 25.8942 289.224 25.8942 290.088C25.8942 290.94 26.6022 291.528 27.5382 291.528C28.5223 291.528 29.1703 290.904 29.1703 290.088C29.1703 289.224 28.5343 288.612 27.5382 288.612Z" fill="#4B4B4B"/>
<path d="M112.028 296.544V289.488L110.564 289.812V289.2L112.508 288.3H113.084V296.544H112.028ZM117.91 296.64C116.218 296.64 114.91 295.512 114.91 292.764V292.128C114.91 289.272 116.314 288.288 117.922 288.288C119.518 288.288 120.85 289.272 120.85 292.08V292.776C120.85 295.536 119.554 296.64 117.91 296.64ZM117.91 295.776C119.11 295.776 119.758 294.96 119.758 292.908V292.08C119.758 290.064 119.122 289.152 117.922 289.152C116.698 289.152 116.038 290.016 116.038 291.996V292.848C116.038 294.828 116.674 295.776 117.91 295.776ZM130.46 292.692H129.392V287.352H130.46V292.692ZM130.832 297.768H123.644V295.068H129.392V294.096H123.608V293.232H130.46V295.86H124.7V296.892H130.832V297.768ZM124.832 287.7C126.332 287.7 127.508 288.672 127.508 290.088C127.508 291.492 126.332 292.416 124.832 292.416C123.356 292.416 122.144 291.528 122.144 290.1C122.144 288.696 123.32 287.7 124.832 287.7ZM124.832 288.612C123.92 288.612 123.188 289.224 123.188 290.088C123.188 290.94 123.896 291.528 124.832 291.528C125.816 291.528 126.464 290.904 126.464 290.088C126.464 289.224 125.828 288.612 124.832 288.612Z" fill="#4B4B4B"/>
<path d="M157.028 296.544V289.488L155.564 289.812V289.2L157.508 288.3H158.084V296.544H157.028ZM161.746 296.64C160.81 296.64 159.958 296.376 159.466 296.04L159.67 295.2C160.114 295.488 160.87 295.764 161.518 295.764C162.766 295.764 163.51 295.068 163.51 293.952C163.51 292.764 162.79 292.296 161.566 292.296C161.014 292.296 160.258 292.524 159.886 292.692L160.174 288.42H164.29V289.296H161.014L160.858 291.648C161.17 291.564 161.638 291.48 161.986 291.48C163.606 291.48 164.602 292.272 164.602 293.976C164.602 295.428 163.522 296.64 161.746 296.64ZM173.89 292.692H172.822V287.352H173.89V292.692ZM174.262 297.768H167.074V295.068H172.822V294.096H167.038V293.232H173.89V295.86H168.13V296.892H174.262V297.768ZM168.262 287.7C169.762 287.7 170.938 288.672 170.938 290.088C170.938 291.492 169.762 292.416 168.262 292.416C166.786 292.416 165.574 291.528 165.574 290.1C165.574 288.696 166.75 287.7 168.262 287.7ZM168.262 288.612C167.35 288.612 166.618 289.224 166.618 290.088C166.618 290.94 167.326 291.528 168.262 291.528C169.246 291.528 169.894 290.904 169.894 290.088C169.894 289.224 169.258 288.612 168.262 288.612Z" fill="#4B4B4B"/>
<path d="M67.64 296.64C66.704 296.64 65.852 296.376 65.36 296.04L65.564 295.2C66.008 295.488 66.764 295.764 67.412 295.764C68.66 295.764 69.404 295.068 69.404 293.952C69.404 292.764 68.684 292.296 67.46 292.296C66.908 292.296 66.152 292.524 65.78 292.692L66.068 288.42H70.184V289.296H66.908L66.752 291.648C67.064 291.564 67.532 291.48 67.88 291.48C69.5 291.48 70.496 292.272 70.496 293.976C70.496 295.428 69.416 296.64 67.64 296.64ZM79.7834 292.692H78.7154V287.352H79.7834V292.692ZM80.1554 297.768H72.9674V295.068H78.7154V294.096H72.9314V293.232H79.7834V295.86H74.0234V296.892H80.1554V297.768ZM74.1554 287.7C75.6554 287.7 76.8314 288.672 76.8314 290.088C76.8314 291.492 75.6554 292.416 74.1554 292.416C72.6794 292.416 71.4674 291.528 71.4674 290.1C71.4674 288.696 72.6434 287.7 74.1554 287.7ZM74.1554 288.612C73.2434 288.612 72.5114 289.224 72.5114 290.088C72.5114 290.94 73.2194 291.528 74.1554 291.528C75.1394 291.528 75.7874 290.904 75.7874 290.088C75.7874 289.224 75.1514 288.612 74.1554 288.612Z" fill="#4B4B4B"/>
<path d="M200.72 296.496V295.872L202.568 293.952C203.708 292.764 204.5 291.852 204.5 290.724C204.5 289.68 203.996 289.176 202.868 289.176C202.196 289.176 201.548 289.5 201.08 289.812L200.828 288.996C201.332 288.66 202.16 288.276 203.072 288.276C204.728 288.276 205.616 289.176 205.616 290.616C205.616 292.032 204.692 293.064 203.372 294.396L202.172 295.608H205.772V296.496H200.72ZM209.844 296.64C208.152 296.64 206.844 295.512 206.844 292.764V292.128C206.844 289.272 208.248 288.288 209.856 288.288C211.452 288.288 212.784 289.272 212.784 292.08V292.776C212.784 295.536 211.488 296.64 209.844 296.64ZM209.844 295.776C211.044 295.776 211.692 294.96 211.692 292.908V292.08C211.692 290.064 211.056 289.152 209.856 289.152C208.632 289.152 207.972 290.016 207.972 291.996V292.848C207.972 294.828 208.608 295.776 209.844 295.776ZM222.394 292.692H221.326V287.352H222.394V292.692ZM222.766 297.768H215.578V295.068H221.326V294.096H215.542V293.232H222.394V295.86H216.634V296.892H222.766V297.768ZM216.766 287.7C218.266 287.7 219.442 288.672 219.442 290.088C219.442 291.492 218.266 292.416 216.766 292.416C215.29 292.416 214.078 291.528 214.078 290.1C214.078 288.696 215.254 287.7 216.766 287.7ZM216.766 288.612C215.854 288.612 215.122 289.224 215.122 290.088C215.122 290.94 215.83 291.528 216.766 291.528C217.75 291.528 218.398 290.904 218.398 290.088C218.398 289.224 217.762 288.612 216.766 288.612Z" fill="#4B4B4B"/>
<path d="M245.72 296.496V295.872L247.568 293.952C248.708 292.764 249.5 291.852 249.5 290.724C249.5 289.68 248.996 289.176 247.868 289.176C247.196 289.176 246.548 289.5 246.08 289.812L245.828 288.996C246.332 288.66 247.16 288.276 248.072 288.276C249.728 288.276 250.616 289.176 250.616 290.616C250.616 292.032 249.692 293.064 248.372 294.396L247.172 295.608H250.772V296.496H245.72ZM253.738 296.64C252.802 296.64 251.95 296.376 251.458 296.04L251.662 295.2C252.106 295.488 252.862 295.764 253.51 295.764C254.758 295.764 255.502 295.068 255.502 293.952C255.502 292.764 254.782 292.296 253.558 292.296C253.006 292.296 252.25 292.524 251.878 292.692L252.166 288.42H256.282V289.296H253.006L252.85 291.648C253.162 291.564 253.63 291.48 253.978 291.48C255.598 291.48 256.594 292.272 256.594 293.976C256.594 295.428 255.514 296.64 253.738 296.64ZM265.882 292.692H264.814V287.352H265.882V292.692ZM266.254 297.768H259.066V295.068H264.814V294.096H259.03V293.232H265.882V295.86H260.122V296.892H266.254V297.768ZM260.254 287.7C261.754 287.7 262.93 288.672 262.93 290.088C262.93 291.492 261.754 292.416 260.254 292.416C258.778 292.416 257.566 291.528 257.566 290.1C257.566 288.696 258.742 287.7 260.254 287.7ZM260.254 288.612C259.342 288.612 258.61 289.224 258.61 290.088C258.61 290.94 259.318 291.528 260.254 291.528C261.238 291.528 261.886 290.904 261.886 290.088C261.886 289.224 261.25 288.612 260.254 288.612Z" fill="#4B4B4B"/>
<path d="M292.808 296.616C291.86 296.616 291.044 296.352 290.588 296.04L290.804 295.224C291.248 295.524 292.064 295.752 292.664 295.752C293.948 295.752 294.668 295.188 294.668 294.192C294.668 293.196 293.912 292.728 292.724 292.728H291.944V291.852H292.652C293.672 291.84 294.368 291.336 294.368 290.472C294.368 289.512 293.744 289.176 292.784 289.176C292.136 289.176 291.512 289.452 291.02 289.728L290.864 288.888C291.356 288.576 292.292 288.288 293.012 288.288C294.476 288.288 295.46 289.02 295.46 290.304C295.46 291.276 294.848 291.876 293.936 292.188C294.98 292.38 295.748 292.968 295.748 294.216C295.748 295.644 294.608 296.616 292.808 296.616ZM299.938 296.64C298.246 296.64 296.938 295.512 296.938 292.764V292.128C296.938 289.272 298.342 288.288 299.95 288.288C301.546 288.288 302.878 289.272 302.878 292.08V292.776C302.878 295.536 301.582 296.64 299.938 296.64ZM299.938 295.776C301.138 295.776 301.786 294.96 301.786 292.908V292.08C301.786 290.064 301.15 289.152 299.95 289.152C298.726 289.152 298.066 290.016 298.066 291.996V292.848C298.066 294.828 298.702 295.776 299.938 295.776ZM312.487 292.692H311.419V287.352H312.487V292.692ZM312.859 297.768H305.671V295.068H311.419V294.096H305.635V293.232H312.487V295.86H306.727V296.892H312.859V297.768ZM306.859 287.7C308.359 287.7 309.535 288.672 309.535 290.088C309.535 291.492 308.359 292.416 306.859 292.416C305.383 292.416 304.171 291.528 304.171 290.1C304.171 288.696 305.347 287.7 306.859 287.7ZM306.859 288.612C305.947 288.612 305.215 289.224 305.215 290.088C305.215 290.94 305.923 291.528 306.859 291.528C307.843 291.528 308.491 290.904 308.491 290.088C308.491 289.224 307.855 288.612 306.859 288.612Z" fill="#4B4B4B"/>
<path d="M341.792 278.64C340.136 278.64 338.84 277.512 338.84 274.788V274.116C338.84 271.272 340.22 270.312 341.804 270.312C343.376 270.312 344.672 271.272 344.672 274.068V274.8C344.672 277.524 343.424 278.64 341.792 278.64ZM341.792 277.848C343.028 277.848 343.7 277.008 343.7 274.944V274.056C343.7 272.028 343.04 271.104 341.804 271.104C340.544 271.104 339.86 271.98 339.86 273.996V274.884C339.86 276.888 340.532 277.848 341.792 277.848Z" fill="#4B4B4B"/>
<path d="M341.444 127.652C339.728 127.652 338.636 126.764 338.636 125.444C338.636 124.388 339.548 123.656 340.436 123.308C339.572 122.972 338.864 122.36 338.864 121.328C338.864 120.164 339.86 119.3 341.408 119.3C342.92 119.3 343.94 120.032 343.94 121.28C343.94 122.252 343.136 122.816 342.308 123.248C343.304 123.572 344.264 124.148 344.264 125.36C344.264 126.644 343.184 127.652 341.444 127.652ZM341.432 126.86C342.464 126.86 343.244 126.284 343.244 125.456C343.244 124.472 342.584 124.112 341.192 123.668C340.4 123.944 339.596 124.52 339.596 125.408C339.596 126.296 340.364 126.86 341.432 126.86ZM341.6 122.9C342.356 122.564 342.944 122.084 342.944 121.316C342.944 120.608 342.416 120.092 341.42 120.092C340.496 120.092 339.884 120.536 339.884 121.304C339.884 122.132 340.532 122.624 341.6 122.9Z" fill="#4B4B4B"/>
<path d="M340.616 178.64C339.68 178.64 338.84 178.376 338.36 178.028L338.54 177.26C338.984 177.56 339.776 177.836 340.436 177.836C341.708 177.836 342.452 177.116 342.452 175.976C342.452 174.752 341.732 174.26 340.472 174.26C339.92 174.26 339.164 174.488 338.792 174.656L339.08 170.432H343.16V171.248H339.848L339.68 173.696C340.004 173.612 340.496 173.528 340.832 173.528C342.452 173.528 343.448 174.296 343.448 175.988C343.448 177.428 342.392 178.64 340.616 178.64Z" fill="#4B4B4B"/>
<path d="M340.796 229.616C339.86 229.616 339.056 229.352 338.612 229.04L338.816 228.284C339.272 228.584 340.076 228.812 340.676 228.812C342.008 228.812 342.752 228.224 342.752 227.228C342.752 226.196 341.96 225.704 340.736 225.704H339.956V224.888H340.676C341.72 224.888 342.428 224.36 342.428 223.46C342.428 222.476 341.792 222.128 340.808 222.128C340.148 222.128 339.524 222.416 339.02 222.704L338.876 221.936C339.356 221.612 340.304 221.312 341 221.312C342.44 221.312 343.424 222.044 343.424 223.304C343.424 224.3 342.8 224.888 341.888 225.188C342.932 225.392 343.724 225.98 343.724 227.228C343.724 228.632 342.584 229.616 340.796 229.616Z" fill="#4B4B4B"/>
<line x1="20.5" y1="124" x2="20.5" y2="297" stroke="#D9D9D9" stroke-dasharray="2 2"/>
<line x1="65.5" y1="124" x2="65.5" y2="297" stroke="#D9D9D9" stroke-dasharray="2 2"/>
<line x1="110.5" y1="124" x2="110.5" y2="297" stroke="#D9D9D9" stroke-dasharray="2 2"/>
<line x1="155.5" y1="124" x2="155.5" y2="297" stroke="#D9D9D9" stroke-dasharray="2 2"/>
<line x1="200.5" y1="124" x2="200.5" y2="297" stroke="#D9D9D9" stroke-dasharray="2 2"/>
<line x1="245.5" y1="124" x2="245.5" y2="297" stroke="#D9D9D9" stroke-dasharray="2 2"/>
<line x1="290.5" y1="124" x2="290.5" y2="297" stroke="#D9D9D9" stroke-dasharray="2 2"/>
<line x1="333.5" y1="124" x2="333.5" y2="282" stroke="#D9D9D9"/>
<line x1="20" y1="226.576" x2="333" y2="226.576" stroke="#D9D9D9"/>
<line x1="20" y1="281.5" x2="333" y2="281.5" stroke="#D9D9D9"/>
<line x1="20" y1="173.962" x2="333" y2="173.962" stroke="#D9D9D9"/>
<rect x="21" y="227" width="6" height="54" rx="3" fill="#FFD643"/>
<rect x="66" y="174" width="6" height="107" rx="3" fill="#FFD643"/>
<rect x="111" y="227" width="6" height="54" rx="3" fill="#FFD643"/>
<rect x="156" y="242" width="6" height="39" rx="3" fill="#FFD643"/>
<rect x="201" y="174" width="6" height="107" rx="3" fill="#FFD643"/>
<rect x="246" y="206" width="6" height="75" rx="3" fill="#FFD643"/>
<rect x="291" y="261" width="6" height="20" rx="3" fill="#FFD643"/>
<rect x="32" y="206" width="6" height="75" rx="3" fill="#FFD643"/>
<rect x="77" y="189" width="6" height="92" rx="3" fill="#FFD643"/>
<rect x="122" y="242" width="6" height="39" rx="3" fill="#FFD643"/>
<rect x="167" y="174" width="6" height="107" rx="3" fill="#FFD643"/>
<rect x="212" y="261" width="6" height="20" rx="3" fill="#FFD643"/>
<rect x="257" y="206" width="6" height="75" rx="3" fill="#FFD643"/>
<rect x="302" y="227" width="6" height="54" rx="3" fill="#FFD643"/>
<rect x="43" y="261" width="6" height="20" rx="3" fill="#FFD643"/>
<rect x="88" y="261" width="6" height="20" rx="3" fill="#FFD643"/>
<rect x="133" y="158" width="6" height="123" rx="3" fill="#FFD643"/>
<rect x="178" y="227" width="6" height="54" rx="3" fill="#FFD643"/>
<rect x="223" y="242" width="6" height="39" rx="3" fill="#FFD643"/>
<rect x="268" y="227" width="6" height="54" rx="3" fill="#FFD643"/>
<rect x="313" y="206" width="6" height="75" rx="3" fill="#FFD643"/>
<rect x="54" y="206" width="6" height="75" rx="3" fill="#FFD643"/>
<rect x="99" y="242" width="6" height="39" rx="3" fill="#FFD643"/>
<rect x="144" y="227" width="6" height="54" rx="3" fill="#FFD643"/>
<rect x="189" y="261" width="6" height="20" rx="3" fill="#FFD643"/>
<rect x="234" y="227" width="6" height="54" rx="3" fill="#FFD643"/>
<rect x="279" y="242" width="6" height="39" rx="3" fill="#FFD643"/>
<rect x="324" y="141" width="6" height="140" rx="3" fill="#FFD643"/>
<path d="M22.028 296.544V289.488L20.564 289.812V289.2L22.508 288.3H23.084V296.544H22.028ZM33.1663 292.692H32.0982V287.352H33.1663V292.692ZM33.5382 297.768H26.3502V295.068H32.0982V294.096H26.3142V293.232H33.1663V295.86H27.4062V296.892H33.5382V297.768ZM27.5382 287.7C29.0382 287.7 30.2142 288.672 30.2142 290.088C30.2142 291.492 29.0382 292.416 27.5382 292.416C26.0622 292.416 24.8502 291.528 24.8502 290.1C24.8502 288.696 26.0262 287.7 27.5382 287.7ZM27.5382 288.612C26.6262 288.612 25.8942 289.224 25.8942 290.088C25.8942 290.94 26.6022 291.528 27.5382 291.528C28.5223 291.528 29.1703 290.904 29.1703 290.088C29.1703 289.224 28.5343 288.612 27.5382 288.612Z" fill="#4B4B4B"/>
<path d="M112.028 296.544V289.488L110.564 289.812V289.2L112.508 288.3H113.084V296.544H112.028ZM117.91 296.64C116.218 296.64 114.91 295.512 114.91 292.764V292.128C114.91 289.272 116.314 288.288 117.922 288.288C119.518 288.288 120.85 289.272 120.85 292.08V292.776C120.85 295.536 119.554 296.64 117.91 296.64ZM117.91 295.776C119.11 295.776 119.758 294.96 119.758 292.908V292.08C119.758 290.064 119.122 289.152 117.922 289.152C116.698 289.152 116.038 290.016 116.038 291.996V292.848C116.038 294.828 116.674 295.776 117.91 295.776ZM130.46 292.692H129.392V287.352H130.46V292.692ZM130.832 297.768H123.644V295.068H129.392V294.096H123.608V293.232H130.46V295.86H124.7V296.892H130.832V297.768ZM124.832 287.7C126.332 287.7 127.508 288.672 127.508 290.088C127.508 291.492 126.332 292.416 124.832 292.416C123.356 292.416 122.144 291.528 122.144 290.1C122.144 288.696 123.32 287.7 124.832 287.7ZM124.832 288.612C123.92 288.612 123.188 289.224 123.188 290.088C123.188 290.94 123.896 291.528 124.832 291.528C125.816 291.528 126.464 290.904 126.464 290.088C126.464 289.224 125.828 288.612 124.832 288.612Z" fill="#4B4B4B"/>
<path d="M157.028 296.544V289.488L155.564 289.812V289.2L157.508 288.3H158.084V296.544H157.028ZM161.746 296.64C160.81 296.64 159.958 296.376 159.466 296.04L159.67 295.2C160.114 295.488 160.87 295.764 161.518 295.764C162.766 295.764 163.51 295.068 163.51 293.952C163.51 292.764 162.79 292.296 161.566 292.296C161.014 292.296 160.258 292.524 159.886 292.692L160.174 288.42H164.29V289.296H161.014L160.858 291.648C161.17 291.564 161.638 291.48 161.986 291.48C163.606 291.48 164.602 292.272 164.602 293.976C164.602 295.428 163.522 296.64 161.746 296.64ZM173.89 292.692H172.822V287.352H173.89V292.692ZM174.262 297.768H167.074V295.068H172.822V294.096H167.038V293.232H173.89V295.86H168.13V296.892H174.262V297.768ZM168.262 287.7C169.762 287.7 170.938 288.672 170.938 290.088C170.938 291.492 169.762 292.416 168.262 292.416C166.786 292.416 165.574 291.528 165.574 290.1C165.574 288.696 166.75 287.7 168.262 287.7ZM168.262 288.612C167.35 288.612 166.618 289.224 166.618 290.088C166.618 290.94 167.326 291.528 168.262 291.528C169.246 291.528 169.894 290.904 169.894 290.088C169.894 289.224 169.258 288.612 168.262 288.612Z" fill="#4B4B4B"/>
<path d="M67.64 296.64C66.704 296.64 65.852 296.376 65.36 296.04L65.564 295.2C66.008 295.488 66.764 295.764 67.412 295.764C68.66 295.764 69.404 295.068 69.404 293.952C69.404 292.764 68.684 292.296 67.46 292.296C66.908 292.296 66.152 292.524 65.78 292.692L66.068 288.42H70.184V289.296H66.908L66.752 291.648C67.064 291.564 67.532 291.48 67.88 291.48C69.5 291.48 70.496 292.272 70.496 293.976C70.496 295.428 69.416 296.64 67.64 296.64ZM79.7834 292.692H78.7154V287.352H79.7834V292.692ZM80.1554 297.768H72.9674V295.068H78.7154V294.096H72.9314V293.232H79.7834V295.86H74.0234V296.892H80.1554V297.768ZM74.1554 287.7C75.6554 287.7 76.8314 288.672 76.8314 290.088C76.8314 291.492 75.6554 292.416 74.1554 292.416C72.6794 292.416 71.4674 291.528 71.4674 290.1C71.4674 288.696 72.6434 287.7 74.1554 287.7ZM74.1554 288.612C73.2434 288.612 72.5114 289.224 72.5114 290.088C72.5114 290.94 73.2194 291.528 74.1554 291.528C75.1394 291.528 75.7874 290.904 75.7874 290.088C75.7874 289.224 75.1514 288.612 74.1554 288.612Z" fill="#4B4B4B"/>
<path d="M200.72 296.496V295.872L202.568 293.952C203.708 292.764 204.5 291.852 204.5 290.724C204.5 289.68 203.996 289.176 202.868 289.176C202.196 289.176 201.548 289.5 201.08 289.812L200.828 288.996C201.332 288.66 202.16 288.276 203.072 288.276C204.728 288.276 205.616 289.176 205.616 290.616C205.616 292.032 204.692 293.064 203.372 294.396L202.172 295.608H205.772V296.496H200.72ZM209.844 296.64C208.152 296.64 206.844 295.512 206.844 292.764V292.128C206.844 289.272 208.248 288.288 209.856 288.288C211.452 288.288 212.784 289.272 212.784 292.08V292.776C212.784 295.536 211.488 296.64 209.844 296.64ZM209.844 295.776C211.044 295.776 211.692 294.96 211.692 292.908V292.08C211.692 290.064 211.056 289.152 209.856 289.152C208.632 289.152 207.972 290.016 207.972 291.996V292.848C207.972 294.828 208.608 295.776 209.844 295.776ZM222.394 292.692H221.326V287.352H222.394V292.692ZM222.766 297.768H215.578V295.068H221.326V294.096H215.542V293.232H222.394V295.86H216.634V296.892H222.766V297.768ZM216.766 287.7C218.266 287.7 219.442 288.672 219.442 290.088C219.442 291.492 218.266 292.416 216.766 292.416C215.29 292.416 214.078 291.528 214.078 290.1C214.078 288.696 215.254 287.7 216.766 287.7ZM216.766 288.612C215.854 288.612 215.122 289.224 215.122 290.088C215.122 290.94 215.83 291.528 216.766 291.528C217.75 291.528 218.398 290.904 218.398 290.088C218.398 289.224 217.762 288.612 216.766 288.612Z" fill="#4B4B4B"/>
<path d="M245.72 296.496V295.872L247.568 293.952C248.708 292.764 249.5 291.852 249.5 290.724C249.5 289.68 248.996 289.176 247.868 289.176C247.196 289.176 246.548 289.5 246.08 289.812L245.828 288.996C246.332 288.66 247.16 288.276 248.072 288.276C249.728 288.276 250.616 289.176 250.616 290.616C250.616 292.032 249.692 293.064 248.372 294.396L247.172 295.608H250.772V296.496H245.72ZM253.738 296.64C252.802 296.64 251.95 296.376 251.458 296.04L251.662 295.2C252.106 295.488 252.862 295.764 253.51 295.764C254.758 295.764 255.502 295.068 255.502 293.952C255.502 292.764 254.782 292.296 253.558 292.296C253.006 292.296 252.25 292.524 251.878 292.692L252.166 288.42H256.282V289.296H253.006L252.85 291.648C253.162 291.564 253.63 291.48 253.978 291.48C255.598 291.48 256.594 292.272 256.594 293.976C256.594 295.428 255.514 296.64 253.738 296.64ZM265.882 292.692H264.814V287.352H265.882V292.692ZM266.254 297.768H259.066V295.068H264.814V294.096H259.03V293.232H265.882V295.86H260.122V296.892H266.254V297.768ZM260.254 287.7C261.754 287.7 262.93 288.672 262.93 290.088C262.93 291.492 261.754 292.416 260.254 292.416C258.778 292.416 257.566 291.528 257.566 290.1C257.566 288.696 258.742 287.7 260.254 287.7ZM260.254 288.612C259.342 288.612 258.61 289.224 258.61 290.088C258.61 290.94 259.318 291.528 260.254 291.528C261.238 291.528 261.886 290.904 261.886 290.088C261.886 289.224 261.25 288.612 260.254 288.612Z" fill="#4B4B4B"/>
<path d="M292.808 296.616C291.86 296.616 291.044 296.352 290.588 296.04L290.804 295.224C291.248 295.524 292.064 295.752 292.664 295.752C293.948 295.752 294.668 295.188 294.668 294.192C294.668 293.196 293.912 292.728 292.724 292.728H291.944V291.852H292.652C293.672 291.84 294.368 291.336 294.368 290.472C294.368 289.512 293.744 289.176 292.784 289.176C292.136 289.176 291.512 289.452 291.02 289.728L290.864 288.888C291.356 288.576 292.292 288.288 293.012 288.288C294.476 288.288 295.46 289.02 295.46 290.304C295.46 291.276 294.848 291.876 293.936 292.188C294.98 292.38 295.748 292.968 295.748 294.216C295.748 295.644 294.608 296.616 292.808 296.616ZM299.938 296.64C298.246 296.64 296.938 295.512 296.938 292.764V292.128C296.938 289.272 298.342 288.288 299.95 288.288C301.546 288.288 302.878 289.272 302.878 292.08V292.776C302.878 295.536 301.582 296.64 299.938 296.64ZM299.938 295.776C301.138 295.776 301.786 294.96 301.786 292.908V292.08C301.786 290.064 301.15 289.152 299.95 289.152C298.726 289.152 298.066 290.016 298.066 291.996V292.848C298.066 294.828 298.702 295.776 299.938 295.776ZM312.487 292.692H311.419V287.352H312.487V292.692ZM312.859 297.768H305.671V295.068H311.419V294.096H305.635V293.232H312.487V295.86H306.727V296.892H312.859V297.768ZM306.859 287.7C308.359 287.7 309.535 288.672 309.535 290.088C309.535 291.492 308.359 292.416 306.859 292.416C305.383 292.416 304.171 291.528 304.171 290.1C304.171 288.696 305.347 287.7 306.859 287.7ZM306.859 288.612C305.947 288.612 305.215 289.224 305.215 290.088C305.215 290.94 305.923 291.528 306.859 291.528C307.843 291.528 308.491 290.904 308.491 290.088C308.491 289.224 307.855 288.612 306.859 288.612Z" fill="#4B4B4B"/>
<path d="M341.792 278.64C340.136 278.64 338.84 277.512 338.84 274.788V274.116C338.84 271.272 340.22 270.312 341.804 270.312C343.376 270.312 344.672 271.272 344.672 274.068V274.8C344.672 277.524 343.424 278.64 341.792 278.64ZM341.792 277.848C343.028 277.848 343.7 277.008 343.7 274.944V274.056C343.7 272.028 343.04 271.104 341.804 271.104C340.544 271.104 339.86 271.98 339.86 273.996V274.884C339.86 276.888 340.532 277.848 341.792 277.848Z" fill="#4B4B4B"/>
<path d="M341.444 127.652C339.728 127.652 338.636 126.764 338.636 125.444C338.636 124.388 339.548 123.656 340.436 123.308C339.572 122.972 338.864 122.36 338.864 121.328C338.864 120.164 339.86 119.3 341.408 119.3C342.92 119.3 343.94 120.032 343.94 121.28C343.94 122.252 343.136 122.816 342.308 123.248C343.304 123.572 344.264 124.148 344.264 125.36C344.264 126.644 343.184 127.652 341.444 127.652ZM341.432 126.86C342.464 126.86 343.244 126.284 343.244 125.456C343.244 124.472 342.584 124.112 341.192 123.668C340.4 123.944 339.596 124.52 339.596 125.408C339.596 126.296 340.364 126.86 341.432 126.86ZM341.6 122.9C342.356 122.564 342.944 122.084 342.944 121.316C342.944 120.608 342.416 120.092 341.42 120.092C340.496 120.092 339.884 120.536 339.884 121.304C339.884 122.132 340.532 122.624 341.6 122.9Z" fill="#4B4B4B"/>
<path d="M340.616 178.64C339.68 178.64 338.84 178.376 338.36 178.028L338.54 177.26C338.984 177.56 339.776 177.836 340.436 177.836C341.708 177.836 342.452 177.116 342.452 175.976C342.452 174.752 341.732 174.26 340.472 174.26C339.92 174.26 339.164 174.488 338.792 174.656L339.08 170.432H343.16V171.248H339.848L339.68 173.696C340.004 173.612 340.496 173.528 340.832 173.528C342.452 173.528 343.448 174.296 343.448 175.988C343.448 177.428 342.392 178.64 340.616 178.64Z" fill="#4B4B4B"/>
<path d="M340.796 229.616C339.86 229.616 339.056 229.352 338.612 229.04L338.816 228.284C339.272 228.584 340.076 228.812 340.676 228.812C342.008 228.812 342.752 228.224 342.752 227.228C342.752 226.196 341.96 225.704 340.736 225.704H339.956V224.888H340.676C341.72 224.888 342.428 224.36 342.428 223.46C342.428 222.476 341.792 222.128 340.808 222.128C340.148 222.128 339.524 222.416 339.02 222.704L338.876 221.936C339.356 221.612 340.304 221.312 341 221.312C342.44 221.312 343.424 222.044 343.424 223.304C343.424 224.3 342.8 224.888 341.888 225.188C342.932 225.392 343.724 225.98 343.724 227.228C343.724 228.632 342.584 229.616 340.796 229.616Z" fill="#4B4B4B"/>
<line x1="20.5" y1="124" x2="20.5" y2="297" stroke="#D9D9D9" stroke-dasharray="2 2"/>
<line x1="65.5" y1="124" x2="65.5" y2="297" stroke="#D9D9D9" stroke-dasharray="2 2"/>
<line x1="110.5" y1="124" x2="110.5" y2="297" stroke="#D9D9D9" stroke-dasharray="2 2"/>
<line x1="155.5" y1="124" x2="155.5" y2="297" stroke="#D9D9D9" stroke-dasharray="2 2"/>
<line x1="200.5" y1="124" x2="200.5" y2="297" stroke="#D9D9D9" stroke-dasharray="2 2"/>
<line x1="245.5" y1="124" x2="245.5" y2="297" stroke="#D9D9D9" stroke-dasharray="2 2"/>
<line x1="290.5" y1="124" x2="290.5" y2="297" stroke="#D9D9D9" stroke-dasharray="2 2"/>
<line x1="333.5" y1="124" x2="333.5" y2="282" stroke="#D9D9D9"/>
<line x1="20" y1="226.576" x2="333" y2="226.576" stroke="#D9D9D9"/>
<line x1="20" y1="281.5" x2="333" y2="281.5" stroke="#D9D9D9"/>
<line x1="20" y1="173.962" x2="333" y2="173.962" stroke="#D9D9D9"/>
<rect x="21" y="227" width="6" height="54" rx="3" fill="#C5D9A0"/>
<rect x="66" y="174" width="6" height="107" rx="3" fill="#C5D9A0"/>
<rect x="111" y="227" width="6" height="54" rx="3" fill="#C5D9A0"/>
<rect x="156" y="242" width="6" height="39" rx="3" fill="#C5D9A0"/>
<rect x="201" y="174" width="6" height="107" rx="3" fill="#C5D9A0"/>
<rect x="246" y="206" width="6" height="75" rx="3" fill="#C5D9A0"/>
<rect x="291" y="261" width="6" height="20" rx="3" fill="#C5D9A0"/>
<rect x="32" y="206" width="6" height="75" rx="3" fill="#C5D9A0"/>
<rect x="77" y="189" width="6" height="92" rx="3" fill="#C5D9A0"/>
<rect x="122" y="242" width="6" height="39" rx="3" fill="#C5D9A0"/>
<rect x="167" y="174" width="6" height="107" rx="3" fill="#C5D9A0"/>
<rect x="212" y="261" width="6" height="20" rx="3" fill="#C5D9A0"/>
<rect x="257" y="206" width="6" height="75" rx="3" fill="#C5D9A0"/>
<rect x="302" y="227" width="6" height="54" rx="3" fill="#C5D9A0"/>
<rect x="43" y="261" width="6" height="20" rx="3" fill="#C5D9A0"/>
<rect x="88" y="261" width="6" height="20" rx="3" fill="#C5D9A0"/>
<rect x="133" y="158" width="6" height="123" rx="3" fill="#C5D9A0"/>
<rect x="178" y="227" width="6" height="54" rx="3" fill="#C5D9A0"/>
<rect x="223" y="242" width="6" height="39" rx="3" fill="#C5D9A0"/>
<rect x="268" y="227" width="6" height="54" rx="3" fill="#C5D9A0"/>
<rect x="313" y="206" width="6" height="75" rx="3" fill="#C5D9A0"/>
<rect x="54" y="206" width="6" height="75" rx="3" fill="#C5D9A0"/>
<rect x="99" y="242" width="6" height="39" rx="3" fill="#C5D9A0"/>
<rect x="144" y="227" width="6" height="54" rx="3" fill="#C5D9A0"/>
<rect x="189" y="261" width="6" height="20" rx="3" fill="#C5D9A0"/>
<rect x="234" y="227" width="6" height="54" rx="3" fill="#C5D9A0"/>
<rect x="279" y="242" width="6" height="39" rx="3" fill="#C5D9A0"/>
<rect x="324" y="141" width="6" height="140" rx="3" fill="#C5D9A0"/>
<path d="M22.028 296.544V289.488L20.564 289.812V289.2L22.508 288.3H23.084V296.544H22.028ZM33.1663 292.692H32.0982V287.352H33.1663V292.692ZM33.5382 297.768H26.3502V295.068H32.0982V294.096H26.3142V293.232H33.1663V295.86H27.4062V296.892H33.5382V297.768ZM27.5382 287.7C29.0382 287.7 30.2142 288.672 30.2142 290.088C30.2142 291.492 29.0382 292.416 27.5382 292.416C26.0622 292.416 24.8502 291.528 24.8502 290.1C24.8502 288.696 26.0262 287.7 27.5382 287.7ZM27.5382 288.612C26.6262 288.612 25.8942 289.224 25.8942 290.088C25.8942 290.94 26.6022 291.528 27.5382 291.528C28.5223 291.528 29.1703 290.904 29.1703 290.088C29.1703 289.224 28.5343 288.612 27.5382 288.612Z" fill="#4B4B4B"/>
<path d="M112.028 296.544V289.488L110.564 289.812V289.2L112.508 288.3H113.084V296.544H112.028ZM117.91 296.64C116.218 296.64 114.91 295.512 114.91 292.764V292.128C114.91 289.272 116.314 288.288 117.922 288.288C119.518 288.288 120.85 289.272 120.85 292.08V292.776C120.85 295.536 119.554 296.64 117.91 296.64ZM117.91 295.776C119.11 295.776 119.758 294.96 119.758 292.908V292.08C119.758 290.064 119.122 289.152 117.922 289.152C116.698 289.152 116.038 290.016 116.038 291.996V292.848C116.038 294.828 116.674 295.776 117.91 295.776ZM130.46 292.692H129.392V287.352H130.46V292.692ZM130.832 297.768H123.644V295.068H129.392V294.096H123.608V293.232H130.46V295.86H124.7V296.892H130.832V297.768ZM124.832 287.7C126.332 287.7 127.508 288.672 127.508 290.088C127.508 291.492 126.332 292.416 124.832 292.416C123.356 292.416 122.144 291.528 122.144 290.1C122.144 288.696 123.32 287.7 124.832 287.7ZM124.832 288.612C123.92 288.612 123.188 289.224 123.188 290.088C123.188 290.94 123.896 291.528 124.832 291.528C125.816 291.528 126.464 290.904 126.464 290.088C126.464 289.224 125.828 288.612 124.832 288.612Z" fill="#4B4B4B"/>
<path d="M157.028 296.544V289.488L155.564 289.812V289.2L157.508 288.3H158.084V296.544H157.028ZM161.746 296.64C160.81 296.64 159.958 296.376 159.466 296.04L159.67 295.2C160.114 295.488 160.87 295.764 161.518 295.764C162.766 295.764 163.51 295.068 163.51 293.952C163.51 292.764 162.79 292.296 161.566 292.296C161.014 292.296 160.258 292.524 159.886 292.692L160.174 288.42H164.29V289.296H161.014L160.858 291.648C161.17 291.564 161.638 291.48 161.986 291.48C163.606 291.48 164.602 292.272 164.602 293.976C164.602 295.428 163.522 296.64 161.746 296.64ZM173.89 292.692H172.822V287.352H173.89V292.692ZM174.262 297.768H167.074V295.068H172.822V294.096H167.038V293.232H173.89V295.86H168.13V296.892H174.262V297.768ZM168.262 287.7C169.762 287.7 170.938 288.672 170.938 290.088C170.938 291.492 169.762 292.416 168.262 292.416C166.786 292.416 165.574 291.528 165.574 290.1C165.574 288.696 166.75 287.7 168.262 287.7ZM168.262 288.612C167.35 288.612 166.618 289.224 166.618 290.088C166.618 290.94 167.326 291.528 168.262 291.528C169.246 291.528 169.894 290.904 169.894 290.088C169.894 289.224 169.258 288.612 168.262 288.612Z" fill="#4B4B4B"/>
<path d="M67.64 296.64C66.704 296.64 65.852 296.376 65.36 296.04L65.564 295.2C66.008 295.488 66.764 295.764 67.412 295.764C68.66 295.764 69.404 295.068 69.404 293.952C69.404 292.764 68.684 292.296 67.46 292.296C66.908 292.296 66.152 292.524 65.78 292.692L66.068 288.42H70.184V289.296H66.908L66.752 291.648C67.064 291.564 67.532 291.48 67.88 291.48C69.5 291.48 70.496 292.272 70.496 293.976C70.496 295.428 69.416 296.64 67.64 296.64ZM79.7834 292.692H78.7154V287.352H79.7834V292.692ZM80.1554 297.768H72.9674V295.068H78.7154V294.096H72.9314V293.232H79.7834V295.86H74.0234V296.892H80.1554V297.768ZM74.1554 287.7C75.6554 287.7 76.8314 288.672 76.8314 290.088C76.8314 291.492 75.6554 292.416 74.1554 292.416C72.6794 292.416 71.4674 291.528 71.4674 290.1C71.4674 288.696 72.6434 287.7 74.1554 287.7ZM74.1554 288.612C73.2434 288.612 72.5114 289.224 72.5114 290.088C72.5114 290.94 73.2194 291.528 74.1554 291.528C75.1394 291.528 75.7874 290.904 75.7874 290.088C75.7874 289.224 75.1514 288.612 74.1554 288.612Z" fill="#4B4B4B"/>
<path d="M200.72 296.496V295.872L202.568 293.952C203.708 292.764 204.5 291.852 204.5 290.724C204.5 289.68 203.996 289.176 202.868 289.176C202.196 289.176 201.548 289.5 201.08 289.812L200.828 288.996C201.332 288.66 202.16 288.276 203.072 288.276C204.728 288.276 205.616 289.176 205.616 290.616C205.616 292.032 204.692 293.064 203.372 294.396L202.172 295.608H205.772V296.496H200.72ZM209.844 296.64C208.152 296.64 206.844 295.512 206.844 292.764V292.128C206.844 289.272 208.248 288.288 209.856 288.288C211.452 288.288 212.784 289.272 212.784 292.08V292.776C212.784 295.536 211.488 296.64 209.844 296.64ZM209.844 295.776C211.044 295.776 211.692 294.96 211.692 292.908V292.08C211.692 290.064 211.056 289.152 209.856 289.152C208.632 289.152 207.972 290.016 207.972 291.996V292.848C207.972 294.828 208.608 295.776 209.844 295.776ZM222.394 292.692H221.326V287.352H222.394V292.692ZM222.766 297.768H215.578V295.068H221.326V294.096H215.542V293.232H222.394V295.86H216.634V296.892H222.766V297.768ZM216.766 287.7C218.266 287.7 219.442 288.672 219.442 290.088C219.442 291.492 218.266 292.416 216.766 292.416C215.29 292.416 214.078 291.528 214.078 290.1C214.078 288.696 215.254 287.7 216.766 287.7ZM216.766 288.612C215.854 288.612 215.122 289.224 215.122 290.088C215.122 290.94 215.83 291.528 216.766 291.528C217.75 291.528 218.398 290.904 218.398 290.088C218.398 289.224 217.762 288.612 216.766 288.612Z" fill="#4B4B4B"/>
<path d="M245.72 296.496V295.872L247.568 293.952C248.708 292.764 249.5 291.852 249.5 290.724C249.5 289.68 248.996 289.176 247.868 289.176C247.196 289.176 246.548 289.5 246.08 289.812L245.828 288.996C246.332 288.66 247.16 288.276 248.072 288.276C249.728 288.276 250.616 289.176 250.616 290.616C250.616 292.032 249.692 293.064 248.372 294.396L247.172 295.608H250.772V296.496H245.72ZM253.738 296.64C252.802 296.64 251.95 296.376 251.458 296.04L251.662 295.2C252.106 295.488 252.862 295.764 253.51 295.764C254.758 295.764 255.502 295.068 255.502 293.952C255.502 292.764 254.782 292.296 253.558 292.296C253.006 292.296 252.25 292.524 251.878 292.692L252.166 288.42H256.282V289.296H253.006L252.85 291.648C253.162 291.564 253.63 291.48 253.978 291.48C255.598 291.48 256.594 292.272 256.594 293.976C256.594 295.428 255.514 296.64 253.738 296.64ZM265.882 292.692H264.814V287.352H265.882V292.692ZM266.254 297.768H259.066V295.068H264.814V294.096H259.03V293.232H265.882V295.86H260.122V296.892H266.254V297.768ZM260.254 287.7C261.754 287.7 262.93 288.672 262.93 290.088C262.93 291.492 261.754 292.416 260.254 292.416C258.778 292.416 257.566 291.528 257.566 290.1C257.566 288.696 258.742 287.7 260.254 287.7ZM260.254 288.612C259.342 288.612 258.61 289.224 258.61 290.088C258.61 290.94 259.318 291.528 260.254 291.528C261.238 291.528 261.886 290.904 261.886 290.088C261.886 289.224 261.25 288.612 260.254 288.612Z" fill="#4B4B4B"/>
<path d="M292.808 296.616C291.86 296.616 291.044 296.352 290.588 296.04L290.804 295.224C291.248 295.524 292.064 295.752 292.664 295.752C293.948 295.752 294.668 295.188 294.668 294.192C294.668 293.196 293.912 292.728 292.724 292.728H291.944V291.852H292.652C293.672 291.84 294.368 291.336 294.368 290.472C294.368 289.512 293.744 289.176 292.784 289.176C292.136 289.176 291.512 289.452 291.02 289.728L290.864 288.888C291.356 288.576 292.292 288.288 293.012 288.288C294.476 288.288 295.46 289.02 295.46 290.304C295.46 291.276 294.848 291.876 293.936 292.188C294.98 292.38 295.748 292.968 295.748 294.216C295.748 295.644 294.608 296.616 292.808 296.616ZM299.938 296.64C298.246 296.64 296.938 295.512 296.938 292.764V292.128C296.938 289.272 298.342 288.288 299.95 288.288C301.546 288.288 302.878 289.272 302.878 292.08V292.776C302.878 295.536 301.582 296.64 299.938 296.64ZM299.938 295.776C301.138 295.776 301.786 294.96 301.786 292.908V292.08C301.786 290.064 301.15 289.152 299.95 289.152C298.726 289.152 298.066 290.016 298.066 291.996V292.848C298.066 294.828 298.702 295.776 299.938 295.776ZM312.487 292.692H311.419V287.352H312.487V292.692ZM312.859 297.768H305.671V295.068H311.419V294.096H305.635V293.232H312.487V295.86H306.727V296.892H312.859V297.768ZM306.859 287.7C308.359 287.7 309.535 288.672 309.535 290.088C309.535 291.492 308.359 292.416 306.859 292.416C305.383 292.416 304.171 291.528 304.171 290.1C304.171 288.696 305.347 287.7 306.859 287.7ZM306.859 288.612C305.947 288.612 305.215 289.224 305.215 290.088C305.215 290.94 305.923 291.528 306.859 291.528C307.843 291.528 308.491 290.904 308.491 290.088C308.491 289.224 307.855 288.612 306.859 288.612Z" fill="#4B4B4B"/>
<path d="M341.792 278.64C340.136 278.64 338.84 277.512 338.84 274.788V274.116C338.84 271.272 340.22 270.312 341.804 270.312C343.376 270.312 344.672 271.272 344.672 274.068V274.8C344.672 277.524 343.424 278.64 341.792 278.64ZM341.792 277.848C343.028 277.848 343.7 277.008 343.7 274.944V274.056C343.7 272.028 343.04 271.104 341.804 271.104C340.544 271.104 339.86 271.98 339.86 273.996V274.884C339.86 276.888 340.532 277.848 341.792 277.848Z" fill="#4B4B4B"/>
<path d="M341.444 127.652C339.728 127.652 338.636 126.764 338.636 125.444C338.636 124.388 339.548 123.656 340.436 123.308C339.572 122.972 338.864 122.36 338.864 121.328C338.864 120.164 339.86 119.3 341.408 119.3C342.92 119.3 343.94 120.032 343.94 121.28C343.94 122.252 343.136 122.816 342.308 123.248C343.304 123.572 344.264 124.148 344.264 125.36C344.264 126.644 343.184 127.652 341.444 127.652ZM341.432 126.86C342.464 126.86 343.244 126.284 343.244 125.456C343.244 124.472 342.584 124.112 341.192 123.668C340.4 123.944 339.596 124.52 339.596 125.408C339.596 126.296 340.364 126.86 341.432 126.86ZM341.6 122.9C342.356 122.564 342.944 122.084 342.944 121.316C342.944 120.608 342.416 120.092 341.42 120.092C340.496 120.092 339.884 120.536 339.884 121.304C339.884 122.132 340.532 122.624 341.6 122.9Z" fill="#4B4B4B"/>
<path d="M340.616 178.64C339.68 178.64 338.84 178.376 338.36 178.028L338.54 177.26C338.984 177.56 339.776 177.836 340.436 177.836C341.708 177.836 342.452 177.116 342.452 175.976C342.452 174.752 341.732 174.26 340.472 174.26C339.92 174.26 339.164 174.488 338.792 174.656L339.08 170.432H343.16V171.248H339.848L339.68 173.696C340.004 173.612 340.496 173.528 340.832 173.528C342.452 173.528 343.448 174.296 343.448 175.988C343.448 177.428 342.392 178.64 340.616 178.64Z" fill="#4B4B4B"/>
<path d="M340.796 229.616C339.86 229.616 339.056 229.352 338.612 229.04L338.816 228.284C339.272 228.584 340.076 228.812 340.676 228.812C342.008 228.812 342.752 228.224 342.752 227.228C342.752 226.196 341.96 225.704 340.736 225.704H339.956V224.888H340.676C341.72 224.888 342.428 224.36 342.428 223.46C342.428 222.476 341.792 222.128 340.808 222.128C340.148 222.128 339.524 222.416 339.02 222.704L338.876 221.936C339.356 221.612 340.304 221.312 341 221.312C342.44 221.312 343.424 222.044 343.424 223.304C343.424 224.3 342.8 224.888 341.888 225.188C342.932 225.392 343.724 225.98 343.724 227.228C343.724 228.632 342.584 229.616 340.796 229.616Z" fill="#4B4B4B"/>
<line x1="20.5" y1="124" x2="20.5" y2="297" stroke="#D9D9D9" stroke-dasharray="2 2"/>
<line x1="65.5" y1="124" x2="65.5" y2="297" stroke="#D9D9D9" stroke-dasharray="2 2"/>
<line x1="110.5" y1="124" x2="110.5" y2="297" stroke="#D9D9D9" stroke-dasharray="2 2"/>
<line x1="155.5" y1="124" x2="155.5" y2="297" stroke="#D9D9D9" stroke-dasharray="2 2"/>
<line x1="200.5" y1="124" x2="200.5" y2="297" stroke="#D9D9D9" stroke-dasharray="2 2"/>
<line x1="245.5" y1="124" x2="245.5" y2="297" stroke="#D9D9D9" stroke-dasharray="2 2"/>
<line x1="290.5" y1="124" x2="290.5" y2="297" stroke="#D9D9D9" stroke-dasharray="2 2"/>
<line x1="333.5" y1="124" x2="333.5" y2="282" stroke="#D9D9D9"/>
<line x1="20" y1="226.576" x2="333" y2="226.576" stroke="#D9D9D9"/>
<line x1="20" y1="281.5" x2="333" y2="281.5" stroke="#D9D9D9"/>
<line x1="20" y1="173.962" x2="333" y2="173.962" stroke="#D9D9D9"/>
<rect x="21" y="227" width="6" height="54" rx="3" fill="#FBC3A9"/>
<rect x="66" y="174" width="6" height="107" rx="3" fill="#FBC3A9"/>
<rect x="111" y="227" width="6" height="54" rx="3" fill="#FBC3A9"/>
<rect x="156" y="242" width="6" height="39" rx="3" fill="#FBC3A9"/>
<rect x="201" y="174" width="6" height="107" rx="3" fill="#FBC3A9"/>
<rect x="246" y="206" width="6" height="75" rx="3" fill="#FBC3A9"/>
<rect x="291" y="261" width="6" height="20" rx="3" fill="#FBC3A9"/>
<rect x="32" y="206" width="6" height="75" rx="3" fill="#FBC3A9"/>
<rect x="77" y="189" width="6" height="92" rx="3" fill="#FBC3A9"/>
<rect x="122" y="242" width="6" height="39" rx="3" fill="#FBC3A9"/>
<rect x="167" y="174" width="6" height="107" rx="3" fill="#FBC3A9"/>
<rect x="212" y="261" width="6" height="20" rx="3" fill="#FBC3A9"/>
<rect x="257" y="206" width="6" height="75" rx="3" fill="#FBC3A9"/>
<rect x="302" y="227" width="6" height="54" rx="3" fill="#FBC3A9"/>
<rect x="43" y="261" width="6" height="20" rx="3" fill="#FBC3A9"/>
<rect x="88" y="261" width="6" height="20" rx="3" fill="#FBC3A9"/>
<rect x="133" y="158" width="6" height="123" rx="3" fill="#FBC3A9"/>
<rect x="178" y="227" width="6" height="54" rx="3" fill="#FBC3A9"/>
<rect x="223" y="242" width="6" height="39" rx="3" fill="#FBC3A9"/>
<rect x="268" y="227" width="6" height="54" rx="3" fill="#FBC3A9"/>
<rect x="313" y="206" width="6" height="75" rx="3" fill="#FBC3A9"/>
<rect x="54" y="206" width="6" height="75" rx="3" fill="#FBC3A9"/>
<rect x="99" y="242" width="6" height="39" rx="3" fill="#FBC3A9"/>
<rect x="144" y="227" width="6" height="54" rx="3" fill="#FBC3A9"/>
<rect x="189" y="261" width="6" height="20" rx="3" fill="#FBC3A9"/>
<rect x="234" y="227" width="6" height="54" rx="3" fill="#FBC3A9"/>
<rect x="279" y="242" width="6" height="39" rx="3" fill="#FBC3A9"/>
<rect x="324" y="141" width="6" height="140" rx="3" fill="#FBC3A9"/>
<path d="M22.028 296.544V289.488L20.564 289.812V289.2L22.508 288.3H23.084V296.544H22.028ZM33.1663 292.692H32.0982V287.352H33.1663V292.692ZM33.5382 297.768H26.3502V295.068H32.0982V294.096H26.3142V293.232H33.1663V295.86H27.4062V296.892H33.5382V297.768ZM27.5382 287.7C29.0382 287.7 30.2142 288.672 30.2142 290.088C30.2142 291.492 29.0382 292.416 27.5382 292.416C26.0622 292.416 24.8502 291.528 24.8502 290.1C24.8502 288.696 26.0262 287.7 27.5382 287.7ZM27.5382 288.612C26.6262 288.612 25.8942 289.224 25.8942 290.088C25.8942 290.94 26.6022 291.528 27.5382 291.528C28.5223 291.528 29.1703 290.904 29.1703 290.088C29.1703 289.224 28.5343 288.612 27.5382 288.612Z" fill="#4B4B4B"/>
<path d="M112.028 296.544V289.488L110.564 289.812V289.2L112.508 288.3H113.084V296.544H112.028ZM117.91 296.64C116.218 296.64 114.91 295.512 114.91 292.764V292.128C114.91 289.272 116.314 288.288 117.922 288.288C119.518 288.288 120.85 289.272 120.85 292.08V292.776C120.85 295.536 119.554 296.64 117.91 296.64ZM117.91 295.776C119.11 295.776 119.758 294.96 119.758 292.908V292.08C119.758 290.064 119.122 289.152 117.922 289.152C116.698 289.152 116.038 290.016 116.038 291.996V292.848C116.038 294.828 116.674 295.776 117.91 295.776ZM130.46 292.692H129.392V287.352H130.46V292.692ZM130.832 297.768H123.644V295.068H129.392V294.096H123.608V293.232H130.46V295.86H124.7V296.892H130.832V297.768ZM124.832 287.7C126.332 287.7 127.508 288.672 127.508 290.088C127.508 291.492 126.332 292.416 124.832 292.416C123.356 292.416 122.144 291.528 122.144 290.1C122.144 288.696 123.32 287.7 124.832 287.7ZM124.832 288.612C123.92 288.612 123.188 289.224 123.188 290.088C123.188 290.94 123.896 291.528 124.832 291.528C125.816 291.528 126.464 290.904 126.464 290.088C126.464 289.224 125.828 288.612 124.832 288.612Z" fill="#4B4B4B"/>
<path d="M157.028 296.544V289.488L155.564 289.812V289.2L157.508 288.3H158.084V296.544H157.028ZM161.746 296.64C160.81 296.64 159.958 296.376 159.466 296.04L159.67 295.2C160.114 295.488 160.87 295.764 161.518 295.764C162.766 295.764 163.51 295.068 163.51 293.952C163.51 292.764 162.79 292.296 161.566 292.296C161.014 292.296 160.258 292.524 159.886 292.692L160.174 288.42H164.29V289.296H161.014L160.858 291.648C161.17 291.564 161.638 291.48 161.986 291.48C163.606 291.48 164.602 292.272 164.602 293.976C164.602 295.428 163.522 296.64 161.746 296.64ZM173.89 292.692H172.822V287.352H173.89V292.692ZM174.262 297.768H167.074V295.068H172.822V294.096H167.038V293.232H173.89V295.86H168.13V296.892H174.262V297.768ZM168.262 287.7C169.762 287.7 170.938 288.672 170.938 290.088C170.938 291.492 169.762 292.416 168.262 292.416C166.786 292.416 165.574 291.528 165.574 290.1C165.574 288.696 166.75 287.7 168.262 287.7ZM168.262 288.612C167.35 288.612 166.618 289.224 166.618 290.088C166.618 290.94 167.326 291.528 168.262 291.528C169.246 291.528 169.894 290.904 169.894 290.088C169.894 289.224 169.258 288.612 168.262 288.612Z" fill="#4B4B4B"/>
<path d="M67.64 296.64C66.704 296.64 65.852 296.376 65.36 296.04L65.564 295.2C66.008 295.488 66.764 295.764 67.412 295.764C68.66 295.764 69.404 295.068 69.404 293.952C69.404 292.764 68.684 292.296 67.46 292.296C66.908 292.296 66.152 292.524 65.78 292.692L66.068 288.42H70.184V289.296H66.908L66.752 291.648C67.064 291.564 67.532 291.48 67.88 291.48C69.5 291.48 70.496 292.272 70.496 293.976C70.496 295.428 69.416 296.64 67.64 296.64ZM79.7834 292.692H78.7154V287.352H79.7834V292.692ZM80.1554 297.768H72.9674V295.068H78.7154V294.096H72.9314V293.232H79.7834V295.86H74.0234V296.892H80.1554V297.768ZM74.1554 287.7C75.6554 287.7 76.8314 288.672 76.8314 290.088C76.8314 291.492 75.6554 292.416 74.1554 292.416C72.6794 292.416 71.4674 291.528 71.4674 290.1C71.4674 288.696 72.6434 287.7 74.1554 287.7ZM74.1554 288.612C73.2434 288.612 72.5114 289.224 72.5114 290.088C72.5114 290.94 73.2194 291.528 74.1554 291.528C75.1394 291.528 75.7874 290.904 75.7874 290.088C75.7874 289.224 75.1514 288.612 74.1554 288.612Z" fill="#4B4B4B"/>
<path d="M200.72 296.496V295.872L202.568 293.952C203.708 292.764 204.5 291.852 204.5 290.724C204.5 289.68 203.996 289.176 202.868 289.176C202.196 289.176 201.548 289.5 201.08 289.812L200.828 288.996C201.332 288.66 202.16 288.276 203.072 288.276C204.728 288.276 205.616 289.176 205.616 290.616C205.616 292.032 204.692 293.064 203.372 294.396L202.172 295.608H205.772V296.496H200.72ZM209.844 296.64C208.152 296.64 206.844 295.512 206.844 292.764V292.128C206.844 289.272 208.248 288.288 209.856 288.288C211.452 288.288 212.784 289.272 212.784 292.08V292.776C212.784 295.536 211.488 296.64 209.844 296.64ZM209.844 295.776C211.044 295.776 211.692 294.96 211.692 292.908V292.08C211.692 290.064 211.056 289.152 209.856 289.152C208.632 289.152 207.972 290.016 207.972 291.996V292.848C207.972 294.828 208.608 295.776 209.844 295.776ZM222.394 292.692H221.326V287.352H222.394V292.692ZM222.766 297.768H215.578V295.068H221.326V294.096H215.542V293.232H222.394V295.86H216.634V296.892H222.766V297.768ZM216.766 287.7C218.266 287.7 219.442 288.672 219.442 290.088C219.442 291.492 218.266 292.416 216.766 292.416C215.29 292.416 214.078 291.528 214.078 290.1C214.078 288.696 215.254 287.7 216.766 287.7ZM216.766 288.612C215.854 288.612 215.122 289.224 215.122 290.088C215.122 290.94 215.83 291.528 216.766 291.528C217.75 291.528 218.398 290.904 218.398 290.088C218.398 289.224 217.762 288.612 216.766 288.612Z" fill="#4B4B4B"/>
<path d="M245.72 296.496V295.872L247.568 293.952C248.708 292.764 249.5 291.852 249.5 290.724C249.5 289.68 248.996 289.176 247.868 289.176C247.196 289.176 246.548 289.5 246.08 289.812L245.828 288.996C246.332 288.66 247.16 288.276 248.072 288.276C249.728 288.276 250.616 289.176 250.616 290.616C250.616 292.032 249.692 293.064 248.372 294.396L247.172 295.608H250.772V296.496H245.72ZM253.738 296.64C252.802 296.64 251.95 296.376 251.458 296.04L251.662 295.2C252.106 295.488 252.862 295.764 253.51 295.764C254.758 295.764 255.502 295.068 255.502 293.952C255.502 292.764 254.782 292.296 253.558 292.296C253.006 292.296 252.25 292.524 251.878 292.692L252.166 288.42H256.282V289.296H253.006L252.85 291.648C253.162 291.564 253.63 291.48 253.978 291.48C255.598 291.48 256.594 292.272 256.594 293.976C256.594 295.428 255.514 296.64 253.738 296.64ZM265.882 292.692H264.814V287.352H265.882V292.692ZM266.254 297.768H259.066V295.068H264.814V294.096H259.03V293.232H265.882V295.86H260.122V296.892H266.254V297.768ZM260.254 287.7C261.754 287.7 262.93 288.672 262.93 290.088C262.93 291.492 261.754 292.416 260.254 292.416C258.778 292.416 257.566 291.528 257.566 290.1C257.566 288.696 258.742 287.7 260.254 287.7ZM260.254 288.612C259.342 288.612 258.61 289.224 258.61 290.088C258.61 290.94 259.318 291.528 260.254 291.528C261.238 291.528 261.886 290.904 261.886 290.088C261.886 289.224 261.25 288.612 260.254 288.612Z" fill="#4B4B4B"/>
<path d="M292.808 296.616C291.86 296.616 291.044 296.352 290.588 296.04L290.804 295.224C291.248 295.524 292.064 295.752 292.664 295.752C293.948 295.752 294.668 295.188 294.668 294.192C294.668 293.196 293.912 292.728 292.724 292.728H291.944V291.852H292.652C293.672 291.84 294.368 291.336 294.368 290.472C294.368 289.512 293.744 289.176 292.784 289.176C292.136 289.176 291.512 289.452 291.02 289.728L290.864 288.888C291.356 288.576 292.292 288.288 293.012 288.288C294.476 288.288 295.46 289.02 295.46 290.304C295.46 291.276 294.848 291.876 293.936 292.188C294.98 292.38 295.748 292.968 295.748 294.216C295.748 295.644 294.608 296.616 292.808 296.616ZM299.938 296.64C298.246 296.64 296.938 295.512 296.938 292.764V292.128C296.938 289.272 298.342 288.288 299.95 288.288C301.546 288.288 302.878 289.272 302.878 292.08V292.776C302.878 295.536 301.582 296.64 299.938 296.64ZM299.938 295.776C301.138 295.776 301.786 294.96 301.786 292.908V292.08C301.786 290.064 301.15 289.152 299.95 289.152C298.726 289.152 298.066 290.016 298.066 291.996V292.848C298.066 294.828 298.702 295.776 299.938 295.776ZM312.487 292.692H311.419V287.352H312.487V292.692ZM312.859 297.768H305.671V295.068H311.419V294.096H305.635V293.232H312.487V295.86H306.727V296.892H312.859V297.768ZM306.859 287.7C308.359 287.7 309.535 288.672 309.535 290.088C309.535 291.492 308.359 292.416 306.859 292.416C305.383 292.416 304.171 291.528 304.171 290.1C304.171 288.696 305.347 287.7 306.859 287.7ZM306.859 288.612C305.947 288.612 305.215 289.224 305.215 290.088C305.215 290.94 305.923 291.528 306.859 291.528C307.843 291.528 308.491 290.904 308.491 290.088C308.491 289.224 307.855 288.612 306.859 288.612Z" fill="#4B4B4B"/>
<path d="M341.792 278.64C340.136 278.64 338.84 277.512 338.84 274.788V274.116C338.84 271.272 340.22 270.312 341.804 270.312C343.376 270.312 344.672 271.272 344.672 274.068V274.8C344.672 277.524 343.424 278.64 341.792 278.64ZM341.792 277.848C343.028 277.848 343.7 277.008 343.7 274.944V274.056C343.7 272.028 343.04 271.104 341.804 271.104C340.544 271.104 339.86 271.98 339.86 273.996V274.884C339.86 276.888 340.532 277.848 341.792 277.848Z" fill="#4B4B4B"/>
<path d="M341.444 127.652C339.728 127.652 338.636 126.764 338.636 125.444C338.636 124.388 339.548 123.656 340.436 123.308C339.572 122.972 338.864 122.36 338.864 121.328C338.864 120.164 339.86 119.3 341.408 119.3C342.92 119.3 343.94 120.032 343.94 121.28C343.94 122.252 343.136 122.816 342.308 123.248C343.304 123.572 344.264 124.148 344.264 125.36C344.264 126.644 343.184 127.652 341.444 127.652ZM341.432 126.86C342.464 126.86 343.244 126.284 343.244 125.456C343.244 124.472 342.584 124.112 341.192 123.668C340.4 123.944 339.596 124.52 339.596 125.408C339.596 126.296 340.364 126.86 341.432 126.86ZM341.6 122.9C342.356 122.564 342.944 122.084 342.944 121.316C342.944 120.608 342.416 120.092 341.42 120.092C340.496 120.092 339.884 120.536 339.884 121.304C339.884 122.132 340.532 122.624 341.6 122.9Z" fill="#4B4B4B"/>
<path d="M340.616 178.64C339.68 178.64 338.84 178.376 338.36 178.028L338.54 177.26C338.984 177.56 339.776 177.836 340.436 177.836C341.708 177.836 342.452 177.116 342.452 175.976C342.452 174.752 341.732 174.26 340.472 174.26C339.92 174.26 339.164 174.488 338.792 174.656L339.08 170.432H343.16V171.248H339.848L339.68 173.696C340.004 173.612 340.496 173.528 340.832 173.528C342.452 173.528 343.448 174.296 343.448 175.988C343.448 177.428 342.392 178.64 340.616 178.64Z" fill="#4B4B4B"/>
<path d="M340.796 229.616C339.86 229.616 339.056 229.352 338.612 229.04L338.816 228.284C339.272 228.584 340.076 228.812 340.676 228.812C342.008 228.812 342.752 228.224 342.752 227.228C342.752 226.196 341.96 225.704 340.736 225.704H339.956V224.888H340.676C341.72 224.888 342.428 224.36 342.428 223.46C342.428 222.476 341.792 222.128 340.808 222.128C340.148 222.128 339.524 222.416 339.02 222.704L338.876 221.936C339.356 221.612 340.304 221.312 341 221.312C342.44 221.312 343.424 222.044 343.424 223.304C343.424 224.3 342.8 224.888 341.888 225.188C342.932 225.392 343.724 225.98 343.724 227.228C343.724 228.632 342.584 229.616 340.796 229.616Z" fill="#4B4B4B"/>
<line x1="20.5" y1="124" x2="20.5" y2="297" stroke="#D9D9D9" stroke-dasharray="2 2"/>
<line x1="65.5" y1="124" x2="65.5" y2="297" stroke="#D9D9D9" stroke-dasharray="2 2"/>
<line x1="110.5" y1="124" x2="110.5" y2="297" stroke="#D9D9D9" stroke-dasharray="2 2"/>
<line x1="155.5" y1="124" x2="155.5" y2="297" stroke="#D9D9D9" stroke-dasharray="2 2"/>
<line x1="200.5" y1="124" x2="200.5" y2="297" stroke="#D9D9D9" stroke-dasharray="2 2"/>
<line x1="245.5" y1="124" x2="245.5" y2="297" stroke="#D9D9D9" stroke-dasharray="2 2"/>
<line x1="290.5" y1="124" x2="290.5" y2="297" stroke="#D9D9D9" stroke-dasharray="2 2"/>
<line x1="333.5" y1="124" x2="333.5" y2="282" stroke="#D9D9D9"/>
<line x1="20" y1="226.576" x2="333" y2="226.576" stroke="#D9D9D9"/>
<line x1="20" y1="281.5" x2="333" y2="281.5" stroke="#D9D9D9"/>
<line x1="20" y1="173.962" x2="333" y2="173.962" stroke="#D9D9D9"/>
<rect x="21" y="227" width="6" height="54" rx="3" fill="#B6D4E9"/>
<rect x="66" y="174" width="6" height="107" rx="3" fill="#B6D4E9"/>
<rect x="111" y="227" width="6" height="54" rx="3" fill="#B6D4E9"/>
<rect x="156" y="242" width="6" height="39" rx="3" fill="#B6D4E9"/>
<rect x="201" y="174" width="6" height="107" rx="3" fill="#B6D4E9"/>
<rect x="246" y="206" width="6" height="75" rx="3" fill="#B6D4E9"/>
<rect x="291" y="261" width="6" height="20" rx="3" fill="#B6D4E9"/>
<rect x="32" y="206" width="6" height="75" rx="3" fill="#B6D4E9"/>
<rect x="77" y="189" width="6" height="92" rx="3" fill="#B6D4E9"/>
<rect x="122" y="242" width="6" height="39" rx="3" fill="#B6D4E9"/>
<rect x="167" y="174" width="6" height="107" rx="3" fill="#B6D4E9"/>
<rect x="212" y="261" width="6" height="20" rx="3" fill="#B6D4E9"/>
<rect x="257" y="206" width="6" height="75" rx="3" fill="#B6D4E9"/>
<rect x="302" y="227" width="6" height="54" rx="3" fill="#B6D4E9"/>
<rect x="43" y="261" width="6" height="20" rx="3" fill="#B6D4E9"/>
<rect x="88" y="261" width="6" height="20" rx="3" fill="#B6D4E9"/>
<rect x="133" y="158" width="6" height="123" rx="3" fill="#B6D4E9"/>
<rect x="178" y="227" width="6" height="54" rx="3" fill="#B6D4E9"/>
<rect x="223" y="242" width="6" height="39" rx="3" fill="#B6D4E9"/>
<rect x="268" y="227" width="6" height="54" rx="3" fill="#B6D4E9"/>
<rect x="313" y="206" width="6" height="75" rx="3" fill="#B6D4E9"/>
<rect x="54" y="206" width="6" height="75" rx="3" fill="#B6D4E9"/>
<rect x="99" y="242" width="6" height="39" rx="3" fill="#B6D4E9"/>
<rect x="144" y="227" width="6" height="54" rx="3" fill="#B6D4E9"/>
<rect x="189" y="261" width="6" height="20" rx="3" fill="#B6D4E9"/>
<rect x="234" y="227" width="6" height="54" rx="3" fill="#B6D4E9"/>
<rect x="279" y="242" width="6" height="39" rx="3" fill="#B6D4E9"/>
<rect x="324" y="141" width="6" height="140" rx="3" fill="#B6D4E9"/>
</svg>
