<svg width="26" height="27" viewBox="0 0 26 27" fill="none" xmlns="http://www.w3.org/2000/svg">
<ellipse cx="13" cy="13.5" rx="13" ry="13.5" fill="#F2F2F2"/>
<path d="M5.9873 5.20117C5.83594 5.07422 5.75781 4.93262 5.75293 4.77637C5.75293 4.61523 5.80176 4.47607 5.89941 4.35889C5.99707 4.2417 6.12402 4.17578 6.28027 4.16113C6.43652 4.1416 6.6001 4.20752 6.771 4.35889L8.47021 5.91895L10.1768 4.35889C10.3428 4.20752 10.5039 4.1416 10.6602 4.16113C10.8213 4.17578 10.9507 4.2417 11.0483 4.35889C11.146 4.47607 11.1924 4.61523 11.1875 4.77637C11.1875 4.93262 11.1118 5.07422 10.9604 5.20117L8.90234 6.96631C8.83887 7.02002 8.77051 7.06641 8.69727 7.10547C8.62402 7.14453 8.54834 7.16406 8.47021 7.16406C8.39209 7.16406 8.31641 7.14453 8.24316 7.10547C8.1748 7.06641 8.10889 7.02002 8.04541 6.96631L5.9873 5.20117ZM7.30566 20.4648C6.53906 20.4648 5.96289 20.2744 5.57715 19.8936C5.19629 19.5176 5.00586 18.9512 5.00586 18.1943V10.5259C5.00586 9.77393 5.19629 9.20996 5.57715 8.83398C5.96289 8.45312 6.53906 8.2627 7.30566 8.2627H9.34912C9.63721 8.2627 9.84961 8.22852 9.98633 8.16016C10.123 8.08691 10.272 7.95996 10.4331 7.7793L11.019 7.12012C11.2046 6.91992 11.4048 6.76611 11.6196 6.65869C11.8394 6.55127 12.1372 6.49756 12.5132 6.49756H15.4355C15.8115 6.49756 16.1094 6.55127 16.3291 6.65869C16.5488 6.76611 16.749 6.91992 16.9297 7.12012L17.5156 7.7793C17.6279 7.90137 17.728 7.99902 17.8159 8.07227C17.9087 8.14062 18.0137 8.18945 18.1309 8.21875C18.248 8.24805 18.4043 8.2627 18.5996 8.2627H20.6943C21.4561 8.2627 22.0298 8.45312 22.4155 8.83398C22.8013 9.20996 22.9941 9.77393 22.9941 10.5259V18.1943C22.9941 18.9512 22.8013 19.5176 22.4155 19.8936C22.0298 20.2744 21.4561 20.4648 20.6943 20.4648H7.30566ZM7.32031 19.2856H20.6724C21.0337 19.2856 21.3145 19.1904 21.5146 19C21.7148 18.8047 21.8149 18.5166 21.8149 18.1357V10.5918C21.8149 10.2109 21.7148 9.92529 21.5146 9.73486C21.3145 9.53955 21.0337 9.44189 20.6724 9.44189H18.3066C17.9746 9.44189 17.7061 9.40527 17.501 9.33203C17.3008 9.25391 17.1079 9.1123 16.9224 8.90723L16.3511 8.2627C16.1411 8.02832 15.9556 7.87207 15.7944 7.79395C15.6333 7.71582 15.3916 7.67676 15.0693 7.67676H12.8794C12.5571 7.67676 12.3154 7.71582 12.1543 7.79395C11.9932 7.87207 11.8076 8.02832 11.5977 8.2627L11.0264 8.90723C10.8408 9.1123 10.6455 9.25391 10.4404 9.33203C10.2402 9.40527 9.97412 9.44189 9.64209 9.44189H7.32031C6.95898 9.44189 6.67822 9.53955 6.47803 9.73486C6.28271 9.92529 6.18506 10.2109 6.18506 10.5918V18.1357C6.18506 18.5166 6.28271 18.8047 6.47803 19C6.67822 19.1904 6.95898 19.2856 7.32031 19.2856ZM14 18.231C13.4434 18.231 12.9233 18.1284 12.4399 17.9233C11.9565 17.7183 11.5317 17.4326 11.1655 17.0664C10.8042 16.7002 10.5186 16.2754 10.3086 15.792C10.1035 15.3086 10.001 14.7861 10.001 14.2246C10.001 13.668 10.1035 13.1479 10.3086 12.6646C10.5186 12.1812 10.8042 11.7563 11.1655 11.3901C11.5317 11.0239 11.9565 10.7383 12.4399 10.5332C12.9233 10.3281 13.4434 10.2256 14 10.2256C14.7373 10.2256 15.4087 10.4038 16.0142 10.7603C16.6196 11.1167 17.1006 11.5977 17.457 12.2031C17.8135 12.8086 17.9917 13.4824 17.9917 14.2246C17.9917 14.7861 17.8892 15.3086 17.6841 15.792C17.479 16.2754 17.1934 16.7002 16.8271 17.0664C16.4609 17.4326 16.0361 17.7183 15.5527 17.9233C15.0693 18.1284 14.5518 18.231 14 18.231ZM14 17.1177C14.5322 17.1177 15.0156 16.9883 15.4502 16.7295C15.8896 16.4707 16.2388 16.124 16.4976 15.6895C16.7563 15.25 16.8857 14.7617 16.8857 14.2246C16.8857 13.6924 16.7563 13.209 16.4976 12.7744C16.2388 12.335 15.8896 11.9858 15.4502 11.7271C15.0156 11.4634 14.5322 11.3315 14 11.3315C13.4678 11.3315 12.9819 11.4634 12.5425 11.7271C12.1079 11.9858 11.7588 12.335 11.4951 12.7744C11.2363 13.209 11.1069 13.6924 11.1069 14.2246C11.1069 14.7617 11.2363 15.25 11.4951 15.6895C11.7588 16.124 12.1079 16.4707 12.5425 16.7295C12.9819 16.9883 13.4678 17.1177 14 17.1177ZM18.292 11.5293C18.292 11.2852 18.3823 11.0728 18.563 10.8921C18.7437 10.7114 18.9609 10.6211 19.2148 10.6211C19.459 10.6211 19.6714 10.7114 19.8521 10.8921C20.0327 11.0728 20.123 11.2852 20.123 11.5293C20.123 11.7832 20.0327 12.0005 19.8521 12.1812C19.6714 12.3569 19.459 12.4448 19.2148 12.4448C18.9609 12.4448 18.7437 12.3569 18.563 12.1812C18.3823 12.0054 18.292 11.7881 18.292 11.5293Z" fill="black"/>
</svg>
