<svg width="366" height="320" viewBox="0 0 366 320" fill="none" xmlns="http://www.w3.org/2000/svg">
<rect width="366" height="320" rx="8" fill="white"/>
<path d="M20.96 33.328V32.496L23.424 29.936C24.944 28.352 26 27.136 26 25.632C26 24.24 25.328 23.568 23.824 23.568C22.928 23.568 22.064 24 21.44 24.416L21.104 23.328C21.776 22.88 22.88 22.368 24.096 22.368C26.304 22.368 27.488 23.568 27.488 25.488C27.488 27.376 26.256 28.752 24.496 30.528L22.896 32.144H27.696V33.328H20.96ZM33.1251 33.52C30.8691 33.52 29.1251 32.016 29.1251 28.352V27.504C29.1251 23.696 30.9971 22.384 33.1411 22.384C35.2691 22.384 37.0451 23.696 37.0451 27.44V28.368C37.0451 32.048 35.3171 33.52 33.1251 33.52ZM33.1251 32.368C34.7251 32.368 35.5891 31.28 35.5891 28.544V27.44C35.5891 24.752 34.7411 23.536 33.1411 23.536C31.5091 23.536 30.6291 24.688 30.6291 27.328V28.464C30.6291 31.104 31.4771 32.368 33.1251 32.368ZM38.5038 33.328V32.496L40.9678 29.936C42.4878 28.352 43.5438 27.136 43.5438 25.632C43.5438 24.24 42.8718 23.568 41.3678 23.568C40.4718 23.568 39.6078 24 38.9838 24.416L38.6478 23.328C39.3198 22.88 40.4238 22.368 41.6398 22.368C43.8478 22.368 45.0318 23.568 45.0318 25.488C45.0318 27.376 43.7998 28.752 42.0398 30.528L40.4398 32.144H45.2398V33.328H38.5038ZM46.635 33.328V32.496L49.099 29.936C50.619 28.352 51.675 27.136 51.675 25.632C51.675 24.24 51.003 23.568 49.499 23.568C48.603 23.568 47.739 24 47.115 24.416L46.779 23.328C47.451 22.88 48.555 22.368 49.771 22.368C51.979 22.368 53.163 23.568 53.163 25.488C53.163 27.376 51.931 28.752 50.171 30.528L48.571 32.144H53.371V33.328H46.635ZM66.2543 34.72H56.8303V30.512H58.2383V33.584H66.2543V34.72ZM62.2223 28.848C60.7983 29.152 58.6063 29.344 56.8783 29.376C56.2863 29.392 55.7103 29.392 55.1663 29.392V22.112H56.5583V28.192C58.4303 28.192 60.4143 28.064 62.0143 27.728C62.0943 28.096 62.1743 28.464 62.2223 28.848ZM64.4623 24.256H60.1743V23.136H64.4623V21.136H65.8863V31.28H64.4623V26.784H60.1743V25.648H64.4623V24.256ZM73.7571 33.392V23.984L71.8051 24.416V23.6L74.3971 22.4H75.1651V33.392H73.7571ZM77.4881 33.328V32.496L79.9521 29.936C81.4721 28.352 82.5281 27.136 82.5281 25.632C82.5281 24.24 81.8561 23.568 80.3521 23.568C79.4561 23.568 78.5921 24 77.9681 24.416L77.6321 23.328C78.3041 22.88 79.4081 22.368 80.6241 22.368C82.8321 22.368 84.0161 23.568 84.0161 25.488C84.0161 27.376 82.7841 28.752 81.0241 30.528L79.4241 32.144H84.2241V33.328H77.4881ZM97.3634 35.104H87.2994V32.08H95.4274V31.136H87.2994V30.08H96.8354V33.056H88.7234V34.032H97.3634V35.104ZM93.1234 23.776C93.1234 25.232 91.6194 26.08 89.6514 26.08C87.6834 26.08 86.1634 25.232 86.1634 23.76C86.1634 22.336 87.6834 21.456 89.6514 21.456C91.6194 21.456 93.1234 22.304 93.1234 23.776ZM96.8354 29.52H95.4434V28.96H92.4514V27.952H95.4434V21.136H96.8354V29.52ZM90.2914 29.536H88.8834V27.824C87.6194 27.856 86.4994 27.888 85.3474 27.904L85.1394 26.736C86.7554 26.736 88.2434 26.72 89.7794 26.656C91.5714 26.576 92.9474 26.496 94.2754 26.336L94.4034 27.392C93.4274 27.52 91.7954 27.648 90.2914 27.744V29.536ZM91.6994 23.776C91.6994 22.992 90.8674 22.56 89.6514 22.56C88.4674 22.56 87.6194 22.992 87.6194 23.776C87.6194 24.56 88.4834 24.96 89.6514 24.96C90.8194 24.96 91.6994 24.56 91.6994 23.776ZM102.754 28.72V27.552H108.018V28.72H102.754ZM113.285 33.328V32.496L115.749 29.936C117.269 28.352 118.325 27.136 118.325 25.632C118.325 24.24 117.653 23.568 116.149 23.568C115.253 23.568 114.389 24 113.765 24.416L113.429 23.328C114.101 22.88 115.205 22.368 116.421 22.368C118.629 22.368 119.813 23.568 119.813 25.488C119.813 27.376 118.581 28.752 116.821 30.528L115.221 32.144H120.021V33.328H113.285ZM125.45 33.52C123.194 33.52 121.45 32.016 121.45 28.352V27.504C121.45 23.696 123.322 22.384 125.466 22.384C127.594 22.384 129.37 23.696 129.37 27.44V28.368C129.37 32.048 127.642 33.52 125.45 33.52ZM125.45 32.368C127.05 32.368 127.914 31.28 127.914 28.544V27.44C127.914 24.752 127.066 23.536 125.466 23.536C123.834 23.536 122.954 24.688 122.954 27.328V28.464C122.954 31.104 123.802 32.368 125.45 32.368ZM130.829 33.328V32.496L133.293 29.936C134.813 28.352 135.869 27.136 135.869 25.632C135.869 24.24 135.197 23.568 133.693 23.568C132.797 23.568 131.933 24 131.309 24.416L130.973 23.328C131.645 22.88 132.749 22.368 133.965 22.368C136.173 22.368 137.357 23.568 137.357 25.488C137.357 27.376 136.125 28.752 134.365 30.528L132.765 32.144H137.565V33.328H130.829ZM141.744 33.488C140.48 33.488 139.392 33.136 138.784 32.72L139.072 31.632C139.664 32.032 140.752 32.336 141.552 32.336C143.264 32.336 144.224 31.584 144.224 30.256C144.224 28.928 143.216 28.304 141.632 28.304H140.592V27.136H141.536C142.896 27.12 143.824 26.448 143.824 25.296C143.824 24.016 142.992 23.568 141.712 23.568C140.848 23.568 140.016 23.936 139.36 24.304L139.152 23.184C139.808 22.768 141.056 22.384 142.016 22.384C143.968 22.384 145.28 23.36 145.28 25.072C145.28 26.368 144.464 27.168 143.248 27.584C144.64 27.84 145.664 28.624 145.664 30.288C145.664 32.192 144.144 33.488 141.744 33.488ZM158.626 34.72H149.202V30.512H150.61V33.584H158.626V34.72ZM154.594 28.848C153.17 29.152 150.978 29.344 149.25 29.376C148.658 29.392 148.082 29.392 147.538 29.392V22.112H148.93V28.192C150.802 28.192 152.786 28.064 154.386 27.728C154.466 28.096 154.546 28.464 154.594 28.848ZM156.834 24.256H152.546V23.136H156.834V21.136H158.258V31.28H156.834V26.784H152.546V25.648H156.834V24.256ZM166.945 33.52C165.697 33.52 164.561 33.168 163.905 32.72L164.177 31.6C164.769 31.984 165.777 32.352 166.641 32.352C168.305 32.352 169.297 31.424 169.297 29.936C169.297 28.352 168.337 27.728 166.705 27.728C165.969 27.728 164.961 28.032 164.465 28.256L164.849 22.56H170.337V23.728H165.969L165.761 26.864C166.177 26.752 166.801 26.64 167.265 26.64C169.425 26.64 170.753 27.696 170.753 29.968C170.753 31.904 169.313 33.52 166.945 33.52ZM183.76 35.104H173.696V32.08H181.824V31.136H173.696V30.08H183.232V33.056H175.12V34.032H183.76V35.104ZM179.52 23.776C179.52 25.232 178.016 26.08 176.048 26.08C174.08 26.08 172.56 25.232 172.56 23.76C172.56 22.336 174.08 21.456 176.048 21.456C178.016 21.456 179.52 22.304 179.52 23.776ZM183.232 29.52H181.84V28.96H178.848V27.952H181.84V21.136H183.232V29.52ZM176.688 29.536H175.28V27.824C174.016 27.856 172.896 27.888 171.744 27.904L171.536 26.736C173.152 26.736 174.64 26.72 176.176 26.656C177.968 26.576 179.344 26.496 180.672 26.336L180.8 27.392C179.824 27.52 178.192 27.648 176.688 27.744V29.536ZM178.096 23.776C178.096 22.992 177.264 22.56 176.048 22.56C174.864 22.56 174.016 22.992 174.016 23.776C174.016 24.56 174.88 24.96 176.048 24.96C177.216 24.96 178.096 24.56 178.096 23.776Z" fill="#5B5B5B"/>
<path d="M44.608 68.928C44.608 72.288 40.896 74.336 34.464 74.336C28.064 74.336 24.352 72.288 24.352 68.928C24.352 65.536 28.064 63.488 34.464 63.488C40.896 63.488 44.608 65.536 44.608 68.928ZM36.96 58.784L37.28 61.664C33.696 62.272 27.072 62.688 21.152 62.688L20.64 59.584C21.696 59.584 22.848 59.584 24.064 59.552L23.424 52.512L27.104 52.096L27.424 59.488L30.272 59.392L30.624 52.128L34.208 52.48L33.536 59.2C34.784 59.104 35.936 58.976 36.96 58.784ZM44.544 63.424H40.8V58.4H37.248V55.584H40.8V52.896H37.248V50.08H40.8V46.016H44.544V63.424ZM40.672 68.928C40.672 67.392 38.368 66.464 34.464 66.464C30.624 66.464 28.256 67.392 28.256 68.928C28.256 70.432 30.624 71.36 34.464 71.36C38.368 71.36 40.672 70.432 40.672 68.928ZM36.16 50.944H21.472V47.968H36.16V50.944ZM70.3115 47.296C70.3115 51.776 70.1195 55.168 69.4155 57.952H73.6075V60.928H67.2075V67.68H63.4955V60.928H59.7835V67.68H56.0715V60.928H47.8475V57.952H65.7995C66.3435 55.776 66.5995 53.152 66.5675 50.24H51.1755V47.296H70.3115ZM70.6955 73.76H51.1115V64.864H54.8235V70.816H70.6955V73.76ZM88.9332 71.008C86.3092 71.008 83.7492 70.272 82.5012 69.472L83.1412 66.624C84.2612 67.328 86.6292 67.872 88.2612 67.872C91.2052 67.872 92.9332 66.656 92.9332 64.192C92.9332 61.856 91.1732 60.896 88.3892 60.864L86.1172 60.8V57.952L88.1332 57.92C90.6612 57.856 92.3572 56.704 92.3572 54.656C92.3572 52.448 90.8532 51.648 88.4532 51.648C86.8212 51.648 85.0932 52.192 83.7812 52.8L83.3332 49.888C84.6772 49.12 87.3332 48.512 89.4772 48.512C93.5412 48.512 96.2932 50.432 96.2932 53.952C96.2932 56.576 94.7572 58.24 92.3572 59.072C95.1092 59.616 97.0292 61.184 97.0292 64.448C97.0292 68.48 93.9252 71.008 88.9332 71.008ZM122.282 74.528H118.538V46.016H122.282V74.528ZM116.394 65.248L114.218 68.064C111.882 66.624 108.906 63.168 107.946 60.192C107.018 63.456 104.074 67.072 101.13 68.672L98.8575 65.92C103.466 62.944 105.93 58.432 105.93 52.768V48.416H109.802V52.576C109.802 58.208 112.074 62.464 116.394 65.248ZM151.953 57.216H147.889V66.656H144.113V46.016H147.889V54.144H151.953V57.216ZM139.921 48.192C139.889 56.416 134.001 61.696 127.057 63.456L125.201 60.48C129.969 59.648 134.961 56.288 135.889 51.296H126.641V48.192H139.921ZM148.593 73.696H129.553V64.512H133.329V70.72H148.593V73.696Z" fill="#434343"/>
<path d="M22.028 296.544V289.488L20.564 289.812V289.2L22.508 288.3H23.084V296.544H22.028ZM24.8262 296.496V295.872L26.6743 293.952C27.8142 292.764 28.6063 291.852 28.6063 290.724C28.6063 289.68 28.1022 289.176 26.9742 289.176C26.3022 289.176 25.6542 289.5 25.1862 289.812L24.9342 288.996C25.4382 288.66 26.2662 288.276 27.1782 288.276C28.8343 288.276 29.7223 289.176 29.7223 290.616C29.7223 292.032 28.7983 293.064 27.4783 294.396L26.2782 295.608H29.8783V296.496H24.8262ZM39.7327 297.828H32.1847V295.56H38.2807V294.852H32.1847V294.06H39.3367V296.292H33.2527V297.024H39.7327V297.828ZM36.5527 289.332C36.5527 290.424 35.4247 291.06 33.9487 291.06C32.4727 291.06 31.3327 290.424 31.3327 289.32C31.3327 288.252 32.4727 287.592 33.9487 287.592C35.4247 287.592 36.5527 288.228 36.5527 289.332ZM39.3367 293.64H38.2927V293.22H36.0487V292.464H38.2927V287.352H39.3367V293.64ZM34.4287 293.652H33.3727V292.368C32.4247 292.392 31.5847 292.416 30.7207 292.428L30.5647 291.552C31.7767 291.552 32.8927 291.54 34.0447 291.492C35.3887 291.432 36.4207 291.372 37.4167 291.252L37.5127 292.044C36.7807 292.14 35.5567 292.236 34.4287 292.308V293.652ZM35.4847 289.332C35.4847 288.744 34.8607 288.42 33.9487 288.42C33.0607 288.42 32.4247 288.744 32.4247 289.332C32.4247 289.92 33.0727 290.22 33.9487 290.22C34.8247 290.22 35.4847 289.92 35.4847 289.332Z" fill="#4B4B4B"/>
<path d="M125.72 296.496V295.872L127.568 293.952C128.708 292.764 129.5 291.852 129.5 290.724C129.5 289.68 128.996 289.176 127.868 289.176C127.196 289.176 126.548 289.5 126.08 289.812L125.828 288.996C126.332 288.66 127.16 288.276 128.072 288.276C129.728 288.276 130.616 289.176 130.616 290.616C130.616 292.032 129.692 293.064 128.372 294.396L127.172 295.608H130.772V296.496H125.72ZM140.626 297.828H133.078V295.56H139.174V294.852H133.078V294.06H140.23V296.292H134.146V297.024H140.626V297.828ZM137.446 289.332C137.446 290.424 136.318 291.06 134.842 291.06C133.366 291.06 132.226 290.424 132.226 289.32C132.226 288.252 133.366 287.592 134.842 287.592C136.318 287.592 137.446 288.228 137.446 289.332ZM140.23 293.64H139.186V293.22H136.942V292.464H139.186V287.352H140.23V293.64ZM135.322 293.652H134.266V292.368C133.318 292.392 132.478 292.416 131.614 292.428L131.458 291.552C132.67 291.552 133.786 291.54 134.938 291.492C136.282 291.432 137.314 291.372 138.31 291.252L138.406 292.044C137.674 292.14 136.45 292.236 135.322 292.308V293.652ZM136.378 289.332C136.378 288.744 135.754 288.42 134.842 288.42C133.954 288.42 133.318 288.744 133.318 289.332C133.318 289.92 133.966 290.22 134.842 290.22C135.718 290.22 136.378 289.92 136.378 289.332Z" fill="#4B4B4B"/>
<path d="M179.808 296.616C178.86 296.616 178.044 296.352 177.588 296.04L177.804 295.224C178.248 295.524 179.064 295.752 179.664 295.752C180.948 295.752 181.668 295.188 181.668 294.192C181.668 293.196 180.912 292.728 179.724 292.728H178.944V291.852H179.652C180.672 291.84 181.368 291.336 181.368 290.472C181.368 289.512 180.744 289.176 179.784 289.176C179.136 289.176 178.512 289.452 178.02 289.728L177.864 288.888C178.356 288.576 179.292 288.288 180.012 288.288C181.476 288.288 182.46 289.02 182.46 290.304C182.46 291.276 181.848 291.876 180.936 292.188C181.98 292.38 182.748 292.968 182.748 294.216C182.748 295.644 181.608 296.616 179.808 296.616ZM192.662 297.828H185.114V295.56H191.21V294.852H185.114V294.06H192.266V296.292H186.182V297.024H192.662V297.828ZM189.482 289.332C189.482 290.424 188.354 291.06 186.878 291.06C185.402 291.06 184.262 290.424 184.262 289.32C184.262 288.252 185.402 287.592 186.878 287.592C188.354 287.592 189.482 288.228 189.482 289.332ZM192.266 293.64H191.222V293.22H188.978V292.464H191.222V287.352H192.266V293.64ZM187.358 293.652H186.302V292.368C185.354 292.392 184.514 292.416 183.65 292.428L183.494 291.552C184.706 291.552 185.822 291.54 186.974 291.492C188.318 291.432 189.35 291.372 190.346 291.252L190.442 292.044C189.71 292.14 188.486 292.236 187.358 292.308V293.652ZM188.414 289.332C188.414 288.744 187.79 288.42 186.878 288.42C185.99 288.42 185.354 288.744 185.354 289.332C185.354 289.92 186.002 290.22 186.878 290.22C187.754 290.22 188.414 289.92 188.414 289.332Z" fill="#4B4B4B"/>
<path d="M75.028 296.544V289.488L73.564 289.812V289.2L75.508 288.3H76.084V296.544H75.028ZM86.6343 297.828H79.0862V295.56H85.1823V294.852H79.0862V294.06H86.2383V296.292H80.1542V297.024H86.6343V297.828ZM83.4543 289.332C83.4543 290.424 82.3263 291.06 80.8502 291.06C79.3742 291.06 78.2342 290.424 78.2342 289.32C78.2342 288.252 79.3742 287.592 80.8502 287.592C82.3263 287.592 83.4543 288.228 83.4543 289.332ZM86.2383 293.64H85.1943V293.22H82.9503V292.464H85.1943V287.352H86.2383V293.64ZM81.3303 293.652H80.2742V292.368C79.3262 292.392 78.4862 292.416 77.6222 292.428L77.4662 291.552C78.6782 291.552 79.7942 291.54 80.9463 291.492C82.2902 291.432 83.3222 291.372 84.3182 291.252L84.4143 292.044C83.6823 292.14 82.4582 292.236 81.3303 292.308V293.652ZM82.3863 289.332C82.3863 288.744 81.7622 288.42 80.8502 288.42C79.9622 288.42 79.3262 288.744 79.3262 289.332C79.3262 289.92 79.9742 290.22 80.8502 290.22C81.7263 290.22 82.3863 289.92 82.3863 289.332Z" fill="#4B4B4B"/>
<path d="M233.14 296.676V294.936H229.276V294.204L233.332 288.3H234.136V294.096H235.48V294.936H234.136V296.676H233.14ZM230.38 294.096H233.152V290.064L230.38 294.096ZM244.955 297.828H237.407V295.56H243.503V294.852H237.407V294.06H244.559V296.292H238.475V297.024H244.955V297.828ZM241.775 289.332C241.775 290.424 240.647 291.06 239.171 291.06C237.695 291.06 236.555 290.424 236.555 289.32C236.555 288.252 237.695 287.592 239.171 287.592C240.647 287.592 241.775 288.228 241.775 289.332ZM244.559 293.64H243.515V293.22H241.271V292.464H243.515V287.352H244.559V293.64ZM239.651 293.652H238.595V292.368C237.647 292.392 236.807 292.416 235.943 292.428L235.787 291.552C236.999 291.552 238.115 291.54 239.267 291.492C240.611 291.432 241.643 291.372 242.639 291.252L242.735 292.044C242.003 292.14 240.779 292.236 239.651 292.308V293.652ZM240.707 289.332C240.707 288.744 240.083 288.42 239.171 288.42C238.283 288.42 237.647 288.744 237.647 289.332C237.647 289.92 238.295 290.22 239.171 290.22C240.047 290.22 240.707 289.92 240.707 289.332Z" fill="#4B4B4B"/>
<path d="M283.64 296.64C282.704 296.64 281.852 296.376 281.36 296.04L281.564 295.2C282.008 295.488 282.764 295.764 283.412 295.764C284.66 295.764 285.404 295.068 285.404 293.952C285.404 292.764 284.684 292.296 283.46 292.296C282.908 292.296 282.152 292.524 281.78 292.692L282.068 288.42H286.184V289.296H282.908L282.752 291.648C283.064 291.564 283.532 291.48 283.88 291.48C285.5 291.48 286.496 292.272 286.496 293.976C286.496 295.428 285.416 296.64 283.64 296.64ZM296.251 297.828H288.703V295.56H294.799V294.852H288.703V294.06H295.855V296.292H289.771V297.024H296.251V297.828ZM293.071 289.332C293.071 290.424 291.943 291.06 290.467 291.06C288.991 291.06 287.851 290.424 287.851 289.32C287.851 288.252 288.991 287.592 290.467 287.592C291.943 287.592 293.071 288.228 293.071 289.332ZM295.855 293.64H294.811V293.22H292.567V292.464H294.811V287.352H295.855V293.64ZM290.947 293.652H289.891V292.368C288.943 292.392 288.103 292.416 287.239 292.428L287.083 291.552C288.295 291.552 289.411 291.54 290.563 291.492C291.907 291.432 292.939 291.372 293.935 291.252L294.031 292.044C293.299 292.14 292.075 292.236 290.947 292.308V293.652ZM292.003 289.332C292.003 288.744 291.379 288.42 290.467 288.42C289.579 288.42 288.943 288.744 288.943 289.332C288.943 289.92 289.591 290.22 290.467 290.22C291.343 290.22 292.003 289.92 292.003 289.332Z" fill="#4B4B4B"/>
<path d="M341.792 278.64C340.136 278.64 338.84 277.512 338.84 274.788V274.116C338.84 271.272 340.22 270.312 341.804 270.312C343.376 270.312 344.672 271.272 344.672 274.068V274.8C344.672 277.524 343.424 278.64 341.792 278.64ZM341.792 277.848C343.028 277.848 343.7 277.008 343.7 274.944V274.056C343.7 272.028 343.04 271.104 341.804 271.104C340.544 271.104 339.86 271.98 339.86 273.996V274.884C339.86 276.888 340.532 277.848 341.792 277.848Z" fill="#4B4B4B"/>
<path d="M341.444 127.652C339.728 127.652 338.636 126.764 338.636 125.444C338.636 124.388 339.548 123.656 340.436 123.308C339.572 122.972 338.864 122.36 338.864 121.328C338.864 120.164 339.86 119.3 341.408 119.3C342.92 119.3 343.94 120.032 343.94 121.28C343.94 122.252 343.136 122.816 342.308 123.248C343.304 123.572 344.264 124.148 344.264 125.36C344.264 126.644 343.184 127.652 341.444 127.652ZM341.432 126.86C342.464 126.86 343.244 126.284 343.244 125.456C343.244 124.472 342.584 124.112 341.192 123.668C340.4 123.944 339.596 124.52 339.596 125.408C339.596 126.296 340.364 126.86 341.432 126.86ZM341.6 122.9C342.356 122.564 342.944 122.084 342.944 121.316C342.944 120.608 342.416 120.092 341.42 120.092C340.496 120.092 339.884 120.536 339.884 121.304C339.884 122.132 340.532 122.624 341.6 122.9Z" fill="#4B4B4B"/>
<path d="M340.616 178.64C339.68 178.64 338.84 178.376 338.36 178.028L338.54 177.26C338.984 177.56 339.776 177.836 340.436 177.836C341.708 177.836 342.452 177.116 342.452 175.976C342.452 174.752 341.732 174.26 340.472 174.26C339.92 174.26 339.164 174.488 338.792 174.656L339.08 170.432H343.16V171.248H339.848L339.68 173.696C340.004 173.612 340.496 173.528 340.832 173.528C342.452 173.528 343.448 174.296 343.448 175.988C343.448 177.428 342.392 178.64 340.616 178.64Z" fill="#4B4B4B"/>
<path d="M340.796 229.616C339.86 229.616 339.056 229.352 338.612 229.04L338.816 228.284C339.272 228.584 340.076 228.812 340.676 228.812C342.008 228.812 342.752 228.224 342.752 227.228C342.752 226.196 341.96 225.704 340.736 225.704H339.956V224.888H340.676C341.72 224.888 342.428 224.36 342.428 223.46C342.428 222.476 341.792 222.128 340.808 222.128C340.148 222.128 339.524 222.416 339.02 222.704L338.876 221.936C339.356 221.612 340.304 221.312 341 221.312C342.44 221.312 343.424 222.044 343.424 223.304C343.424 224.3 342.8 224.888 341.888 225.188C342.932 225.392 343.724 225.98 343.724 227.228C343.724 228.632 342.584 229.616 340.796 229.616Z" fill="#4B4B4B"/>
<line x1="20.5" y1="124" x2="20.5" y2="297" stroke="#D9D9D9" stroke-dasharray="2 2"/>
<line x1="72.5" y1="124" x2="72.5" y2="297" stroke="#D9D9D9" stroke-dasharray="2 2"/>
<line x1="124.5" y1="124" x2="124.5" y2="297" stroke="#D9D9D9" stroke-dasharray="2 2"/>
<line x1="176.5" y1="124" x2="176.5" y2="297" stroke="#D9D9D9" stroke-dasharray="2 2"/>
<line x1="228.5" y1="124" x2="228.5" y2="297" stroke="#D9D9D9" stroke-dasharray="2 2"/>
<line x1="280.5" y1="124" x2="280.5" y2="297" stroke="#D9D9D9" stroke-dasharray="2 2"/>
<line x1="332.5" y1="124" x2="332.5" y2="282" stroke="#D9D9D9"/>
<line x1="20" y1="226.576" x2="333" y2="226.576" stroke="#D9D9D9"/>
<line x1="20" y1="281.5" x2="333" y2="281.5" stroke="#D9D9D9"/>
<line x1="20" y1="173.962" x2="333" y2="173.962" stroke="#D9D9D9"/>
<rect x="21" y="228" width="13" height="54" rx="6.5" fill="#FFD643"/>
<rect x="73" y="228" width="13" height="54" rx="6.5" fill="#FFD643"/>
<rect x="125" y="245" width="13" height="37" rx="6.5" fill="#FFD643"/>
<rect x="177" y="198" width="13" height="84" rx="6.5" fill="#FFD643"/>
<rect x="229" y="262" width="13" height="20" rx="6.5" fill="#FFD643"/>
<rect x="281" y="228" width="13" height="54" rx="6.5" fill="#FFD643"/>
<rect x="38" y="262" width="12" height="20" rx="6" fill="#FFD643"/>
<rect x="90" y="262" width="12" height="20" rx="6" fill="#FFD643"/>
<rect x="142" y="262" width="12" height="20" rx="6" fill="#FFD643"/>
<rect x="194" y="228" width="12" height="54" rx="6" fill="#FFD643"/>
<rect x="246" y="228" width="12" height="54" rx="6" fill="#FFD643"/>
<rect x="298" y="276" width="12" height="6" rx="3" fill="#C7C7C7"/>
<rect x="54" y="262" width="13" height="20" rx="6.5" fill="#FFD643"/>
<rect x="106" y="174" width="13" height="108" rx="6.5" fill="#FFD643"/>
<rect x="158" y="152" width="13" height="130" rx="6.5" fill="#FFD643"/>
<rect x="210" y="245" width="13" height="37" rx="6.5" fill="#FFD643"/>
<rect x="262" y="262" width="13" height="20" rx="6.5" fill="#FFD643"/>
<rect x="314" y="276" width="13" height="6" rx="3" fill="#C7C7C7"/>
<path d="M22.028 296.544V289.488L20.564 289.812V289.2L22.508 288.3H23.084V296.544H22.028ZM24.8262 296.496V295.872L26.6743 293.952C27.8142 292.764 28.6063 291.852 28.6063 290.724C28.6063 289.68 28.1022 289.176 26.9742 289.176C26.3022 289.176 25.6542 289.5 25.1862 289.812L24.9342 288.996C25.4382 288.66 26.2662 288.276 27.1782 288.276C28.8343 288.276 29.7223 289.176 29.7223 290.616C29.7223 292.032 28.7983 293.064 27.4783 294.396L26.2782 295.608H29.8783V296.496H24.8262ZM39.7327 297.828H32.1847V295.56H38.2807V294.852H32.1847V294.06H39.3367V296.292H33.2527V297.024H39.7327V297.828ZM36.5527 289.332C36.5527 290.424 35.4247 291.06 33.9487 291.06C32.4727 291.06 31.3327 290.424 31.3327 289.32C31.3327 288.252 32.4727 287.592 33.9487 287.592C35.4247 287.592 36.5527 288.228 36.5527 289.332ZM39.3367 293.64H38.2927V293.22H36.0487V292.464H38.2927V287.352H39.3367V293.64ZM34.4287 293.652H33.3727V292.368C32.4247 292.392 31.5847 292.416 30.7207 292.428L30.5647 291.552C31.7767 291.552 32.8927 291.54 34.0447 291.492C35.3887 291.432 36.4207 291.372 37.4167 291.252L37.5127 292.044C36.7807 292.14 35.5567 292.236 34.4287 292.308V293.652ZM35.4847 289.332C35.4847 288.744 34.8607 288.42 33.9487 288.42C33.0607 288.42 32.4247 288.744 32.4247 289.332C32.4247 289.92 33.0727 290.22 33.9487 290.22C34.8247 290.22 35.4847 289.92 35.4847 289.332Z" fill="#4B4B4B"/>
<path d="M125.72 296.496V295.872L127.568 293.952C128.708 292.764 129.5 291.852 129.5 290.724C129.5 289.68 128.996 289.176 127.868 289.176C127.196 289.176 126.548 289.5 126.08 289.812L125.828 288.996C126.332 288.66 127.16 288.276 128.072 288.276C129.728 288.276 130.616 289.176 130.616 290.616C130.616 292.032 129.692 293.064 128.372 294.396L127.172 295.608H130.772V296.496H125.72ZM140.626 297.828H133.078V295.56H139.174V294.852H133.078V294.06H140.23V296.292H134.146V297.024H140.626V297.828ZM137.446 289.332C137.446 290.424 136.318 291.06 134.842 291.06C133.366 291.06 132.226 290.424 132.226 289.32C132.226 288.252 133.366 287.592 134.842 287.592C136.318 287.592 137.446 288.228 137.446 289.332ZM140.23 293.64H139.186V293.22H136.942V292.464H139.186V287.352H140.23V293.64ZM135.322 293.652H134.266V292.368C133.318 292.392 132.478 292.416 131.614 292.428L131.458 291.552C132.67 291.552 133.786 291.54 134.938 291.492C136.282 291.432 137.314 291.372 138.31 291.252L138.406 292.044C137.674 292.14 136.45 292.236 135.322 292.308V293.652ZM136.378 289.332C136.378 288.744 135.754 288.42 134.842 288.42C133.954 288.42 133.318 288.744 133.318 289.332C133.318 289.92 133.966 290.22 134.842 290.22C135.718 290.22 136.378 289.92 136.378 289.332Z" fill="#4B4B4B"/>
<path d="M179.808 296.616C178.86 296.616 178.044 296.352 177.588 296.04L177.804 295.224C178.248 295.524 179.064 295.752 179.664 295.752C180.948 295.752 181.668 295.188 181.668 294.192C181.668 293.196 180.912 292.728 179.724 292.728H178.944V291.852H179.652C180.672 291.84 181.368 291.336 181.368 290.472C181.368 289.512 180.744 289.176 179.784 289.176C179.136 289.176 178.512 289.452 178.02 289.728L177.864 288.888C178.356 288.576 179.292 288.288 180.012 288.288C181.476 288.288 182.46 289.02 182.46 290.304C182.46 291.276 181.848 291.876 180.936 292.188C181.98 292.38 182.748 292.968 182.748 294.216C182.748 295.644 181.608 296.616 179.808 296.616ZM192.662 297.828H185.114V295.56H191.21V294.852H185.114V294.06H192.266V296.292H186.182V297.024H192.662V297.828ZM189.482 289.332C189.482 290.424 188.354 291.06 186.878 291.06C185.402 291.06 184.262 290.424 184.262 289.32C184.262 288.252 185.402 287.592 186.878 287.592C188.354 287.592 189.482 288.228 189.482 289.332ZM192.266 293.64H191.222V293.22H188.978V292.464H191.222V287.352H192.266V293.64ZM187.358 293.652H186.302V292.368C185.354 292.392 184.514 292.416 183.65 292.428L183.494 291.552C184.706 291.552 185.822 291.54 186.974 291.492C188.318 291.432 189.35 291.372 190.346 291.252L190.442 292.044C189.71 292.14 188.486 292.236 187.358 292.308V293.652ZM188.414 289.332C188.414 288.744 187.79 288.42 186.878 288.42C185.99 288.42 185.354 288.744 185.354 289.332C185.354 289.92 186.002 290.22 186.878 290.22C187.754 290.22 188.414 289.92 188.414 289.332Z" fill="#4B4B4B"/>
<path d="M75.028 296.544V289.488L73.564 289.812V289.2L75.508 288.3H76.084V296.544H75.028ZM86.6343 297.828H79.0862V295.56H85.1823V294.852H79.0862V294.06H86.2383V296.292H80.1542V297.024H86.6343V297.828ZM83.4543 289.332C83.4543 290.424 82.3263 291.06 80.8502 291.06C79.3742 291.06 78.2342 290.424 78.2342 289.32C78.2342 288.252 79.3742 287.592 80.8502 287.592C82.3263 287.592 83.4543 288.228 83.4543 289.332ZM86.2383 293.64H85.1943V293.22H82.9503V292.464H85.1943V287.352H86.2383V293.64ZM81.3303 293.652H80.2742V292.368C79.3262 292.392 78.4862 292.416 77.6222 292.428L77.4662 291.552C78.6782 291.552 79.7942 291.54 80.9463 291.492C82.2902 291.432 83.3222 291.372 84.3182 291.252L84.4143 292.044C83.6823 292.14 82.4582 292.236 81.3303 292.308V293.652ZM82.3863 289.332C82.3863 288.744 81.7622 288.42 80.8502 288.42C79.9622 288.42 79.3262 288.744 79.3262 289.332C79.3262 289.92 79.9742 290.22 80.8502 290.22C81.7263 290.22 82.3863 289.92 82.3863 289.332Z" fill="#4B4B4B"/>
<path d="M233.14 296.676V294.936H229.276V294.204L233.332 288.3H234.136V294.096H235.48V294.936H234.136V296.676H233.14ZM230.38 294.096H233.152V290.064L230.38 294.096ZM244.955 297.828H237.407V295.56H243.503V294.852H237.407V294.06H244.559V296.292H238.475V297.024H244.955V297.828ZM241.775 289.332C241.775 290.424 240.647 291.06 239.171 291.06C237.695 291.06 236.555 290.424 236.555 289.32C236.555 288.252 237.695 287.592 239.171 287.592C240.647 287.592 241.775 288.228 241.775 289.332ZM244.559 293.64H243.515V293.22H241.271V292.464H243.515V287.352H244.559V293.64ZM239.651 293.652H238.595V292.368C237.647 292.392 236.807 292.416 235.943 292.428L235.787 291.552C236.999 291.552 238.115 291.54 239.267 291.492C240.611 291.432 241.643 291.372 242.639 291.252L242.735 292.044C242.003 292.14 240.779 292.236 239.651 292.308V293.652ZM240.707 289.332C240.707 288.744 240.083 288.42 239.171 288.42C238.283 288.42 237.647 288.744 237.647 289.332C237.647 289.92 238.295 290.22 239.171 290.22C240.047 290.22 240.707 289.92 240.707 289.332Z" fill="#4B4B4B"/>
<path d="M283.64 296.64C282.704 296.64 281.852 296.376 281.36 296.04L281.564 295.2C282.008 295.488 282.764 295.764 283.412 295.764C284.66 295.764 285.404 295.068 285.404 293.952C285.404 292.764 284.684 292.296 283.46 292.296C282.908 292.296 282.152 292.524 281.78 292.692L282.068 288.42H286.184V289.296H282.908L282.752 291.648C283.064 291.564 283.532 291.48 283.88 291.48C285.5 291.48 286.496 292.272 286.496 293.976C286.496 295.428 285.416 296.64 283.64 296.64ZM296.251 297.828H288.703V295.56H294.799V294.852H288.703V294.06H295.855V296.292H289.771V297.024H296.251V297.828ZM293.071 289.332C293.071 290.424 291.943 291.06 290.467 291.06C288.991 291.06 287.851 290.424 287.851 289.32C287.851 288.252 288.991 287.592 290.467 287.592C291.943 287.592 293.071 288.228 293.071 289.332ZM295.855 293.64H294.811V293.22H292.567V292.464H294.811V287.352H295.855V293.64ZM290.947 293.652H289.891V292.368C288.943 292.392 288.103 292.416 287.239 292.428L287.083 291.552C288.295 291.552 289.411 291.54 290.563 291.492C291.907 291.432 292.939 291.372 293.935 291.252L294.031 292.044C293.299 292.14 292.075 292.236 290.947 292.308V293.652ZM292.003 289.332C292.003 288.744 291.379 288.42 290.467 288.42C289.579 288.42 288.943 288.744 288.943 289.332C288.943 289.92 289.591 290.22 290.467 290.22C291.343 290.22 292.003 289.92 292.003 289.332Z" fill="#4B4B4B"/>
<path d="M341.792 278.64C340.136 278.64 338.84 277.512 338.84 274.788V274.116C338.84 271.272 340.22 270.312 341.804 270.312C343.376 270.312 344.672 271.272 344.672 274.068V274.8C344.672 277.524 343.424 278.64 341.792 278.64ZM341.792 277.848C343.028 277.848 343.7 277.008 343.7 274.944V274.056C343.7 272.028 343.04 271.104 341.804 271.104C340.544 271.104 339.86 271.98 339.86 273.996V274.884C339.86 276.888 340.532 277.848 341.792 277.848Z" fill="#4B4B4B"/>
<path d="M341.444 127.652C339.728 127.652 338.636 126.764 338.636 125.444C338.636 124.388 339.548 123.656 340.436 123.308C339.572 122.972 338.864 122.36 338.864 121.328C338.864 120.164 339.86 119.3 341.408 119.3C342.92 119.3 343.94 120.032 343.94 121.28C343.94 122.252 343.136 122.816 342.308 123.248C343.304 123.572 344.264 124.148 344.264 125.36C344.264 126.644 343.184 127.652 341.444 127.652ZM341.432 126.86C342.464 126.86 343.244 126.284 343.244 125.456C343.244 124.472 342.584 124.112 341.192 123.668C340.4 123.944 339.596 124.52 339.596 125.408C339.596 126.296 340.364 126.86 341.432 126.86ZM341.6 122.9C342.356 122.564 342.944 122.084 342.944 121.316C342.944 120.608 342.416 120.092 341.42 120.092C340.496 120.092 339.884 120.536 339.884 121.304C339.884 122.132 340.532 122.624 341.6 122.9Z" fill="#4B4B4B"/>
<path d="M340.616 178.64C339.68 178.64 338.84 178.376 338.36 178.028L338.54 177.26C338.984 177.56 339.776 177.836 340.436 177.836C341.708 177.836 342.452 177.116 342.452 175.976C342.452 174.752 341.732 174.26 340.472 174.26C339.92 174.26 339.164 174.488 338.792 174.656L339.08 170.432H343.16V171.248H339.848L339.68 173.696C340.004 173.612 340.496 173.528 340.832 173.528C342.452 173.528 343.448 174.296 343.448 175.988C343.448 177.428 342.392 178.64 340.616 178.64Z" fill="#4B4B4B"/>
<path d="M340.796 229.616C339.86 229.616 339.056 229.352 338.612 229.04L338.816 228.284C339.272 228.584 340.076 228.812 340.676 228.812C342.008 228.812 342.752 228.224 342.752 227.228C342.752 226.196 341.96 225.704 340.736 225.704H339.956V224.888H340.676C341.72 224.888 342.428 224.36 342.428 223.46C342.428 222.476 341.792 222.128 340.808 222.128C340.148 222.128 339.524 222.416 339.02 222.704L338.876 221.936C339.356 221.612 340.304 221.312 341 221.312C342.44 221.312 343.424 222.044 343.424 223.304C343.424 224.3 342.8 224.888 341.888 225.188C342.932 225.392 343.724 225.98 343.724 227.228C343.724 228.632 342.584 229.616 340.796 229.616Z" fill="#4B4B4B"/>
<line x1="20.5" y1="124" x2="20.5" y2="297" stroke="#D9D9D9" stroke-dasharray="2 2"/>
<line x1="72.5" y1="124" x2="72.5" y2="297" stroke="#D9D9D9" stroke-dasharray="2 2"/>
<line x1="124.5" y1="124" x2="124.5" y2="297" stroke="#D9D9D9" stroke-dasharray="2 2"/>
<line x1="176.5" y1="124" x2="176.5" y2="297" stroke="#D9D9D9" stroke-dasharray="2 2"/>
<line x1="228.5" y1="124" x2="228.5" y2="297" stroke="#D9D9D9" stroke-dasharray="2 2"/>
<line x1="280.5" y1="124" x2="280.5" y2="297" stroke="#D9D9D9" stroke-dasharray="2 2"/>
<line x1="332.5" y1="124" x2="332.5" y2="282" stroke="#D9D9D9"/>
<line x1="20" y1="226.576" x2="333" y2="226.576" stroke="#D9D9D9"/>
<line x1="20" y1="281.5" x2="333" y2="281.5" stroke="#D9D9D9"/>
<line x1="20" y1="173.962" x2="333" y2="173.962" stroke="#D9D9D9"/>
<rect x="21" y="228" width="13" height="54" rx="6.5" fill="#C5D9A0"/>
<rect x="73" y="228" width="13" height="54" rx="6.5" fill="#C5D9A0"/>
<rect x="125" y="245" width="13" height="37" rx="6.5" fill="#C5D9A0"/>
<rect x="177" y="198" width="13" height="84" rx="6.5" fill="#C5D9A0"/>
<rect x="229" y="262" width="13" height="20" rx="6.5" fill="#C5D9A0"/>
<rect x="281" y="228" width="13" height="54" rx="6.5" fill="#C5D9A0"/>
<rect x="38" y="262" width="12" height="20" rx="6" fill="#C5D9A0"/>
<rect x="90" y="262" width="12" height="20" rx="6" fill="#C5D9A0"/>
<rect x="142" y="262" width="12" height="20" rx="6" fill="#C5D9A0"/>
<rect x="194" y="228" width="12" height="54" rx="6" fill="#C5D9A0"/>
<rect x="246" y="228" width="12" height="54" rx="6" fill="#C5D9A0"/>
<rect x="298" y="276" width="12" height="6" rx="3" fill="#C7C7C7"/>
<rect x="54" y="262" width="13" height="20" rx="6.5" fill="#C5D9A0"/>
<rect x="106" y="174" width="13" height="108" rx="6.5" fill="#C5D9A0"/>
<rect x="158" y="152" width="13" height="130" rx="6.5" fill="#C5D9A0"/>
<rect x="210" y="245" width="13" height="37" rx="6.5" fill="#C5D9A0"/>
<rect x="262" y="262" width="13" height="20" rx="6.5" fill="#C5D9A0"/>
<rect x="314" y="276" width="13" height="6" rx="3" fill="#C7C7C7"/>
<path d="M22.028 296.544V289.488L20.564 289.812V289.2L22.508 288.3H23.084V296.544H22.028ZM24.8262 296.496V295.872L26.6743 293.952C27.8142 292.764 28.6063 291.852 28.6063 290.724C28.6063 289.68 28.1022 289.176 26.9742 289.176C26.3022 289.176 25.6542 289.5 25.1862 289.812L24.9342 288.996C25.4382 288.66 26.2662 288.276 27.1782 288.276C28.8343 288.276 29.7223 289.176 29.7223 290.616C29.7223 292.032 28.7983 293.064 27.4783 294.396L26.2782 295.608H29.8783V296.496H24.8262ZM39.7327 297.828H32.1847V295.56H38.2807V294.852H32.1847V294.06H39.3367V296.292H33.2527V297.024H39.7327V297.828ZM36.5527 289.332C36.5527 290.424 35.4247 291.06 33.9487 291.06C32.4727 291.06 31.3327 290.424 31.3327 289.32C31.3327 288.252 32.4727 287.592 33.9487 287.592C35.4247 287.592 36.5527 288.228 36.5527 289.332ZM39.3367 293.64H38.2927V293.22H36.0487V292.464H38.2927V287.352H39.3367V293.64ZM34.4287 293.652H33.3727V292.368C32.4247 292.392 31.5847 292.416 30.7207 292.428L30.5647 291.552C31.7767 291.552 32.8927 291.54 34.0447 291.492C35.3887 291.432 36.4207 291.372 37.4167 291.252L37.5127 292.044C36.7807 292.14 35.5567 292.236 34.4287 292.308V293.652ZM35.4847 289.332C35.4847 288.744 34.8607 288.42 33.9487 288.42C33.0607 288.42 32.4247 288.744 32.4247 289.332C32.4247 289.92 33.0727 290.22 33.9487 290.22C34.8247 290.22 35.4847 289.92 35.4847 289.332Z" fill="#4B4B4B"/>
<path d="M125.72 296.496V295.872L127.568 293.952C128.708 292.764 129.5 291.852 129.5 290.724C129.5 289.68 128.996 289.176 127.868 289.176C127.196 289.176 126.548 289.5 126.08 289.812L125.828 288.996C126.332 288.66 127.16 288.276 128.072 288.276C129.728 288.276 130.616 289.176 130.616 290.616C130.616 292.032 129.692 293.064 128.372 294.396L127.172 295.608H130.772V296.496H125.72ZM140.626 297.828H133.078V295.56H139.174V294.852H133.078V294.06H140.23V296.292H134.146V297.024H140.626V297.828ZM137.446 289.332C137.446 290.424 136.318 291.06 134.842 291.06C133.366 291.06 132.226 290.424 132.226 289.32C132.226 288.252 133.366 287.592 134.842 287.592C136.318 287.592 137.446 288.228 137.446 289.332ZM140.23 293.64H139.186V293.22H136.942V292.464H139.186V287.352H140.23V293.64ZM135.322 293.652H134.266V292.368C133.318 292.392 132.478 292.416 131.614 292.428L131.458 291.552C132.67 291.552 133.786 291.54 134.938 291.492C136.282 291.432 137.314 291.372 138.31 291.252L138.406 292.044C137.674 292.14 136.45 292.236 135.322 292.308V293.652ZM136.378 289.332C136.378 288.744 135.754 288.42 134.842 288.42C133.954 288.42 133.318 288.744 133.318 289.332C133.318 289.92 133.966 290.22 134.842 290.22C135.718 290.22 136.378 289.92 136.378 289.332Z" fill="#4B4B4B"/>
<path d="M179.808 296.616C178.86 296.616 178.044 296.352 177.588 296.04L177.804 295.224C178.248 295.524 179.064 295.752 179.664 295.752C180.948 295.752 181.668 295.188 181.668 294.192C181.668 293.196 180.912 292.728 179.724 292.728H178.944V291.852H179.652C180.672 291.84 181.368 291.336 181.368 290.472C181.368 289.512 180.744 289.176 179.784 289.176C179.136 289.176 178.512 289.452 178.02 289.728L177.864 288.888C178.356 288.576 179.292 288.288 180.012 288.288C181.476 288.288 182.46 289.02 182.46 290.304C182.46 291.276 181.848 291.876 180.936 292.188C181.98 292.38 182.748 292.968 182.748 294.216C182.748 295.644 181.608 296.616 179.808 296.616ZM192.662 297.828H185.114V295.56H191.21V294.852H185.114V294.06H192.266V296.292H186.182V297.024H192.662V297.828ZM189.482 289.332C189.482 290.424 188.354 291.06 186.878 291.06C185.402 291.06 184.262 290.424 184.262 289.32C184.262 288.252 185.402 287.592 186.878 287.592C188.354 287.592 189.482 288.228 189.482 289.332ZM192.266 293.64H191.222V293.22H188.978V292.464H191.222V287.352H192.266V293.64ZM187.358 293.652H186.302V292.368C185.354 292.392 184.514 292.416 183.65 292.428L183.494 291.552C184.706 291.552 185.822 291.54 186.974 291.492C188.318 291.432 189.35 291.372 190.346 291.252L190.442 292.044C189.71 292.14 188.486 292.236 187.358 292.308V293.652ZM188.414 289.332C188.414 288.744 187.79 288.42 186.878 288.42C185.99 288.42 185.354 288.744 185.354 289.332C185.354 289.92 186.002 290.22 186.878 290.22C187.754 290.22 188.414 289.92 188.414 289.332Z" fill="#4B4B4B"/>
<path d="M75.028 296.544V289.488L73.564 289.812V289.2L75.508 288.3H76.084V296.544H75.028ZM86.6343 297.828H79.0862V295.56H85.1823V294.852H79.0862V294.06H86.2383V296.292H80.1542V297.024H86.6343V297.828ZM83.4543 289.332C83.4543 290.424 82.3263 291.06 80.8502 291.06C79.3742 291.06 78.2342 290.424 78.2342 289.32C78.2342 288.252 79.3742 287.592 80.8502 287.592C82.3263 287.592 83.4543 288.228 83.4543 289.332ZM86.2383 293.64H85.1943V293.22H82.9503V292.464H85.1943V287.352H86.2383V293.64ZM81.3303 293.652H80.2742V292.368C79.3262 292.392 78.4862 292.416 77.6222 292.428L77.4662 291.552C78.6782 291.552 79.7942 291.54 80.9463 291.492C82.2902 291.432 83.3222 291.372 84.3182 291.252L84.4143 292.044C83.6823 292.14 82.4582 292.236 81.3303 292.308V293.652ZM82.3863 289.332C82.3863 288.744 81.7622 288.42 80.8502 288.42C79.9622 288.42 79.3262 288.744 79.3262 289.332C79.3262 289.92 79.9742 290.22 80.8502 290.22C81.7263 290.22 82.3863 289.92 82.3863 289.332Z" fill="#4B4B4B"/>
<path d="M233.14 296.676V294.936H229.276V294.204L233.332 288.3H234.136V294.096H235.48V294.936H234.136V296.676H233.14ZM230.38 294.096H233.152V290.064L230.38 294.096ZM244.955 297.828H237.407V295.56H243.503V294.852H237.407V294.06H244.559V296.292H238.475V297.024H244.955V297.828ZM241.775 289.332C241.775 290.424 240.647 291.06 239.171 291.06C237.695 291.06 236.555 290.424 236.555 289.32C236.555 288.252 237.695 287.592 239.171 287.592C240.647 287.592 241.775 288.228 241.775 289.332ZM244.559 293.64H243.515V293.22H241.271V292.464H243.515V287.352H244.559V293.64ZM239.651 293.652H238.595V292.368C237.647 292.392 236.807 292.416 235.943 292.428L235.787 291.552C236.999 291.552 238.115 291.54 239.267 291.492C240.611 291.432 241.643 291.372 242.639 291.252L242.735 292.044C242.003 292.14 240.779 292.236 239.651 292.308V293.652ZM240.707 289.332C240.707 288.744 240.083 288.42 239.171 288.42C238.283 288.42 237.647 288.744 237.647 289.332C237.647 289.92 238.295 290.22 239.171 290.22C240.047 290.22 240.707 289.92 240.707 289.332Z" fill="#4B4B4B"/>
<path d="M283.64 296.64C282.704 296.64 281.852 296.376 281.36 296.04L281.564 295.2C282.008 295.488 282.764 295.764 283.412 295.764C284.66 295.764 285.404 295.068 285.404 293.952C285.404 292.764 284.684 292.296 283.46 292.296C282.908 292.296 282.152 292.524 281.78 292.692L282.068 288.42H286.184V289.296H282.908L282.752 291.648C283.064 291.564 283.532 291.48 283.88 291.48C285.5 291.48 286.496 292.272 286.496 293.976C286.496 295.428 285.416 296.64 283.64 296.64ZM296.251 297.828H288.703V295.56H294.799V294.852H288.703V294.06H295.855V296.292H289.771V297.024H296.251V297.828ZM293.071 289.332C293.071 290.424 291.943 291.06 290.467 291.06C288.991 291.06 287.851 290.424 287.851 289.32C287.851 288.252 288.991 287.592 290.467 287.592C291.943 287.592 293.071 288.228 293.071 289.332ZM295.855 293.64H294.811V293.22H292.567V292.464H294.811V287.352H295.855V293.64ZM290.947 293.652H289.891V292.368C288.943 292.392 288.103 292.416 287.239 292.428L287.083 291.552C288.295 291.552 289.411 291.54 290.563 291.492C291.907 291.432 292.939 291.372 293.935 291.252L294.031 292.044C293.299 292.14 292.075 292.236 290.947 292.308V293.652ZM292.003 289.332C292.003 288.744 291.379 288.42 290.467 288.42C289.579 288.42 288.943 288.744 288.943 289.332C288.943 289.92 289.591 290.22 290.467 290.22C291.343 290.22 292.003 289.92 292.003 289.332Z" fill="#4B4B4B"/>
<path d="M341.792 278.64C340.136 278.64 338.84 277.512 338.84 274.788V274.116C338.84 271.272 340.22 270.312 341.804 270.312C343.376 270.312 344.672 271.272 344.672 274.068V274.8C344.672 277.524 343.424 278.64 341.792 278.64ZM341.792 277.848C343.028 277.848 343.7 277.008 343.7 274.944V274.056C343.7 272.028 343.04 271.104 341.804 271.104C340.544 271.104 339.86 271.98 339.86 273.996V274.884C339.86 276.888 340.532 277.848 341.792 277.848Z" fill="#4B4B4B"/>
<path d="M341.444 127.652C339.728 127.652 338.636 126.764 338.636 125.444C338.636 124.388 339.548 123.656 340.436 123.308C339.572 122.972 338.864 122.36 338.864 121.328C338.864 120.164 339.86 119.3 341.408 119.3C342.92 119.3 343.94 120.032 343.94 121.28C343.94 122.252 343.136 122.816 342.308 123.248C343.304 123.572 344.264 124.148 344.264 125.36C344.264 126.644 343.184 127.652 341.444 127.652ZM341.432 126.86C342.464 126.86 343.244 126.284 343.244 125.456C343.244 124.472 342.584 124.112 341.192 123.668C340.4 123.944 339.596 124.52 339.596 125.408C339.596 126.296 340.364 126.86 341.432 126.86ZM341.6 122.9C342.356 122.564 342.944 122.084 342.944 121.316C342.944 120.608 342.416 120.092 341.42 120.092C340.496 120.092 339.884 120.536 339.884 121.304C339.884 122.132 340.532 122.624 341.6 122.9Z" fill="#4B4B4B"/>
<path d="M340.616 178.64C339.68 178.64 338.84 178.376 338.36 178.028L338.54 177.26C338.984 177.56 339.776 177.836 340.436 177.836C341.708 177.836 342.452 177.116 342.452 175.976C342.452 174.752 341.732 174.26 340.472 174.26C339.92 174.26 339.164 174.488 338.792 174.656L339.08 170.432H343.16V171.248H339.848L339.68 173.696C340.004 173.612 340.496 173.528 340.832 173.528C342.452 173.528 343.448 174.296 343.448 175.988C343.448 177.428 342.392 178.64 340.616 178.64Z" fill="#4B4B4B"/>
<path d="M340.796 229.616C339.86 229.616 339.056 229.352 338.612 229.04L338.816 228.284C339.272 228.584 340.076 228.812 340.676 228.812C342.008 228.812 342.752 228.224 342.752 227.228C342.752 226.196 341.96 225.704 340.736 225.704H339.956V224.888H340.676C341.72 224.888 342.428 224.36 342.428 223.46C342.428 222.476 341.792 222.128 340.808 222.128C340.148 222.128 339.524 222.416 339.02 222.704L338.876 221.936C339.356 221.612 340.304 221.312 341 221.312C342.44 221.312 343.424 222.044 343.424 223.304C343.424 224.3 342.8 224.888 341.888 225.188C342.932 225.392 343.724 225.98 343.724 227.228C343.724 228.632 342.584 229.616 340.796 229.616Z" fill="#4B4B4B"/>
<line x1="20.5" y1="124" x2="20.5" y2="297" stroke="#D9D9D9" stroke-dasharray="2 2"/>
<line x1="72.5" y1="124" x2="72.5" y2="297" stroke="#D9D9D9" stroke-dasharray="2 2"/>
<line x1="124.5" y1="124" x2="124.5" y2="297" stroke="#D9D9D9" stroke-dasharray="2 2"/>
<line x1="176.5" y1="124" x2="176.5" y2="297" stroke="#D9D9D9" stroke-dasharray="2 2"/>
<line x1="228.5" y1="124" x2="228.5" y2="297" stroke="#D9D9D9" stroke-dasharray="2 2"/>
<line x1="280.5" y1="124" x2="280.5" y2="297" stroke="#D9D9D9" stroke-dasharray="2 2"/>
<line x1="332.5" y1="124" x2="332.5" y2="282" stroke="#D9D9D9"/>
<line x1="20" y1="226.576" x2="333" y2="226.576" stroke="#D9D9D9"/>
<line x1="20" y1="281.5" x2="333" y2="281.5" stroke="#D9D9D9"/>
<line x1="20" y1="173.962" x2="333" y2="173.962" stroke="#D9D9D9"/>
<rect x="21" y="228" width="13" height="54" rx="6.5" fill="#FBC3A9"/>
<rect x="73" y="228" width="13" height="54" rx="6.5" fill="#FBC3A9"/>
<rect x="125" y="245" width="13" height="37" rx="6.5" fill="#FBC3A9"/>
<rect x="177" y="198" width="13" height="84" rx="6.5" fill="#FBC3A9"/>
<rect x="229" y="262" width="13" height="20" rx="6.5" fill="#FBC3A9"/>
<rect x="281" y="228" width="13" height="54" rx="6.5" fill="#FBC3A9"/>
<rect x="38" y="262" width="12" height="20" rx="6" fill="#FBC3A9"/>
<rect x="90" y="262" width="12" height="20" rx="6" fill="#FBC3A9"/>
<rect x="142" y="262" width="12" height="20" rx="6" fill="#FBC3A9"/>
<rect x="194" y="228" width="12" height="54" rx="6" fill="#FBC3A9"/>
<rect x="246" y="228" width="12" height="54" rx="6" fill="#FBC3A9"/>
<rect x="298" y="276" width="12" height="6" rx="3" fill="#C7C7C7"/>
<rect x="54" y="262" width="13" height="20" rx="6.5" fill="#FBC3A9"/>
<rect x="106" y="174" width="13" height="108" rx="6.5" fill="#FBC3A9"/>
<rect x="158" y="152" width="13" height="130" rx="6.5" fill="#FBC3A9"/>
<rect x="210" y="245" width="13" height="37" rx="6.5" fill="#FBC3A9"/>
<rect x="262" y="262" width="13" height="20" rx="6.5" fill="#FBC3A9"/>
<rect x="314" y="276" width="13" height="6" rx="3" fill="#C7C7C7"/>
</svg>
