<svg width="28" height="29" viewBox="0 0 28 29" fill="none" xmlns="http://www.w3.org/2000/svg">
<circle cx="23" cy="4" r="2" fill="#F56262"/>
<path d="M2.9375 20.9844C2.9375 21.4141 3.09375 21.7578 3.40625 22.0156C3.71875 22.2734 4.15234 22.4023 4.70703 22.4023H9.65234C9.68359 23.1602 9.88672 23.8594 10.2617 24.5C10.6445 25.1406 11.1562 25.6562 11.7969 26.0469C12.4375 26.4453 13.168 26.6445 13.9883 26.6445C14.8164 26.6445 15.5508 26.4492 16.1914 26.0586C16.832 25.668 17.3398 25.1484 17.7148 24.5C18.0977 23.8594 18.3047 23.1602 18.3359 22.4023H23.2812C23.8359 22.4023 24.2695 22.2734 24.582 22.0156C24.8945 21.7578 25.0508 21.4141 25.0508 20.9844C25.0508 20.5938 24.9375 20.2148 24.7109 19.8477C24.4844 19.4805 24.1992 19.1211 23.8555 18.7695C23.5195 18.418 23.1836 18.0664 22.8477 17.7148C22.5898 17.4492 22.3867 17.1016 22.2383 16.6719C22.0977 16.2422 21.9922 15.7852 21.9219 15.3008C21.8516 14.8164 21.8008 14.3477 21.7695 13.8945C21.7461 12.3555 21.582 11.0039 21.2773 9.83984C20.9805 8.66797 20.5156 7.69141 19.8828 6.91016C19.25 6.12891 18.4141 5.55078 17.375 5.17578C17.1797 4.41016 16.7812 3.76172 16.1797 3.23047C15.5859 2.69922 14.8555 2.43359 13.9883 2.43359C13.1289 2.43359 12.3984 2.69922 11.7969 3.23047C11.2031 3.76172 10.8086 4.41016 10.6133 5.17578C9.57422 5.55078 8.73438 6.12891 8.09375 6.91016C7.46094 7.69141 6.99609 8.66797 6.69922 9.83984C6.40234 11.0039 6.24219 12.3555 6.21875 13.8945C6.1875 14.3477 6.13672 14.8164 6.06641 15.3008C5.99609 15.7852 5.88672 16.2422 5.73828 16.6719C5.59766 17.1016 5.39844 17.4492 5.14062 17.7148C4.80469 18.0664 4.46484 18.418 4.12109 18.7695C3.78516 19.1211 3.50391 19.4805 3.27734 19.8477C3.05078 20.2148 2.9375 20.5938 2.9375 20.9844ZM5.21094 20.6328V20.4922C5.28125 20.3828 5.39844 20.2383 5.5625 20.0586C5.72656 19.8711 5.91016 19.668 6.11328 19.4492C6.32422 19.2305 6.53125 19.0078 6.73438 18.7812C6.94531 18.5469 7.12891 18.2773 7.28516 17.9727C7.44141 17.6602 7.57422 17.3086 7.68359 16.918C7.79297 16.5273 7.87891 16.0938 7.94141 15.6172C8.00391 15.1406 8.05078 14.6172 8.08203 14.0469C8.11328 12.3438 8.28906 10.9922 8.60938 9.99219C8.92969 8.99219 9.35547 8.25 9.88672 7.76562C10.4258 7.27344 11.0312 6.93359 11.7031 6.74609C11.8516 6.71484 11.9648 6.66016 12.043 6.58203C12.1211 6.49609 12.1641 6.37891 12.1719 6.23047C12.1953 5.62109 12.3672 5.125 12.6875 4.74219C13.0156 4.35156 13.4492 4.15625 13.9883 4.15625C14.5352 4.15625 14.9688 4.35156 15.2891 4.74219C15.6172 5.125 15.793 5.62109 15.8164 6.23047C15.8164 6.37891 15.8555 6.49609 15.9336 6.58203C16.0195 6.66016 16.1328 6.71484 16.2734 6.74609C16.9453 6.93359 17.5469 7.27344 18.0781 7.76562C18.6172 8.25 19.0469 8.99219 19.3672 9.99219C19.6953 10.9922 19.875 12.3438 19.9062 14.0469C19.9297 14.6172 19.9727 15.1406 20.0352 15.6172C20.1055 16.0938 20.1914 16.5273 20.293 16.918C20.4023 17.3086 20.5352 17.6602 20.6914 17.9727C20.8477 18.2773 21.0312 18.5469 21.2422 18.7812C21.4531 19.0078 21.6602 19.2305 21.8633 19.4492C22.0742 19.668 22.2578 19.8711 22.4141 20.0586C22.5781 20.2383 22.6953 20.3828 22.7656 20.4922V20.6328H5.21094ZM11.4805 22.4023H16.5078C16.4609 23.1992 16.207 23.8281 15.7461 24.2891C15.2852 24.7578 14.6992 24.9922 13.9883 24.9922C13.2852 24.9922 12.6992 24.7578 12.2305 24.2891C11.7695 23.8281 11.5195 23.1992 11.4805 22.4023Z" fill="white"/>
</svg>
