<svg width="270" height="76" viewBox="0 0 270 76" fill="none" xmlns="http://www.w3.org/2000/svg">
<circle cx="38" cy="38" r="32" fill="#E2E2E2"/>
<circle cx="126.73" cy="37.29" r="4" fill="#E2E2E2"/>
<circle cx="143.254" cy="37.29" r="4" fill="#EBEBEB"/>
<circle cx="37.9316" cy="37.9316" r="35.9316" stroke="#E2E2E2" stroke-width="4"/>
<circle cx="232" cy="38" r="32" fill="#FFD643"/>
<circle cx="231.961" cy="37.9316" r="35.9316" stroke="#FFD643" stroke-width="4"/>
<path d="M18.1301 33.0427C16.1841 33.0567 14.7281 34.2747 14.7421 36.0387C14.7281 37.5507 15.8201 38.6707 17.3741 38.9367V40.8127C16.2261 40.8547 15.1201 40.8547 14.1821 40.8547L14.3501 42.0867C16.5481 42.0867 19.5021 42.0727 22.2741 41.5547L22.1621 40.4347C21.1121 40.5887 19.9921 40.6867 18.8861 40.7427V38.9367C20.4401 38.6707 21.5181 37.5507 21.5181 36.0387C21.5181 34.2747 20.0901 33.0567 18.1301 33.0427ZM16.2261 36.0387C16.2261 34.9887 17.0381 34.3587 18.1301 34.3587C19.2221 34.3587 20.0341 34.9887 20.0341 36.0387C20.0341 37.0607 19.2221 37.7187 18.1301 37.7187C17.0381 37.7187 16.2261 37.0607 16.2261 36.0387ZM22.8901 44.6627H24.4021V32.2867H22.8901V44.6627ZM37.4537 37.6347H26.2257V38.7547H31.0977V39.6507H27.5417V40.7427H34.5697V41.5267H27.5417V44.5507H36.4177V43.4027H29.0537V42.5627H36.0817V39.6507H32.5817V38.7547H37.4537V37.6347ZM26.7297 36.0947L27.1497 37.2147C29.3897 37.0887 31.0557 36.4867 31.8397 35.4787C32.6097 36.4867 34.2757 37.0887 36.5017 37.2147L36.9497 36.0947C34.4997 35.9687 33.0577 35.3107 32.7357 34.4427H36.3617V33.2947H32.5817V32.2587H31.0697V33.2947H27.3177V34.4427H30.9157C30.5937 35.3107 29.1657 35.9687 26.7297 36.0947ZM47.9853 32.2867H46.5013V44.6347H47.9853V38.4747H49.8893V37.2147H47.9853V32.2867ZM38.2413 35.4227H45.5493V34.1907H42.6933V32.4547H41.1813V34.1907H38.2413V35.4227ZM38.8293 39.1187C38.8153 40.8267 40.1313 42.0167 41.9373 42.0307C43.7153 42.0167 45.0313 40.8267 45.0453 39.1187C45.0313 37.4107 43.7153 36.2067 41.9373 36.2067C40.1313 36.2067 38.8153 37.4107 38.8293 39.1187ZM40.2853 39.1187C40.2713 38.1107 40.9713 37.4527 41.9373 37.4667C42.8893 37.4527 43.5753 38.1107 43.5893 39.1187C43.5753 40.1267 42.8893 40.7707 41.9373 40.7707C40.9713 40.7707 40.2713 40.1267 40.2853 39.1187ZM60.7289 32.2867H59.1889V44.6347H60.7289V32.2867ZM50.5089 41.2467L51.2929 42.4507C55.6189 40.4067 57.0469 37.2847 57.0609 33.6027H51.1249V34.8067H55.5069C55.2269 37.6207 53.7289 39.7067 50.5089 41.2467Z" fill="#656565"/>
<path d="M218.909 35.5333H211.937V34.1893H218.825V32.9573H210.425V36.7093H213.841V37.6613H208.997V38.8653H220.253V37.6613H215.381V36.7093H218.909V35.5333ZM210.313 44.7453H219.189V43.5973H211.825V42.6733H218.853V39.6493H210.313V40.7973H217.341V41.6093H210.313V44.7453ZM224.401 33.4053C222.539 33.4193 221.181 35.1133 221.209 37.7733C221.181 40.4613 222.539 42.1553 224.401 42.1413C226.263 42.1553 227.607 40.4613 227.621 37.7733C227.607 35.1133 226.263 33.4193 224.401 33.4053ZM222.665 37.7733C222.651 35.8973 223.365 34.7773 224.401 34.7773C225.465 34.7773 226.151 35.8973 226.165 37.7733C226.151 39.6773 225.465 40.7833 224.401 40.7693C223.365 40.7833 222.651 39.6773 222.665 37.7733ZM229.245 44.8573H230.757V38.5293H232.661V37.2693H230.757V32.5093H229.245V44.8573ZM238.824 33.2093C236.178 33.2093 234.218 34.5393 234.232 36.5413C234.218 38.4033 235.814 39.6213 238.068 39.8593V42.1133H233.196V43.3733H244.48V42.1133H239.552V39.8593C241.806 39.6353 243.416 38.4033 243.416 36.5413C243.416 34.5393 241.456 33.2093 238.824 33.2093ZM235.716 36.5413C235.702 35.2533 237.004 34.4273 238.824 34.4413C240.63 34.4273 241.918 35.2533 241.932 36.5413C241.918 37.8853 240.63 38.6693 238.824 38.6693C237.004 38.6693 235.702 37.8853 235.716 36.5413ZM255.6 32.5093H254.06V44.8573H255.6V32.5093ZM245.38 41.4693L246.164 42.6733C250.49 40.6293 251.918 37.5073 251.932 33.8253H245.996V35.0293H250.378C250.098 37.8433 248.6 39.9293 245.38 41.4693Z" fill="#725827"/>
</svg>
