<svg width="28" height="21" viewBox="0 0 28 21" fill="none" xmlns="http://www.w3.org/2000/svg">
<path d="M3.86328 20.5586C2.63672 20.5586 1.71484 20.2539 1.09766 19.6445C0.488281 19.043 0.183594 18.1367 0.183594 16.9258V9.98828C0.183594 9.63672 0.203125 9.33594 0.242188 9.08594C0.28125 8.82812 0.347656 8.59766 0.441406 8.39453C0.542969 8.18359 0.679688 7.97266 0.851562 7.76172L4.90625 2.75781C5.35938 2.19531 5.76172 1.75391 6.11328 1.43359C6.46484 1.11328 6.85156 0.886719 7.27344 0.753906C7.70312 0.621094 8.26562 0.554688 8.96094 0.554688H19.0391C19.7344 0.554688 20.2969 0.621094 20.7266 0.753906C21.1562 0.886719 21.543 1.11328 21.8867 1.43359C22.2383 1.75391 22.6445 2.19531 23.1055 2.75781L27.1484 7.76172C27.3203 7.97266 27.4531 8.18359 27.5469 8.39453C27.6484 8.59766 27.7188 8.82812 27.7578 9.08594C27.7969 9.33594 27.8164 9.63672 27.8164 9.98828V16.9258C27.8164 18.1367 27.5117 19.043 26.9023 19.6445C26.293 20.2539 25.3711 20.5586 24.1367 20.5586H3.86328ZM3.88672 18.6719H24.1133C24.6914 18.6719 25.1367 18.5195 25.4492 18.2148C25.7695 17.9023 25.9297 17.4414 25.9297 16.832V10.9961H18.5C18.4062 11.7227 18.1523 12.375 17.7383 12.9531C17.332 13.5234 16.8047 13.9766 16.1562 14.3125C15.5156 14.6406 14.7969 14.8047 14 14.8047C13.2109 14.8047 12.4922 14.6406 11.8438 14.3125C11.2031 13.9844 10.6758 13.5352 10.2617 12.9648C9.84766 12.3867 9.59375 11.7305 9.5 10.9961H2.07031V16.832C2.07031 17.4414 2.22656 17.9023 2.53906 18.2148C2.85156 18.5195 3.30078 18.6719 3.88672 18.6719ZM14 13.0703C14.5547 13.0703 15.0352 12.9336 15.4414 12.6602C15.8477 12.3789 16.1641 12.0234 16.3906 11.5938C16.6172 11.1641 16.7305 10.7227 16.7305 10.2695V10.2344C16.7305 9.99219 16.8008 9.77344 16.9414 9.57812C17.0898 9.38281 17.3164 9.28516 17.6211 9.28516H25.3555C25.543 9.28516 25.6562 9.21875 25.6953 9.08594C25.7422 8.95312 25.7188 8.82422 25.625 8.69922L21.2656 3.21484C20.9766 2.84766 20.6641 2.58594 20.3281 2.42969C19.9922 2.27344 19.6094 2.19531 19.1797 2.19531H8.82031C8.39844 2.19531 8.01562 2.27344 7.67188 2.42969C7.33594 2.58594 7.02344 2.84766 6.73438 3.21484L2.38672 8.69922C2.28516 8.82422 2.25391 8.95312 2.29297 9.08594C2.33984 9.21875 2.46094 9.28516 2.65625 9.28516H10.3789C10.6836 9.28516 10.9102 9.38281 11.0586 9.57812C11.207 9.77344 11.2812 9.99219 11.2812 10.2344V10.2695C11.2812 10.7227 11.3906 11.1641 11.6094 11.5938C11.8359 12.0234 12.1523 12.3789 12.5586 12.6602C12.9648 12.9336 13.4453 13.0703 14 13.0703ZM18.9219 3.91797C19.0859 3.91797 19.2188 3.97266 19.3203 4.08203C19.4297 4.19141 19.4844 4.32422 19.4844 4.48047C19.4844 4.63672 19.4297 4.76953 19.3203 4.87891C19.2188 4.98828 19.0859 5.04297 18.9219 5.04297H9.07812C8.92188 5.04297 8.78906 4.98828 8.67969 4.87891C8.57031 4.76953 8.51562 4.63672 8.51562 4.48047C8.51562 4.32422 8.57031 4.19141 8.67969 4.08203C8.78906 3.97266 8.92188 3.91797 9.07812 3.91797H18.9219ZM20.4805 6.56641C20.6445 6.56641 20.7812 6.62891 20.8906 6.75391C21.0078 6.87891 21.0664 7.01953 21.0664 7.17578C21.0664 7.33203 21.0078 7.46875 20.8906 7.58594C20.7812 7.70312 20.6445 7.76172 20.4805 7.76172H7.51953C7.35547 7.76172 7.21484 7.70312 7.09766 7.58594C6.98828 7.46875 6.93359 7.33203 6.93359 7.17578C6.93359 7.01953 6.98828 6.87891 7.09766 6.75391C7.21484 6.62891 7.35547 6.56641 7.51953 6.56641H20.4805Z" fill="#959595"/>
</svg>
