<svg width="68" height="45" viewBox="0 0 68 45" fill="none" xmlns="http://www.w3.org/2000/svg">
<path d="M8.7333 6.90485C8.7333 6.90485 9.15384 5.68596 7.98444 5.61535C2.80146 5.29948 4.49468 1.24149 6.36129 0.52056C12.3854 -1.80573 14.0712 4.41876 14.0712 4.41876C14.0712 4.41876 17.6975 5.01334 19.3058 5.95352C19.3058 5.95352 22.1279 1.49418 27.558 3.22589C30.6051 4.1958 29.2992 8.46933 29.2992 8.46933C29.2992 8.46933 42.4282 6.19507 49.4852 7.64435C56.5421 9.09736 59.8585 15.2029 59.8585 15.2029C59.8585 15.2029 61.3636 14.5526 61.4632 10.5987C61.5628 6.64472 59.84 4.40019 60.4524 3.01779C60.9061 1.99214 64.9861 3.79817 66.3215 5.56333C67.7602 7.46969 68 9.47268 68 11.7246C68 13.9766 66.8638 16.8938 65.3845 18.5809C64.1635 19.9744 61.3709 21.4646 61.3709 21.4646C61.3709 21.4646 61.6624 22.7095 61.3636 24.9131C61.0648 27.1168 59.0285 30.4687 59.0285 30.4687C59.0285 30.4687 60.4044 30.8515 60.9652 31.3866C61.5259 31.9217 62.0534 32.5126 62.0829 34.1997C62.1124 35.8868 60.0614 42.5015 57.7779 44.1589C55.4944 45.8163 54.1886 44.5863 53.7385 44.1589C53.2884 43.7316 51.9309 42.6613 52.2519 39.2313C52.2519 39.2313 49.6991 38.882 47.5485 37.7598C45.3941 36.6338 44.1731 34.9764 44.1731 34.9764C44.1731 34.9764 42.7381 35.0581 40.2923 34.549C37.8465 34.0399 36.4373 33.1555 34.6593 32.8359C32.8812 32.5163 27.3514 31.8437 25.9423 31.8734C24.5331 31.9032 21.3716 34.8463 21.0765 35.2216C20.7814 35.597 19.5087 36.5855 18.8189 37.7932C18.1291 39.0009 17.465 41.435 14.9639 41.461C12.4628 41.487 11.5627 39.7739 11.2676 38.9452C10.9725 38.1165 10.7364 36.2956 12.1456 34.2332C13.5548 32.1707 14.477 31.8103 14.5692 31.4944C14.6614 31.1785 14.5213 30.7846 13.9901 30.8478C13.4588 30.911 12.9129 30.8626 11.725 31.9961C10.5372 33.1295 8.86609 35.8199 8.42711 36.3551C7.98812 36.8902 7.22451 38.0385 5.61613 37.7077C4.00775 37.377 3.47653 36.5595 3.31791 36.0243C3.15928 35.4892 2.86417 34.1031 3.49129 32.7504C4.11472 31.3978 6.1953 29.3353 6.1953 29.3353C6.1953 29.3353 4.9595 29.0678 3.47654 27.6817C1.99358 26.2955 0.274531 24.705 0.053194 22.7244C-0.168143 20.7437 0.333551 19.0565 0.960673 18.0012C1.58411 16.9458 2.48421 15.9387 2.83835 15.1844C3.19249 14.43 3.64623 12.4456 4.70865 10.9034C5.77107 9.3612 7.49012 7.58861 8.74067 6.90856L8.7333 6.90485Z" fill="#B6D4E9"/>
<path d="M5.72993 14.9688C5.85814 14.4701 5.64231 13.9824 5.24785 13.8795C4.8534 13.7765 4.42969 14.0974 4.30148 14.5961C4.17327 15.0948 4.38911 15.5825 4.78356 15.6854C5.17802 15.7883 5.60172 15.4674 5.72993 14.9688Z" fill="#383838"/>
<path d="M18.128 17.9807C18.3325 17.5085 18.1955 16.9927 17.822 16.8285C17.4485 16.6644 16.98 16.9141 16.7755 17.3863C16.571 17.8584 16.708 18.3743 17.0815 18.5384C17.455 18.7025 17.9235 18.4528 18.128 17.9807Z" fill="#383838"/>
<path d="M7.6928 17.3031C7.64116 16.7234 8.44535 16.296 8.84745 16.2291C9.24954 16.1623 10.5112 16.4967 11.0424 17.0987C11.5736 17.7007 10.8985 18.5777 10.4484 18.6409C9.9984 18.7041 8.7294 18.4254 8.30148 18.1615C7.87356 17.8977 7.73707 17.8048 7.6928 17.3031Z" fill="#383838"/>
<path d="M11.9944 21.0302C11.6182 21.0302 11.2566 20.7403 11.0538 20.5731C11.0058 20.5322 10.9615 20.4988 10.921 20.469C10.6959 20.3092 9.85116 19.5103 9.31626 18.9975C8.6707 19.3914 7.71158 19.6403 7.21357 19.6106C6.43151 19.566 6.07368 18.9975 6.0331 18.9306C5.87447 18.6667 5.95932 18.3248 6.22124 18.165C6.47946 18.009 6.81146 18.087 6.97378 18.3434C6.98853 18.3657 7.08445 18.4846 7.27997 18.4958C7.67099 18.5218 8.69283 18.1725 8.94367 17.89L9.32733 17.459L9.74049 17.8566C10.5115 18.5998 11.4005 19.436 11.5555 19.5474C11.6108 19.5846 11.6735 19.6366 11.7436 19.6924C11.8063 19.7407 11.9022 19.8224 11.976 19.8707C12.1715 19.8261 12.3818 19.8893 12.5183 20.0528C12.7175 20.2869 12.6917 20.64 12.4593 20.8406C12.308 20.9707 12.1494 21.0227 11.9908 21.0227L11.9944 21.0302Z" fill="#383838"/>
</svg>
