<svg width="366" height="296" viewBox="0 0 366 296" fill="none" xmlns="http://www.w3.org/2000/svg">
<rect width="366" height="296" rx="8" fill="white"/>
<path d="M35.32 41.58H33V23.76H35.32V41.58ZM21.1 31.36C21.1 27.6 22.8 24.98 25.7 24.98C28.62 24.98 30.32 27.6 30.32 31.36C30.32 35.08 28.62 37.7 25.7 37.7C22.8 37.7 21.1 35.1 21.1 31.36ZM28.08 31.36C28.08 28.54 27.08 26.86 25.7 26.86C24.36 26.86 23.38 28.54 23.38 31.36C23.38 34.16 24.36 35.82 25.7 35.82C27.08 35.82 28.08 34.16 28.08 31.36ZM49.8047 30.42H47.2647V28.52H49.8047V23.76H52.1247V36.68H49.8047V30.42ZM52.5247 41.1H40.4047V35.48H42.7447V39.26H52.5247V41.1ZM46.3647 33.74H37.9647V24.84H40.3247V27.6H44.0447V24.8H46.3647V33.74ZM44.0447 31.88V29.42H40.3247V31.88H44.0447ZM75.4233 29.22H72.8833V32.72H70.5233V23.76H72.8833V27.3H75.4233V29.22ZM73.4033 41.44H61.2633V36.66H70.5233V35.42H61.1233V33.58H72.8833V38.36H63.5833V39.56H73.4033V41.44ZM61.8633 30.44C64.4833 30.42 66.9833 30.3 68.8233 29.88C68.9233 30.48 69.0233 31.1 69.1433 31.68C67.4633 32.1 64.5833 32.3 61.2833 32.3H59.5433V24.74H67.4833V26.6H61.8633V30.44ZM89.6419 25.56C89.6419 31.56 87.0419 35.84 81.7219 38.6L80.2819 36.94C82.7619 35.8 84.8019 33.96 86.0219 31.62L81.0819 32.16C80.9819 31.48 80.8819 30.82 80.7619 30.14L86.8019 29.7C86.9819 29 87.1219 28.26 87.1819 27.5H81.6419V25.56H89.6419ZM94.4419 23.76V30.6H96.9419V32.54H94.4419V41.58H92.1219V23.76H94.4419ZM107.007 25.56C107.007 31.56 104.147 36 98.8266 38.76L97.4866 37C99.9866 35.88 102.127 34 103.387 31.62L98.1066 32.16C97.9866 31.48 97.8866 30.8 97.7866 30.14L104.167 29.7C104.387 29 104.487 28.26 104.547 27.5H98.6466V25.56H107.007ZM112.087 41.58H109.727V23.76H112.087V41.58ZM125.131 37.62C123.431 37.88 120.811 38.06 118.731 38.16C116.931 38.24 115.571 38.28 114.191 38.28L113.891 36.36C115.411 36.36 116.771 36.36 118.191 36.32V33.36C116.111 32.96 114.651 31.46 114.651 29.32C114.651 26.86 116.671 25.02 119.331 25.02C121.971 25.02 124.031 26.82 124.031 29.32C124.031 31.44 122.551 32.92 120.531 33.34V36.2C122.271 36.1 123.631 36 124.891 35.82L125.131 37.62ZM128.231 23.76V30.9H130.531V32.82H128.231V41.58H125.911V23.76H128.231ZM116.931 29.3C116.931 30.72 118.071 31.5 119.331 31.5C120.571 31.5 121.691 30.72 121.691 29.3C121.691 27.82 120.591 26.96 119.331 26.96C118.031 26.96 116.931 27.88 116.931 29.3ZM152.07 30.72H149.63V34.68H147.29V23.76H149.63V28.84H152.07V30.72ZM149.63 41.36H138.07V35.56H149.63V41.36ZM147.27 39.54V37.36H140.41V39.54H147.27ZM145.97 28.48H135.55V26.66H145.97V28.48ZM138.21 25.88V24.06H143.49V25.88H138.21ZM145.07 31.94C145.07 33.76 143.25 34.98 140.83 34.98C138.39 34.98 136.55 33.76 136.55 31.94C136.55 30.1 138.37 28.86 140.83 28.86C143.25 28.86 145.07 30.1 145.07 31.94ZM138.91 31.94C138.91 32.68 139.79 33.22 140.83 33.22C141.87 33.22 142.77 32.68 142.77 31.94C142.77 31.16 141.87 30.66 140.83 30.66C139.77 30.66 138.91 31.16 138.91 31.94ZM160.975 25.82C160.975 27.62 160.915 29.16 160.755 30.56H162.075V24.08H164.275V40.76H162.075V32.44H160.435C159.935 34.58 159.095 36.44 157.695 38.46L155.855 37.3C157.935 34.72 158.855 31.64 158.835 27.76H157.495V25.82H160.975ZM167.795 41.58H165.555V23.76H167.795V41.58ZM156.935 25.82C156.955 31.3 155.975 34.34 153.815 37.12L152.015 35.94C153.955 33.7 154.795 31.04 154.795 27.76H153.015V25.82H156.935ZM184.253 28.78H173.913V26.96H184.253V28.78ZM183.393 32.56C183.393 34.46 181.593 35.8 179.193 35.8C176.753 35.8 174.953 34.46 174.953 32.56C174.953 30.68 176.733 29.28 179.193 29.28C181.593 29.28 183.393 30.68 183.393 32.56ZM176.553 26.12V24.34H181.853V26.12H176.553ZM187.993 23.76V29.52H190.473V31.46H187.993V37H185.653V23.76H187.993ZM188.413 41.16H176.233V36.46H178.593V39.3H188.413V41.16ZM177.273 32.56C177.273 33.36 178.153 33.92 179.193 33.92C180.213 33.92 181.113 33.36 181.113 32.56C181.113 31.72 180.213 31.14 179.193 31.14C178.153 31.14 177.273 31.72 177.273 32.56ZM210.352 41.58H208.012V23.76H210.352V41.58ZM206.672 35.78L205.312 37.54C203.852 36.64 201.992 34.48 201.392 32.62C200.812 34.66 198.972 36.92 197.132 37.92L195.712 36.2C198.592 34.34 200.132 31.52 200.132 27.98V25.26H202.552V27.86C202.552 31.38 203.972 34.04 206.672 35.78ZM228.896 30.76H226.356V36.66H223.996V23.76H226.356V28.84H228.896V30.76ZM221.376 25.12C221.356 30.26 217.676 33.56 213.336 34.66L212.176 32.8C215.156 32.28 218.276 30.18 218.856 27.06H213.076V25.12H221.376ZM226.796 41.06H214.896V35.32H217.256V39.2H226.796V41.06ZM243.941 41.58H241.621V23.76H243.941V41.58ZM229.721 31.36C229.721 27.6 231.421 24.98 234.321 24.98C237.241 24.98 238.941 27.6 238.941 31.36C238.941 35.08 237.241 37.7 234.321 37.7C231.421 37.7 229.721 35.1 229.721 31.36ZM236.701 31.36C236.701 28.54 235.701 26.86 234.321 26.86C232.981 26.86 232.001 28.54 232.001 31.36C232.001 34.16 232.981 35.82 234.321 35.82C235.701 35.82 236.701 34.16 236.701 31.36ZM31.74 63.52L30.44 65.34C28.86 64.54 26.68 62.28 26.14 60.56C25.72 62.36 23.92 64.74 21.84 65.76L20.44 64.02C23.44 62.42 24.9 59.66 24.9 55.92V55.44H21.34V53.58H30.8V55.44H27.36V55.9C27.36 59.66 29.06 62.14 31.74 63.52ZM35.34 69.58H33V51.76H35.34V69.58ZM47.6247 60.84C45.3447 61.4 42.0247 61.6 39.8447 61.6H38.0647V52.98H40.4047V59.64C42.8647 59.64 45.1847 59.44 47.3447 58.98C47.4447 59.6 47.5447 60.24 47.6247 60.84ZM51.3247 51.76V56.68H53.8847V58.62H51.3247V64.66H48.9647V51.76H51.3247ZM51.7647 69.06H39.7847V63.36H42.1047V67.18H51.7647V69.06ZM70.6694 57.22H68.1294V60.72H65.7694V51.76H68.1294V55.3H70.6694V57.22ZM68.6494 69.44H56.5094V64.66H65.7694V63.42H56.3694V61.58H68.1294V66.36H58.8294V67.56H68.6494V69.44ZM57.1094 58.44C59.7294 58.42 62.2294 58.3 64.0694 57.88C64.1694 58.48 64.2694 59.1 64.3894 59.68C62.7094 60.1 59.8294 60.3 56.5294 60.3H54.7894V52.74H62.7294V54.6H57.1094V58.44ZM87.1141 67.36H71.0141V65.5H77.8541V62.04H72.9541V52.98H75.2741V55.74H82.8541V52.94H85.1941V62.04H80.1941V65.5H87.1141V67.36ZM82.8541 60.18V57.54H75.2741V60.18H82.8541ZM101.739 51.76V58.48H104.299V60.42H101.739V69.58H99.3988V51.76H101.739ZM90.8188 63.52C93.3588 63.52 95.8388 63.44 97.8588 62.98C97.9588 63.6 98.0188 64.24 98.1188 64.84C96.3988 65.28 93.6988 65.44 90.2188 65.44H88.4988V53.4H96.6388V55.28H90.8188V63.52ZM123.497 57.48H111.537V51.96H113.897V55.64H123.497V57.48ZM125.477 60.64H109.377V58.76H125.477V60.64ZM123.997 69.5H111.437V64.84H121.017V63.74H111.317V61.88H123.337V66.5H113.757V67.6H123.997V69.5ZM140.902 61.54H138.562V57.82H136.222V55.94H138.562V51.76H140.902V61.54ZM135.462 57.02C135.462 59.52 133.462 61.12 130.862 61.12C128.322 61.12 126.242 59.52 126.242 57.02C126.242 54.54 128.282 52.72 130.862 52.72C133.422 52.72 135.462 54.52 135.462 57.02ZM133.222 57C133.222 55.68 132.322 54.64 130.862 54.64C129.442 54.64 128.522 55.72 128.522 57C128.522 58.36 129.462 59.34 130.862 59.34C132.242 59.34 133.222 58.32 133.222 57ZM142.382 67.98L140.982 69.66C139.862 69.18 138.382 67.64 137.982 66.5C137.682 67.66 136.402 69.26 134.922 69.96C134.442 69.4 134.002 68.88 133.502 68.34C135.602 67.36 136.802 65.5 136.802 63.26V62.42H139.102V63.26C139.102 65.46 140.562 67.34 142.382 67.98ZM133.302 67.76C132.702 67.5 131.962 66.7 131.682 66.12C131.222 67.46 129.702 69.1 128.282 69.7L126.922 68.04C128.862 67.12 130.362 65.38 130.362 63.12V62.48H132.622V63.06C132.622 64.64 133.662 65.78 134.842 66.22C134.322 66.7 133.842 67.24 133.302 67.76ZM143.107 59.36C143.107 55.6 144.807 52.98 147.707 52.98C150.347 52.98 151.967 55.12 152.247 58.3H155.387V51.76H157.727V69.58H155.387V60.28H152.267C152.007 63.5 150.367 65.7 147.707 65.7C144.807 65.7 143.107 63.1 143.107 59.36ZM150.067 59.36C150.067 56.54 149.087 54.86 147.707 54.86C146.367 54.86 145.387 56.54 145.387 59.36C145.387 62.16 146.367 63.82 147.707 63.82C149.087 63.82 150.067 62.16 150.067 59.36ZM174.351 57.54C174.351 60.26 171.771 62.22 167.851 62.22C163.951 62.22 161.371 60.26 161.371 57.54C161.371 54.8 163.951 52.8 167.851 52.8C171.771 52.8 174.351 54.8 174.351 57.54ZM175.891 67.36H159.791V65.48H163.391V62.52L165.731 62.62V65.48H169.911V62.62L172.251 62.52V65.48H175.891V67.36ZM171.951 57.54C171.951 55.92 170.331 54.76 167.851 54.76C165.371 54.76 163.771 55.92 163.771 57.54C163.771 59.14 165.371 60.3 167.851 60.3C170.311 60.3 171.951 59.14 171.951 57.54ZM177.296 67.5V65.16H179.736V67.5H177.296Z" fill="#434343"/>
<rect x="20" y="228" width="327" height="32" rx="8.91" fill="#F5F5F5"/>
<mask id="mask0_1056_72667" style="mask-type:alpha" maskUnits="userSpaceOnUse" x="20" y="228" width="327" height="32">
<rect x="20" y="228" width="327" height="32" rx="8.91" fill="white"/>
</mask>
<g mask="url(#mask0_1056_72667)">
</g>
<rect x="20" y="228" width="216" height="32" rx="8.91" fill="#C5C5C5"/>
<mask id="mask1_1056_72667" style="mask-type:alpha" maskUnits="userSpaceOnUse" x="20" y="228" width="216" height="32">
<rect x="20" y="228" width="216" height="32" fill="white"/>
</mask>
<g mask="url(#mask1_1056_72667)">
</g>
<path d="M24.664 217.688V215.384L28.856 210.968C31.896 207.768 34.328 205.048 34.328 202.296C34.328 199.64 32.888 198.616 30.104 198.616C28.568 198.616 26.776 199.352 25.56 200.088L24.92 197.176C26.392 196.312 28.632 195.512 31.16 195.512C35.96 195.512 38.424 197.816 38.424 201.784C38.424 205.688 35.096 209.176 32.408 211.96L29.816 214.616H38.616V217.688H24.664Z" fill="#434343"/>
<path d="M51.453 220.12H50.221V206.136H51.453V220.12ZM48.445 215.832L47.677 216.76C46.413 215.896 44.765 214.168 44.221 212.488C43.709 214.232 42.269 215.944 40.653 217.096L39.853 216.184C41.901 214.904 43.581 212.36 43.581 209.88V207.352H44.813V209.832C44.813 212.392 46.509 214.68 48.445 215.832ZM66.2568 211.544H64.1287V216.6H62.9127V206.136H64.1287V210.52H66.2568V211.544ZM64.5608 219.768H55.3287V215.448H56.5447V218.76H64.5608V219.768ZM53.8567 207.368H60.2247C60.0647 211.176 57.4727 213.848 53.9047 214.984L53.2807 213.96C56.2887 213.192 58.5447 210.968 58.8967 208.392H53.8567V207.368ZM66.3565 219.96L70.1165 206.648H71.2205L67.4605 219.96H66.3565ZM83.2508 213.208H82.0348V206.136H83.2508V213.208ZM83.7628 219.928H74.1948V216.392H82.0348V214.936H74.1468V213.944H83.2508V217.336H75.4108V218.936H83.7628V219.928ZM75.8428 206.568C77.8428 206.568 79.4588 207.832 79.4588 209.736C79.4588 211.624 77.8428 212.856 75.8428 212.856C73.8428 212.856 72.1948 211.64 72.1948 209.736C72.1948 207.848 73.8268 206.568 75.8428 206.568ZM75.8428 207.624C74.4668 207.624 73.3788 208.472 73.3788 209.72C73.3788 210.968 74.4508 211.8 75.8428 211.8C77.2988 211.8 78.2748 210.968 78.2748 209.736C78.2748 208.488 77.2988 207.624 75.8428 207.624Z" fill="#434343" fill-opacity="0.5"/>
<path d="M328.706 218.488C327.458 218.488 326.386 218.136 325.794 217.72L326.066 216.712C326.674 217.112 327.746 217.416 328.546 217.416C330.322 217.416 331.314 216.632 331.314 215.304C331.314 213.928 330.258 213.272 328.626 213.272H327.586V212.184H328.546C329.938 212.184 330.882 211.48 330.882 210.28C330.882 208.968 330.034 208.504 328.722 208.504C327.842 208.504 327.01 208.888 326.338 209.272L326.146 208.248C326.786 207.816 328.05 207.416 328.978 207.416C330.898 207.416 332.21 208.392 332.21 210.072C332.21 211.4 331.378 212.184 330.162 212.584C331.554 212.856 332.61 213.64 332.61 215.304C332.61 217.176 331.09 218.488 328.706 218.488ZM345.78 220.104H335.812V217.096H344.036V216.024H335.796V215.096H345.252V217.96H337.044V219.144H345.78V220.104ZM341.492 208.776C341.492 210.168 340.036 211.08 338.068 211.08C336.1 211.08 334.66 210.184 334.66 208.76C334.66 207.4 336.1 206.456 338.068 206.456C340.02 206.456 341.492 207.336 341.492 208.776ZM345.252 214.392H344.036V213.88H340.964V212.984H344.036V206.136H345.252V214.392ZM338.628 214.408H337.412V212.728C336.196 212.776 335.044 212.808 333.876 212.824L333.684 211.8C335.316 211.8 336.788 211.752 338.308 211.688C340.036 211.624 341.396 211.544 342.756 211.384L342.868 212.312C341.924 212.408 340.212 212.568 338.628 212.648V214.408ZM340.276 208.776C340.276 207.912 339.396 207.432 338.068 207.432C336.788 207.432 335.876 207.912 335.876 208.776C335.876 209.624 336.788 210.072 338.068 210.072C339.348 210.072 340.276 209.624 340.276 208.776Z" fill="#434343" fill-opacity="0.5"/>
<rect x="20" y="138" width="327" height="32" rx="8.91" fill="#C5D9A0"/>
<mask id="mask2_1056_72667" style="mask-type:alpha" maskUnits="userSpaceOnUse" x="20" y="138" width="327" height="32">
<rect x="20" y="138" width="327" height="32" rx="8.91" fill="white"/>
</mask>
<g mask="url(#mask2_1056_72667)">
</g>
<path d="M33.848 128.04V123.56H23.768V121.256L34.872 105.736H37.56V120.648H40.792V123.56H37.56V128.04H33.848ZM28.056 120.648H33.88V112.392L28.056 120.648Z" fill="#434343"/>
<path d="M53.1093 130.12H51.8773V116.136H53.1093V130.12ZM50.1013 125.832L49.3333 126.76C48.0693 125.896 46.4213 124.168 45.8773 122.488C45.3653 124.232 43.9253 125.944 42.3093 127.096L41.5093 126.184C43.5573 124.904 45.2373 122.36 45.2373 119.88V117.352H46.4693V119.832C46.4693 122.392 48.1653 124.68 50.1013 125.832ZM67.913 121.544H65.785V126.6H64.569V116.136H65.785V120.52H67.913V121.544ZM66.217 129.768H56.985V125.448H58.201V128.76H66.217V129.768ZM55.513 117.368H61.881C61.721 121.176 59.129 123.848 55.561 124.984L54.937 123.96C57.945 123.192 60.201 120.968 60.553 118.392H55.513V117.368ZM68.0128 129.96L71.7728 116.648H72.8768L69.1168 129.96H68.0128ZM84.907 123.208H83.691V116.136H84.907V123.208ZM85.419 129.928H75.851V126.392H83.691V124.936H75.803V123.944H84.907V127.336H77.067V128.936H85.419V129.928ZM77.499 116.568C79.499 116.568 81.115 117.832 81.115 119.736C81.115 121.624 79.499 122.856 77.499 122.856C75.499 122.856 73.851 121.64 73.851 119.736C73.851 117.848 75.483 116.568 77.499 116.568ZM77.499 117.624C76.123 117.624 75.035 118.472 75.035 119.72C75.035 120.968 76.107 121.8 77.499 121.8C78.955 121.8 79.931 120.968 79.931 119.736C79.931 118.488 78.955 117.624 77.499 117.624Z" fill="#434343" fill-opacity="0.5"/>
<path d="M330.217 128.584V126.072H325.145V125.112L330.393 117.448H331.385V125.032H333.177V126.072H331.385V128.584H330.217ZM326.505 125.032H330.217V119.464L326.505 125.032ZM345.78 130.104H335.812V127.096H344.036V126.024H335.796V125.096H345.252V127.96H337.044V129.144H345.78V130.104ZM341.492 118.776C341.492 120.168 340.036 121.08 338.068 121.08C336.1 121.08 334.66 120.184 334.66 118.76C334.66 117.4 336.1 116.456 338.068 116.456C340.02 116.456 341.492 117.336 341.492 118.776ZM345.252 124.392H344.036V123.88H340.964V122.984H344.036V116.136H345.252V124.392ZM338.628 124.408H337.412V122.728C336.196 122.776 335.044 122.808 333.876 122.824L333.684 121.8C335.316 121.8 336.788 121.752 338.308 121.688C340.036 121.624 341.396 121.544 342.756 121.384L342.868 122.312C341.924 122.408 340.212 122.568 338.628 122.648V124.408ZM340.276 118.776C340.276 117.912 339.396 117.432 338.068 117.432C336.788 117.432 335.876 117.912 335.876 118.776C335.876 119.624 336.788 120.072 338.068 120.072C339.348 120.072 340.276 119.624 340.276 118.776Z" fill="#434343" fill-opacity="0.5"/>
</svg>
