<svg width="201" height="306" viewBox="0 0 201 306" fill="none" xmlns="http://www.w3.org/2000/svg">
<path fill-rule="evenodd" clip-rule="evenodd" d="M15.3063 75.3581C18.8859 32.7734 55.1759 0 98.7503 0H103.25C146.824 0 183.114 32.7734 186.694 75.3581C188.621 98.2861 181.399 121.053 166.548 138.862L116.619 198.739C108.547 208.42 93.4534 208.42 85.3806 198.739L35.4522 138.862C20.6014 121.053 13.379 98.2861 15.3063 75.3581Z" fill="#F5F5F5"/>
<g opacity="0.47" filter="url(#filter0_f_992_71943)">
<ellipse cx="100.5" cy="269" rx="72.5" ry="8.99999" transform="rotate(-180 100.5 269)" fill="#AEAEAE"/>
</g>
<g opacity="0.47" filter="url(#filter1_f_992_71943)">
<ellipse cx="100.5" cy="266" rx="48.5" ry="6" transform="rotate(-180 100.5 266)" fill="#AEAEAE"/>
</g>
<mask id="mask0_992_71943" style="mask-type:alpha" maskUnits="userSpaceOnUse" x="15" y="0" width="172" height="278">
<path fill-rule="evenodd" clip-rule="evenodd" d="M15.3063 75.3581C18.8859 32.7734 55.1759 0 98.7503 0H103.25C146.824 0 183.114 32.7734 186.694 75.3581C188.621 98.2861 181.399 121.053 166.548 138.862L116.619 198.739C108.547 208.42 93.4534 208.42 85.3806 198.739L35.4522 138.862C20.6014 121.053 13.379 98.2861 15.3063 75.3581Z" fill="#F5F5F5"/>
<ellipse opacity="0.47" cx="100.5" cy="269" rx="72.5" ry="8.99999" transform="rotate(-180 100.5 269)" fill="#AEAEAE"/>
<ellipse opacity="0.47" cx="100.5" cy="266" rx="48.5" ry="6" transform="rotate(-180 100.5 266)" fill="#AEAEAE"/>
</mask>
<g mask="url(#mask0_992_71943)">
<path d="M30.1406 73.4133C30.1406 64.7917 41.0392 54.8229 48.2094 52.0478C55.3796 49.2727 69.6393 49.7487 79.0053 62.735C79.0053 62.735 89.5276 58.4691 98.9922 58.1817C108.457 57.8943 121.435 65.7885 121.435 65.7885C121.435 65.7885 125.343 52.6944 132.378 47.9884C139.002 43.5519 147.525 44.7104 152.311 47.243C157.098 49.7756 162.923 53.4578 166.231 53.5835C171.563 53.7721 176.833 62.4836 169.099 70.3868C161.364 78.2899 149.318 70.3868 144.021 70.6741C138.724 70.9615 136.376 74.4102 136.376 74.4102C136.376 74.4102 148.314 84.6933 152.231 98.1736C156.148 111.654 164.322 168 164.322 168H42.1775C42.1775 168 43.6832 123.823 49.1415 106.49C54.5998 89.1568 64.414 73.2876 64.414 73.2876C64.414 73.2876 58.2566 72.165 55.7381 75.3352C53.2196 78.5055 54.08 85.313 49.8675 88.6359C45.655 91.9588 37.0777 92.839 33.6629 88.7617C28.9216 83.1037 30.1406 73.4133 30.1406 73.4133Z" fill="#FFD643"/>
<path d="M78.9609 99.5629C79.2724 98.3577 78.748 97.1791 77.7896 96.9304C76.8312 96.6817 75.8018 97.4571 75.4903 98.6623C75.1788 99.8675 75.7032 101.046 76.6616 101.295C77.6199 101.544 78.6494 100.768 78.9609 99.5629Z" fill="#383838"/>
<path d="M123.818 102.258C124.806 102.187 125.534 101.123 125.445 99.8808C125.356 98.639 124.484 97.6898 123.496 97.7607C122.509 97.8317 121.781 98.8958 121.869 100.138C121.958 101.379 122.831 102.329 123.818 102.258Z" fill="#383838"/>
<path d="M95.2816 101.524C94.941 100.159 96.7156 98.8383 97.6478 98.533C98.5799 98.2276 101.744 98.5509 103.24 99.7903C104.737 101.03 103.447 103.374 102.389 103.697C101.331 104.02 98.1855 103.832 97.0562 103.356C95.9269 102.88 95.5684 102.718 95.2726 101.533L95.2816 101.524Z" fill="#383838"/>
<path d="M106.485 108.403C105.589 108.591 104.585 108.088 104.021 107.81C103.886 107.738 103.761 107.675 103.653 107.63C103.035 107.37 100.624 105.915 99.1 104.972C97.7645 106.229 95.6135 107.307 94.4125 107.496C92.5303 107.783 91.392 106.625 91.2665 106.499C90.7557 105.96 90.7915 105.107 91.3293 104.595C91.8581 104.092 92.6916 104.11 93.2025 104.631C93.2473 104.676 93.5341 104.909 94.0002 104.837C94.9413 104.703 97.1999 103.355 97.648 102.556L98.3381 101.344L99.5212 102.08C101.726 103.445 104.262 104.972 104.684 105.152C104.836 105.215 105.006 105.304 105.204 105.403C105.374 105.484 105.643 105.628 105.849 105.699C106.288 105.493 106.826 105.538 107.229 105.852C107.821 106.301 107.937 107.145 107.48 107.738C107.184 108.124 106.835 108.322 106.458 108.403H106.485Z" fill="#383838"/>
<rect x="51" y="155" width="100" height="68" fill="#FFD643"/>
</g>
<defs>
<filter id="filter0_f_992_71943" x="0" y="232" width="201" height="74" filterUnits="userSpaceOnUse" color-interpolation-filters="sRGB">
<feFlood flood-opacity="0" result="BackgroundImageFix"/>
<feBlend mode="normal" in="SourceGraphic" in2="BackgroundImageFix" result="shape"/>
<feGaussianBlur stdDeviation="14" result="effect1_foregroundBlur_992_71943"/>
</filter>
<filter id="filter1_f_992_71943" x="24" y="232" width="153" height="68" filterUnits="userSpaceOnUse" color-interpolation-filters="sRGB">
<feFlood flood-opacity="0" result="BackgroundImageFix"/>
<feBlend mode="normal" in="SourceGraphic" in2="BackgroundImageFix" result="shape"/>
<feGaussianBlur stdDeviation="14" result="effect1_foregroundBlur_992_71943"/>
</filter>
</defs>
</svg>
