<svg width="201" height="306" viewBox="0 0 201 306" fill="none" xmlns="http://www.w3.org/2000/svg">
<g opacity="0.47" filter="url(#filter0_f_988_72151)">
<ellipse cx="100.5" cy="269" rx="72.5" ry="8.99999" transform="rotate(-180 100.5 269)" fill="#AEAEAE"/>
</g>
<g opacity="0.47" filter="url(#filter1_f_988_72151)">
<ellipse cx="100.5" cy="266" rx="48.5" ry="6" transform="rotate(-180 100.5 266)" fill="#AEAEAE"/>
</g>
<path fill-rule="evenodd" clip-rule="evenodd" d="M15.3063 75.3581C18.8859 32.7734 55.1759 0 98.7503 0H103.25C146.824 0 183.114 32.7734 186.694 75.3581C188.621 98.2861 181.399 121.053 166.548 138.862L116.619 198.739C108.547 208.42 93.4534 208.42 85.3806 198.739L35.4522 138.862C20.6014 121.053 13.379 98.2861 15.3063 75.3581Z" fill="#F5F5F5"/>
<mask id="mask0_988_72151" style="mask-type:alpha" maskUnits="userSpaceOnUse" x="15" y="0" width="172" height="206">
<path fill-rule="evenodd" clip-rule="evenodd" d="M15.3063 75.3581C18.8859 32.7734 55.1759 0 98.7503 0H103.25C146.824 0 183.114 32.7734 186.694 75.3581C188.621 98.2861 181.399 121.053 166.548 138.862L116.619 198.739C108.547 208.42 93.4534 208.42 85.3806 198.739L35.4522 138.862C20.6014 121.053 13.379 98.2861 15.3063 75.3581Z" fill="#F5F5F5"/>
</mask>
<g mask="url(#mask0_988_72151)">
<path d="M26.0107 206C26.0107 206 32.8996 114.161 44.6062 93.3143C56.3129 72.4673 78.0094 64.565 85.6708 61.8341C93.3322 59.1032 100.436 48.5346 104.524 50.3731C108.612 52.2116 104.524 59.372 104.524 59.372C104.524 59.372 111.842 48.5776 114.836 50.158C117.829 51.7385 118.098 56.1036 114.836 60.7374C114.836 60.7374 132.744 64.0704 144.784 78.1978C160.461 96.5827 174.356 165.972 175 205.989H26L26.0107 206Z" fill="#C5D9A0"/>
<path d="M127.021 116.118C128.19 115.923 128.939 114.573 128.695 113.103C128.45 111.633 127.304 110.599 126.135 110.795C124.966 110.99 124.216 112.34 124.461 113.81C124.706 115.28 125.852 116.314 127.021 116.118Z" fill="#383838"/>
<path d="M73.3841 116.168C74.5663 116.083 75.4384 114.809 75.3321 113.323C75.2257 111.836 74.1811 110.7 72.999 110.785C71.8168 110.87 70.9446 112.144 71.051 113.63C71.1573 115.117 72.2019 116.253 73.3841 116.168Z" fill="#383838"/>
<path d="M100.2 125.278C93.8259 125.278 87.1195 123.332 86.9371 117.817C86.9156 117.311 87.0551 116.548 87.7955 115.752C89.9094 113.505 96.2831 111.979 100.972 111.86C107.056 111.699 113.709 113.774 114.31 117.505C114.417 118.15 114.342 119.15 113.387 120.289C111.22 122.881 105.264 125.214 100.661 125.278C100.511 125.278 100.361 125.278 100.21 125.278H100.2ZM90.1669 117.924C90.5317 121.289 96.8733 122.106 100.607 122.053C105.447 121.988 110.629 119.118 111.112 117.946C110.769 116.967 106.745 114.924 101.058 115.086C95.811 115.226 91.0468 116.956 90.1669 117.924Z" fill="#383838"/>
</g>
<defs>
<filter id="filter0_f_988_72151" x="0" y="232" width="201" height="74" filterUnits="userSpaceOnUse" color-interpolation-filters="sRGB">
<feFlood flood-opacity="0" result="BackgroundImageFix"/>
<feBlend mode="normal" in="SourceGraphic" in2="BackgroundImageFix" result="shape"/>
<feGaussianBlur stdDeviation="14" result="effect1_foregroundBlur_988_72151"/>
</filter>
<filter id="filter1_f_988_72151" x="24" y="232" width="153" height="68" filterUnits="userSpaceOnUse" color-interpolation-filters="sRGB">
<feFlood flood-opacity="0" result="BackgroundImageFix"/>
<feBlend mode="normal" in="SourceGraphic" in2="BackgroundImageFix" result="shape"/>
<feGaussianBlur stdDeviation="14" result="effect1_foregroundBlur_988_72151"/>
</filter>
</defs>
</svg>
