<svg width="366" height="296" viewBox="0 0 366 296" fill="none" xmlns="http://www.w3.org/2000/svg">
<rect width="366" height="296" rx="8" fill="white"/>
<path d="M35.32 41.58H33V23.76H35.32V41.58ZM21.1 31.36C21.1 27.6 22.8 24.98 25.7 24.98C28.62 24.98 30.32 27.6 30.32 31.36C30.32 35.08 28.62 37.7 25.7 37.7C22.8 37.7 21.1 35.1 21.1 31.36ZM28.08 31.36C28.08 28.54 27.08 26.86 25.7 26.86C24.36 26.86 23.38 28.54 23.38 31.36C23.38 34.16 24.36 35.82 25.7 35.82C27.08 35.82 28.08 34.16 28.08 31.36ZM49.8047 30.42H47.2647V28.52H49.8047V23.76H52.1247V36.68H49.8047V30.42ZM52.5247 41.1H40.4047V35.48H42.7447V39.26H52.5247V41.1ZM46.3647 33.74H37.9647V24.84H40.3247V27.6H44.0447V24.8H46.3647V33.74ZM44.0447 31.88V29.42H40.3247V31.88H44.0447ZM55.9494 32.2L54.9294 30.38C57.6094 30.1 60.5694 28.5 60.9694 26.38H55.6494V24.52H68.8494V26.38H63.5294C63.9494 28.5 66.9294 30.02 69.5894 30.3C69.2694 30.92 68.9294 31.52 68.6094 32.12C66.2894 31.86 63.2294 30.24 62.2494 28.54C61.3094 30.36 58.3894 31.88 55.9494 32.2ZM63.3894 41.56H61.0294V35.36H54.2094V33.5H70.3094V35.36H63.3894V41.56ZM84.888 25.56C84.888 31.56 82.288 35.84 76.968 38.6L75.528 36.94C78.008 35.8 80.048 33.96 81.268 31.62L76.328 32.16C76.228 31.48 76.128 30.82 76.008 30.14L82.048 29.7C82.228 29 82.368 28.26 82.428 27.5H76.888V25.56H84.888ZM89.688 23.76V30.6H92.188V32.54H89.688V41.58H87.368V23.76H89.688ZM102.253 25.56C102.253 31.56 99.3927 36 94.0727 38.76L92.7327 37C95.2327 35.88 97.3727 34 98.6327 31.62L93.3527 32.16C93.2327 31.48 93.1327 30.8 93.0327 30.14L99.4127 29.7C99.6327 29 99.7327 28.26 99.7927 27.5H93.8927V25.56H102.253ZM107.333 41.58H104.973V23.76H107.333V41.58ZM120.377 37.62C118.677 37.88 116.057 38.06 113.977 38.16C112.177 38.24 110.817 38.28 109.437 38.28L109.137 36.36C110.657 36.36 112.017 36.36 113.437 36.32V33.36C111.357 32.96 109.897 31.46 109.897 29.32C109.897 26.86 111.917 25.02 114.577 25.02C117.217 25.02 119.277 26.82 119.277 29.32C119.277 31.44 117.797 32.92 115.777 33.34V36.2C117.517 36.1 118.877 36 120.137 35.82L120.377 37.62ZM123.477 23.76V30.9H125.777V32.82H123.477V41.58H121.157V23.76H123.477ZM112.177 29.3C112.177 30.72 113.317 31.5 114.577 31.5C115.817 31.5 116.937 30.72 116.937 29.3C116.937 27.82 115.837 26.96 114.577 26.96C113.277 26.96 112.177 27.88 112.177 29.3ZM147.316 30.72H144.876V34.68H142.536V23.76H144.876V28.84H147.316V30.72ZM144.876 41.36H133.316V35.56H144.876V41.36ZM142.516 39.54V37.36H135.656V39.54H142.516ZM141.216 28.48H130.796V26.66H141.216V28.48ZM133.456 25.88V24.06H138.736V25.88H133.456ZM140.316 31.94C140.316 33.76 138.496 34.98 136.076 34.98C133.636 34.98 131.796 33.76 131.796 31.94C131.796 30.1 133.616 28.86 136.076 28.86C138.496 28.86 140.316 30.1 140.316 31.94ZM134.156 31.94C134.156 32.68 135.036 33.22 136.076 33.22C137.116 33.22 138.016 32.68 138.016 31.94C138.016 31.16 137.116 30.66 136.076 30.66C135.016 30.66 134.156 31.16 134.156 31.94ZM156.221 25.82C156.221 27.62 156.161 29.16 156.001 30.56H157.321V24.08H159.521V40.76H157.321V32.44H155.681C155.181 34.58 154.341 36.44 152.941 38.46L151.101 37.3C153.181 34.72 154.101 31.64 154.081 27.76H152.741V25.82H156.221ZM163.041 41.58H160.801V23.76H163.041V41.58ZM152.181 25.82C152.201 31.3 151.221 34.34 149.061 37.12L147.261 35.94C149.201 33.7 150.041 31.04 150.041 27.76H148.261V25.82H152.181ZM179.499 28.78H169.159V26.96H179.499V28.78ZM178.639 32.56C178.639 34.46 176.839 35.8 174.439 35.8C171.999 35.8 170.199 34.46 170.199 32.56C170.199 30.68 171.979 29.28 174.439 29.28C176.839 29.28 178.639 30.68 178.639 32.56ZM171.799 26.12V24.34H177.099V26.12H171.799ZM183.239 23.76V29.52H185.719V31.46H183.239V37H180.899V23.76H183.239ZM183.659 41.16H171.479V36.46H173.839V39.3H183.659V41.16ZM172.519 32.56C172.519 33.36 173.399 33.92 174.439 33.92C175.459 33.92 176.359 33.36 176.359 32.56C176.359 31.72 175.459 31.14 174.439 31.14C173.399 31.14 172.519 31.72 172.519 32.56ZM205.598 41.58H203.258V23.76H205.598V41.58ZM201.918 35.78L200.558 37.54C199.098 36.64 197.238 34.48 196.638 32.62C196.058 34.66 194.218 36.92 192.378 37.92L190.958 36.2C193.838 34.34 195.378 31.52 195.378 27.98V25.26H197.798V27.86C197.798 31.38 199.218 34.04 201.918 35.78ZM224.143 30.76H221.603V36.66H219.243V23.76H221.603V28.84H224.143V30.76ZM216.623 25.12C216.603 30.26 212.923 33.56 208.583 34.66L207.423 32.8C210.403 32.28 213.523 30.18 214.103 27.06H208.323V25.12H216.623ZM222.043 41.06H210.143V35.32H212.503V39.2H222.043V41.06ZM239.187 41.58H236.867V23.76H239.187V41.58ZM224.967 31.36C224.967 27.6 226.667 24.98 229.567 24.98C232.487 24.98 234.187 27.6 234.187 31.36C234.187 35.08 232.487 37.7 229.567 37.7C226.667 37.7 224.967 35.1 224.967 31.36ZM231.947 31.36C231.947 28.54 230.947 26.86 229.567 26.86C228.227 26.86 227.247 28.54 227.247 31.36C227.247 34.16 228.227 35.82 229.567 35.82C230.947 35.82 231.947 34.16 231.947 31.36ZM31.74 63.52L30.44 65.34C28.86 64.54 26.68 62.28 26.14 60.56C25.72 62.36 23.92 64.74 21.84 65.76L20.44 64.02C23.44 62.42 24.9 59.66 24.9 55.92V55.44H21.34V53.58H30.8V55.44H27.36V55.9C27.36 59.66 29.06 62.14 31.74 63.52ZM35.34 69.58H33V51.76H35.34V69.58ZM47.6247 60.84C45.3447 61.4 42.0247 61.6 39.8447 61.6H38.0647V52.98H40.4047V59.64C42.8647 59.64 45.1847 59.44 47.3447 58.98C47.4447 59.6 47.5447 60.24 47.6247 60.84ZM51.3247 51.76V56.68H53.8847V58.62H51.3247V64.66H48.9647V51.76H51.3247ZM51.7647 69.06H39.7847V63.36H42.1047V67.18H51.7647V69.06ZM55.9494 60.2L54.9294 58.38C57.6094 58.1 60.5694 56.5 60.9694 54.38H55.6494V52.52H68.8494V54.38H63.5294C63.9494 56.5 66.9294 58.02 69.5894 58.3C69.2694 58.92 68.9294 59.52 68.6094 60.12C66.2894 59.86 63.2294 58.24 62.2494 56.54C61.3094 58.36 58.3894 59.88 55.9494 60.2ZM63.3894 69.56H61.0294V63.36H54.2094V61.5H70.3094V63.36H63.3894V69.56ZM87.1141 67.36H71.0141V65.5H77.8541V62.04H72.9541V52.98H75.2741V55.74H82.8541V52.94H85.1941V62.04H80.1941V65.5H87.1141V67.36ZM82.8541 60.18V57.54H75.2741V60.18H82.8541ZM101.739 51.76V58.48H104.299V60.42H101.739V69.58H99.3988V51.76H101.739ZM90.8188 63.52C93.3588 63.52 95.8388 63.44 97.8588 62.98C97.9588 63.6 98.0188 64.24 98.1188 64.84C96.3988 65.28 93.6988 65.44 90.2188 65.44H88.4988V53.4H96.6388V55.28H90.8188V63.52ZM123.497 57.48H111.537V51.96H113.897V55.64H123.497V57.48ZM125.477 60.64H109.377V58.76H125.477V60.64ZM123.997 69.5H111.437V64.84H121.017V63.74H111.317V61.88H123.337V66.5H113.757V67.6H123.997V69.5ZM140.902 61.54H138.562V57.82H136.222V55.94H138.562V51.76H140.902V61.54ZM135.462 57.02C135.462 59.52 133.462 61.12 130.862 61.12C128.322 61.12 126.242 59.52 126.242 57.02C126.242 54.54 128.282 52.72 130.862 52.72C133.422 52.72 135.462 54.52 135.462 57.02ZM133.222 57C133.222 55.68 132.322 54.64 130.862 54.64C129.442 54.64 128.522 55.72 128.522 57C128.522 58.36 129.462 59.34 130.862 59.34C132.242 59.34 133.222 58.32 133.222 57ZM142.382 67.98L140.982 69.66C139.862 69.18 138.382 67.64 137.982 66.5C137.682 67.66 136.402 69.26 134.922 69.96C134.442 69.4 134.002 68.88 133.502 68.34C135.602 67.36 136.802 65.5 136.802 63.26V62.42H139.102V63.26C139.102 65.46 140.562 67.34 142.382 67.98ZM133.302 67.76C132.702 67.5 131.962 66.7 131.682 66.12C131.222 67.46 129.702 69.1 128.282 69.7L126.922 68.04C128.862 67.12 130.362 65.38 130.362 63.12V62.48H132.622V63.06C132.622 64.64 133.662 65.78 134.842 66.22C134.322 66.7 133.842 67.24 133.302 67.76ZM143.107 59.36C143.107 55.6 144.807 52.98 147.707 52.98C150.347 52.98 151.967 55.12 152.247 58.3H155.387V51.76H157.727V69.58H155.387V60.28H152.267C152.007 63.5 150.367 65.7 147.707 65.7C144.807 65.7 143.107 63.1 143.107 59.36ZM150.067 59.36C150.067 56.54 149.087 54.86 147.707 54.86C146.367 54.86 145.387 56.54 145.387 59.36C145.387 62.16 146.367 63.82 147.707 63.82C149.087 63.82 150.067 62.16 150.067 59.36ZM174.351 57.54C174.351 60.26 171.771 62.22 167.851 62.22C163.951 62.22 161.371 60.26 161.371 57.54C161.371 54.8 163.951 52.8 167.851 52.8C171.771 52.8 174.351 54.8 174.351 57.54ZM175.891 67.36H159.791V65.48H163.391V62.52L165.731 62.62V65.48H169.911V62.62L172.251 62.52V65.48H175.891V67.36ZM171.951 57.54C171.951 55.92 170.331 54.76 167.851 54.76C165.371 54.76 163.771 55.92 163.771 57.54C163.771 59.14 165.371 60.3 167.851 60.3C170.311 60.3 171.951 59.14 171.951 57.54ZM177.296 67.5V65.16H179.736V67.5H177.296Z" fill="#434343"/>
<rect x="20" y="228" width="327" height="32" rx="8.91" fill="#F5F5F5"/>
<mask id="mask0_984_70871" style="mask-type:alpha" maskUnits="userSpaceOnUse" x="20" y="228" width="327" height="32">
<rect x="20" y="228" width="327" height="32" rx="8.91" fill="white"/>
</mask>
<g mask="url(#mask0_984_70871)">
</g>
<rect x="20" y="228" width="216" height="32" rx="8.91" fill="#C5C5C5"/>
<mask id="mask1_984_70871" style="mask-type:alpha" maskUnits="userSpaceOnUse" x="20" y="228" width="216" height="32">
<rect x="20" y="228" width="216" height="32" fill="white"/>
</mask>
<g mask="url(#mask1_984_70871)">
</g>
<path d="M33.848 218.04V213.56H23.768V211.256L34.872 195.736H37.56V210.648H40.792V213.56H37.56V218.04H33.848ZM28.056 210.648H33.88V202.392L28.056 210.648Z" fill="#434343"/>
<path d="M53.1093 220.12H51.8773V206.136H53.1093V220.12ZM50.1013 215.832L49.3333 216.76C48.0693 215.896 46.4213 214.168 45.8773 212.488C45.3653 214.232 43.9253 215.944 42.3093 217.096L41.5093 216.184C43.5573 214.904 45.2373 212.36 45.2373 209.88V207.352H46.4693V209.832C46.4693 212.392 48.1653 214.68 50.1013 215.832ZM67.913 211.544H65.785V216.6H64.569V206.136H65.785V210.52H67.913V211.544ZM66.217 219.768H56.985V215.448H58.201V218.76H66.217V219.768ZM55.513 207.368H61.881C61.721 211.176 59.129 213.848 55.561 214.984L54.937 213.96C57.945 213.192 60.201 210.968 60.553 208.392H55.513V207.368ZM68.0128 219.96L71.7728 206.648H72.8768L69.1168 219.96H68.0128ZM84.907 213.208H83.691V206.136H84.907V213.208ZM85.419 219.928H75.851V216.392H83.691V214.936H75.803V213.944H84.907V217.336H77.067V218.936H85.419V219.928ZM77.499 206.568C79.499 206.568 81.115 207.832 81.115 209.736C81.115 211.624 79.499 212.856 77.499 212.856C75.499 212.856 73.851 211.64 73.851 209.736C73.851 207.848 75.483 206.568 77.499 206.568ZM77.499 207.624C76.123 207.624 75.035 208.472 75.035 209.72C75.035 210.968 76.107 211.8 77.499 211.8C78.955 211.8 79.931 210.968 79.931 209.736C79.931 208.488 78.955 207.624 77.499 207.624Z" fill="#434343" fill-opacity="0.5"/>
<path d="M298.019 218.52C296.771 218.52 295.651 218.168 295.011 217.704L295.251 216.68C295.843 217.08 296.899 217.448 297.779 217.448C299.475 217.448 300.467 216.488 300.467 214.968C300.467 213.336 299.507 212.68 297.827 212.68C297.091 212.68 296.083 212.984 295.587 213.208L295.971 207.576H301.411V208.664H296.995L296.771 211.928C297.203 211.816 297.859 211.704 298.307 211.704C300.467 211.704 301.795 212.728 301.795 214.984C301.795 216.904 300.387 218.52 298.019 218.52ZM314.74 220.104H304.772V217.096H312.996V216.024H304.756V215.096H314.212V217.96H306.004V219.144H314.74V220.104ZM310.452 208.776C310.452 210.168 308.996 211.08 307.028 211.08C305.06 211.08 303.62 210.184 303.62 208.76C303.62 207.4 305.06 206.456 307.028 206.456C308.98 206.456 310.452 207.336 310.452 208.776ZM314.212 214.392H312.996V213.88H309.924V212.984H312.996V206.136H314.212V214.392ZM307.588 214.408H306.372V212.728C305.156 212.776 304.004 212.808 302.836 212.824L302.644 211.8C304.276 211.8 305.748 211.752 307.268 211.688C308.996 211.624 310.356 211.544 311.716 211.384L311.828 212.312C310.884 212.408 309.172 212.568 307.588 212.648V214.408ZM309.236 208.776C309.236 207.912 308.356 207.432 307.028 207.432C305.748 207.432 304.836 207.912 304.836 208.776C304.836 209.624 305.748 210.072 307.028 210.072C308.308 210.072 309.236 209.624 309.236 208.776ZM322.226 218.392V208.872L320.242 209.336V208.6L322.77 207.416H323.442V218.392H322.226ZM330.217 218.584V216.072H325.145V215.112L330.393 207.448H331.385V215.032H333.177V216.072H331.385V218.584H330.217ZM326.505 215.032H330.217V209.464L326.505 215.032ZM345.188 213.208H343.972V206.136H345.188V213.208ZM345.7 219.928H336.132V216.392H343.972V214.936H336.084V213.944H345.188V217.336H337.348V218.936H345.7V219.928ZM337.78 206.568C339.78 206.568 341.396 207.832 341.396 209.736C341.396 211.624 339.78 212.856 337.78 212.856C335.78 212.856 334.132 211.64 334.132 209.736C334.132 207.848 335.764 206.568 337.78 206.568ZM337.78 207.624C336.404 207.624 335.316 208.472 335.316 209.72C335.316 210.968 336.388 211.8 337.78 211.8C339.236 211.8 340.212 210.968 340.212 209.736C340.212 208.488 339.236 207.624 337.78 207.624Z" fill="#434343" fill-opacity="0.5"/>
<rect x="20" y="138" width="327" height="32" rx="8.91" fill="#FFD643"/>
<mask id="mask2_984_70871" style="mask-type:alpha" maskUnits="userSpaceOnUse" x="20" y="138" width="327" height="32">
<rect x="20" y="138" width="327" height="32" rx="8.91" fill="white"/>
</mask>
<g mask="url(#mask2_984_70871)">
</g>
<path d="M32.44 128.072C27.224 128.072 24.28 125.704 24.28 122.152C24.28 119.4 26.392 117.448 28.792 116.488C26.52 115.464 24.92 113.96 24.92 111.24C24.92 107.848 27.832 105.512 32.44 105.512C37.048 105.512 39.864 107.528 39.864 110.952C39.864 113.352 38.136 115.08 35.864 116.168C38.424 117.032 40.728 118.632 40.728 121.704C40.728 125.416 37.656 128.072 32.44 128.072ZM32.344 125.192C35.032 125.192 36.76 123.88 36.76 121.992C36.76 119.72 35.064 118.6 31.8 117.736C29.848 118.408 27.992 119.88 27.992 121.832C27.992 123.944 29.688 125.192 32.344 125.192ZM32.984 114.856C34.68 114.152 36.152 113 36.152 111.24C36.152 109.608 34.968 108.36 32.504 108.36C30.264 108.36 28.856 109.416 28.856 111.144C28.856 113.032 30.264 114.184 32.984 114.856Z" fill="#434343"/>
<path d="M53.328 130.12H52.096V116.136H53.328V130.12ZM50.32 125.832L49.552 126.76C48.288 125.896 46.64 124.168 46.096 122.488C45.584 124.232 44.144 125.944 42.528 127.096L41.728 126.184C43.776 124.904 45.456 122.36 45.456 119.88V117.352H46.688V119.832C46.688 122.392 48.384 124.68 50.32 125.832ZM68.1318 121.544H66.0037V126.6H64.7877V116.136H66.0037V120.52H68.1318V121.544ZM66.4358 129.768H57.2037V125.448H58.4197V128.76H66.4358V129.768ZM55.7317 117.368H62.0997C61.9397 121.176 59.3477 123.848 55.7797 124.984L55.1557 123.96C58.1637 123.192 60.4197 120.968 60.7717 118.392H55.7317V117.368ZM68.2315 129.96L71.9915 116.648H73.0955L69.3355 129.96H68.2315ZM85.1258 123.208H83.9098V116.136H85.1258V123.208ZM85.6378 129.928H76.0698V126.392H83.9098V124.936H76.0218V123.944H85.1258V127.336H77.2858V128.936H85.6378V129.928ZM77.7178 116.568C79.7178 116.568 81.3338 117.832 81.3338 119.736C81.3338 121.624 79.7178 122.856 77.7178 122.856C75.7178 122.856 74.0698 121.64 74.0698 119.736C74.0698 117.848 75.7018 116.568 77.7178 116.568ZM77.7178 117.624C76.3418 117.624 75.2538 118.472 75.2538 119.72C75.2538 120.968 76.3258 121.8 77.7178 121.8C79.1738 121.8 80.1498 120.968 80.1498 119.736C80.1498 118.488 79.1738 117.624 77.7178 117.624Z" fill="#434343" fill-opacity="0.5"/>
<path d="M267 128.52C265.752 128.52 264.632 128.168 263.992 127.704L264.232 126.68C264.824 127.08 265.88 127.448 266.76 127.448C268.456 127.448 269.448 126.488 269.448 124.968C269.448 123.336 268.488 122.68 266.808 122.68C266.072 122.68 265.064 122.984 264.568 123.208L264.952 117.576H270.392V118.664H265.976L265.752 121.928C266.184 121.816 266.84 121.704 267.288 121.704C269.448 121.704 270.776 122.728 270.776 124.984C270.776 126.904 269.368 128.52 267 128.52ZM283.721 130.104H273.753V127.096H281.977V126.024H273.737V125.096H283.193V127.96H274.985V129.144H283.721V130.104ZM279.433 118.776C279.433 120.168 277.977 121.08 276.009 121.08C274.041 121.08 272.601 120.184 272.601 118.76C272.601 117.4 274.041 116.456 276.009 116.456C277.961 116.456 279.433 117.336 279.433 118.776ZM283.193 124.392H281.977V123.88H278.905V122.984H281.977V116.136H283.193V124.392ZM276.569 124.408H275.353V122.728C274.137 122.776 272.985 122.808 271.817 122.824L271.625 121.8C273.257 121.8 274.729 121.752 276.249 121.688C277.977 121.624 279.337 121.544 280.697 121.384L280.809 122.312C279.865 122.408 278.153 122.568 276.569 122.648V124.408ZM278.217 118.776C278.217 117.912 277.337 117.432 276.009 117.432C274.729 117.432 273.817 117.912 273.817 118.776C273.817 119.624 274.729 120.072 276.009 120.072C277.289 120.072 278.217 119.624 278.217 118.776ZM291.208 128.392V118.872L289.224 119.336V118.6L291.752 117.416H292.424V128.392H291.208ZM298.254 128.536C295.966 128.536 294.51 127.352 294.51 125.592C294.51 124.184 295.726 123.208 296.91 122.744C295.758 122.296 294.814 121.48 294.814 120.104C294.814 118.552 296.142 117.4 298.206 117.4C300.222 117.4 301.582 118.376 301.582 120.04C301.582 121.336 300.51 122.088 299.406 122.664C300.734 123.096 302.014 123.864 302.014 125.48C302.014 127.192 300.574 128.536 298.254 128.536ZM298.238 127.48C299.614 127.48 300.654 126.712 300.654 125.608C300.654 124.296 299.774 123.816 297.918 123.224C296.862 123.592 295.79 124.36 295.79 125.544C295.79 126.728 296.814 127.48 298.238 127.48ZM298.462 122.2C299.47 121.752 300.254 121.112 300.254 120.088C300.254 119.144 299.55 118.456 298.222 118.456C296.99 118.456 296.174 119.048 296.174 120.072C296.174 121.176 297.038 121.832 298.462 122.2ZM314.498 123.208H313.282V116.136H314.498V123.208ZM315.01 129.928H305.442V126.392H313.282V124.936H305.394V123.944H314.498V127.336H306.658V128.936H315.01V129.928ZM307.09 116.568C309.09 116.568 310.706 117.832 310.706 119.736C310.706 121.624 309.09 122.856 307.09 122.856C305.09 122.856 303.442 121.64 303.442 119.736C303.442 117.848 305.074 116.568 307.09 116.568ZM307.09 117.624C305.714 117.624 304.626 118.472 304.626 119.72C304.626 120.968 305.698 121.8 307.09 121.8C308.546 121.8 309.522 120.968 309.522 119.736C309.522 118.488 308.546 117.624 307.09 117.624ZM331.744 130.12H330.528V116.136H331.744V130.12ZM327.632 117.624C327.568 122.168 324.784 125.64 321.168 127.352L320.464 126.392C324 124.84 326.08 121.8 326.336 118.648H320.976V117.624H327.632ZM345.78 121.272L345.22 122.312C342.884 121.912 340.772 120.696 340.068 119.432C339.524 120.712 337.444 121.928 334.98 122.312L334.42 121.288C336.756 121.08 339.332 119.8 339.444 117.944H334.884V116.92H345.236V117.944H340.724C340.836 119.816 343.684 121.08 345.78 121.272ZM340.676 127.064H339.46V124.296H333.764V123.288H346.388V124.296H340.676V127.064ZM345.092 129.688H335.316V125.592H336.532V128.664H345.092V129.688Z" fill="#434343" fill-opacity="0.5"/>
</svg>
