<svg width="481" height="87" viewBox="0 0 481 87" fill="none" xmlns="http://www.w3.org/2000/svg">
<path d="M32.0942 0.391678C39.0069 0.391678 44.9931 1.70982 50.0173 4.34611C58.1414 8.87055 61.5978 14.0006 60.4219 19.7363C59.9587 23.3345 57.6782 25.7214 53.6161 26.8971C50.0173 27.859 47.0598 27.0039 44.6724 24.4033C41.323 19.3801 35.9425 17.3494 28.531 18.3113C28.0678 18.3113 27.6759 18.4182 27.4621 18.6676C23.4 19.1307 20.6563 21.1614 19.231 24.7595C18.5184 26.6833 18.7678 28.714 19.9437 30.8515C22.7942 32.7753 27.4621 33.5947 33.9115 33.3453C37.7242 33.3453 40.6104 33.5947 42.4989 34.0578C50.1598 34.7703 56.3598 38.5822 61.1346 45.5292C64.2346 49.8399 65.6598 54.4712 65.4461 59.4944C65.6955 67.1539 62.5955 73.4596 56.146 78.4828C53.5092 80.4066 50.7656 81.8316 47.915 82.7935C35.2655 86.8548 24.0414 86.8548 14.2425 82.7935C6.36776 78.9816 1.69993 74.4215 0.274639 69.1845C-0.687432 65.1232 0.880387 61.917 4.94247 59.53C8.75512 57.1431 12.2114 57.25 15.3471 59.8863C15.8103 60.1357 16.1666 60.3494 16.4161 60.5988C20.4781 65.8714 27.6402 67.6527 37.9023 65.9783C41.9644 65.7289 44.7081 64.197 46.1334 61.3113C47.0954 59.6369 47.0954 57.8556 46.1334 55.9319C43.9954 53.5449 40.1471 52.3337 34.6598 52.3337C22.723 52.7968 13.9931 50.4099 8.50569 45.173C2.44821 40.1498 -0.295477 33.5947 0.203374 25.472C0.203374 20.1995 1.77119 15.5681 4.8712 11.5068C10.3586 3.84735 19.1954 0.142299 31.3816 0.391678H32.0942Z" fill="black"/>
<path d="M79.3784 35.8748C79.3784 27.5028 81.8727 20.2352 86.8968 14.0364C92.883 6.4125 101.577 2.56494 113.051 2.56494C130.261 4.23934 140.88 12.0057 144.942 25.864C145.654 28.9635 146.118 32.3123 146.367 35.9104V76.7373C146.367 80.5492 144.585 83.2924 140.987 84.9668C139.561 85.6793 138.243 86.0355 137.031 86.0355C132.969 86.0355 130.226 84.1118 128.8 80.2998C128.337 79.1242 128.088 77.9129 128.088 76.7017V35.8748C127.625 27.0397 122.6 22.159 113.051 21.1971C104.927 21.1971 100.045 25.009 98.3704 32.6685C98.121 33.8798 98.0141 34.9485 98.0141 35.9104V76.7373C98.0141 80.5492 96.09 83.2924 92.2773 84.9668C91.3152 85.6793 90.1394 86.0355 88.6784 86.0355C84.6164 86.0355 81.7658 84.1118 80.0911 80.2998C79.6278 79.1242 79.3784 77.9129 79.3784 76.7017V35.8748Z" fill="black"/>
<path d="M217.703 6.8402C228.464 14.9628 233.844 27.1467 233.844 43.392C233.844 60.8129 228.464 73.1393 217.703 80.3C211.717 84.112 205.053 86.0357 197.642 86.0357C189.268 86.0357 181.892 83.6488 175.443 78.875C166.357 71.2155 161.938 59.4235 162.188 43.392C162.188 26.4342 167.568 14.3572 178.329 7.19646C184.066 3.13515 190.515 1.10449 197.677 1.10449C205.338 1.10449 212.002 3.02827 217.738 6.8402H217.703ZM197.642 67.4036C209.365 67.4036 215.209 59.3878 215.209 43.392C215.209 27.3961 209.365 20.0929 197.642 20.0929C194.542 20.0929 191.549 21.0548 188.698 22.9429C183.425 26.2917 180.823 33.0962 180.823 43.3564V44.7814C180.823 59.8153 186.453 67.368 197.677 67.368L197.642 67.4036Z" fill="black"/>
<path d="M304.075 6.8402C314.836 14.9628 320.217 27.1467 320.217 43.392C320.217 60.8129 314.836 73.1393 304.075 80.3C298.089 84.112 291.426 86.0357 284.014 86.0357C275.641 86.0357 268.265 83.6488 261.815 78.875C252.729 71.2155 248.311 59.4235 248.56 43.392C248.56 26.4342 253.941 14.3572 264.702 7.19646C270.438 3.13515 276.888 1.10449 284.05 1.10449C291.711 1.10449 298.374 3.02827 304.111 6.8402H304.075ZM284.014 67.4036C295.737 67.4036 301.581 59.3878 301.581 43.392C301.581 27.3961 295.737 20.0929 284.014 20.0929C280.914 20.0929 277.921 21.0548 275.071 22.9429C269.797 26.2917 267.196 33.0962 267.196 43.3564V44.7814C267.196 59.8153 272.826 67.368 284.05 67.368L284.014 67.4036Z" fill="black"/>
<path d="M340.242 2.5293H389.7C393.512 2.5293 396.256 4.31057 397.931 7.90875C399.855 11.2575 399.605 14.6063 397.218 17.9551L359.59 67.0471H389.7C393.298 67.0471 396.042 68.6146 397.931 71.7141C399.855 74.8135 399.855 78.0554 397.931 81.4042C396.007 84.5036 393.263 86.0711 389.7 86.0711H340.242C336.429 86.0711 333.543 84.2899 331.655 80.6917C329.98 77.0935 330.336 73.7803 332.724 70.6453L370.351 21.5533H340.242C336.643 21.5533 333.899 19.9858 332.011 16.8864C330.087 13.5376 330.087 10.3313 332.011 7.19624C333.935 4.09682 336.679 2.5293 340.242 2.5293Z" fill="black"/>
<path d="M465.668 64.1616C468.518 61.7747 471.761 61.169 475.36 62.3803C478.46 63.8053 480.241 66.4416 480.74 70.2535C481.453 73.8517 480.277 76.7017 477.141 78.8393C473.792 81.6893 469.623 83.7556 464.599 84.9312C461 85.6438 455.049 85.8931 446.676 85.6438C440.689 85.6438 434.846 83.6131 429.109 79.5518C418.597 71.8923 412.968 60.314 412.255 44.7813C412.006 43.6056 412.006 42.2875 412.255 40.8268C412.968 24.5816 418.597 13.0033 429.109 6.09196C434.846 2.03065 441.402 0 448.814 0C454.301 0 459.218 1.17564 463.494 3.59818C474.968 10.7589 480.704 22.6935 480.704 39.4375V43.0356C480.704 44.2113 480.455 45.4225 479.992 46.5982C478.567 50.4101 475.68 52.3339 471.405 52.3339H432.352C434.026 60.4565 438.801 65.1235 446.676 66.2991H449.918C458.292 66.2991 463.53 65.5866 465.668 64.1616ZM447.745 19.3803H446.676C444.538 19.3803 442.15 20.0928 439.514 21.5178C435.701 24.1541 433.314 28.0729 432.352 33.3455H461.748V32.633C460.786 26.6479 458.399 22.7291 454.586 20.8053C452.911 19.8434 450.88 19.3803 448.493 19.3803H447.78H447.745Z" fill="black"/>
</svg>
